<?xml version="1.0" encoding="UTF-8" standalone="no"?>
<!-- Created with Inkscape (http://www.inkscape.org/) -->

<svg
   xmlns:dc="http://purl.org/dc/elements/1.1/"
   xmlns:cc="http://creativecommons.org/ns#"
   xmlns:rdf="http://www.w3.org/1999/02/22-rdf-syntax-ns#"
   xmlns:svg="http://www.w3.org/2000/svg"
   xmlns="http://www.w3.org/2000/svg"
   xmlns:sodipodi="http://sodipodi.sourceforge.net/DTD/sodipodi-0.dtd"
   xmlns:inkscape="http://www.inkscape.org/namespaces/inkscape"
   width="385.33801"
   height="74.387001"
   viewBox="0 0 101.95401 19.681561"
   version="1.1"
   id="svg8"
   inkscape:version="0.92.4 (5da689c313, 2019-01-14)"
   sodipodi:docname="claim.svg"
   inkscape:export-filename="C:\Users\iacop\Downloads\vikingbg.png"
   inkscape:export-xdpi="96"
   inkscape:export-ydpi="96">
  <defs
     id="defs2" />
  <sodipodi:namedview
     id="base"
     pagecolor="#ffffff"
     bordercolor="#666666"
     borderopacity="1.0"
     inkscape:pageopacity="0.0"
     inkscape:pageshadow="2"
     inkscape:zoom="0.49497475"
     inkscape:cx="615.53185"
     inkscape:cy="467.21181"
     inkscape:document-units="mm"
     showgrid="false"
     inkscape:window-width="1920"
     inkscape:window-height="991"
     inkscape:window-x="-9"
     inkscape:window-y="-9"
     inkscape:window-maximized="1"
     units="px"
     inkscape:snap-others="false"
     inkscape:object-nodes="false"
     inkscape:current-layer="layer2"
     inkscape:object-paths="true"
     inkscape:snap-nodes="true" />
  <metadata
     id="metadata5">
    <rdf:RDF>
      <cc:Work
         rdf:about="">
        <dc:format>image/svg+xml</dc:format>
        <dc:type
           rdf:resource="http://purl.org/dc/dcmitype/StillImage" />
        <dc:title></dc:title>
      </cc:Work>
    </rdf:RDF>
  </metadata>
  <g
     inkscape:groupmode="layer"
     id="layer1"
     inkscape:label="Claim"
     transform="translate(0,-266.06844)">
    <g
       id="g1354"
       style="fill:#ffffff"
       transform="translate(-126.62237,104.92673)">
      <path
         id="path1122"
         d="m 159.17801,166.68659 c -0.0451,-0.0586 -0.32457,0.20134 -0.62064,0.57775 l -0.53795,0.68471 -0.6444,-0.64441 c -0.19935,-0.19934 -0.35898,-0.34887 -0.49765,-0.44906 -0.13867,-0.1002 -0.25642,-0.15091 -0.37207,-0.15245 -0.11564,-0.002 -0.22889,0.046 -0.35915,0.14263 -0.13026,0.0966 -0.27741,0.24238 -0.45992,0.43666 -0.24504,0.26083 -0.3797,0.44532 -0.42478,0.63976 -0.0451,0.19444 -5.3e-4,0.39866 0.1142,0.70021 0.0751,0.19761 0.14324,0.82217 0.19276,1.66863 0.0495,0.84646 0.0806,1.91522 0.0806,3.00189 v 3.95118 h 1.05834 1.05833 v -3.65973 c 0,-1.00651 0.0196,-1.94158 0.0517,-2.63705 0.0321,-0.69546 0.0764,-1.15177 0.12505,-1.20044 0.0487,-0.0487 0.14432,-0.0457 0.25942,-0.003 0.11509,0.0431 0.24973,0.12652 0.37569,0.24029 0.10547,0.0954 0.19048,0.16462 0.26871,0.20102 0.0782,0.0364 0.14949,0.0402 0.22841,0.005 0.15785,-0.0701 0.34525,-0.29538 0.67335,-0.72554 l 0.7121,-0.93431 -0.59996,-0.86868 c -0.33014,-0.47793 -0.63704,-0.91705 -0.68213,-0.97565 z"
         style="opacity:1;fill:#ffffff;fill-opacity:1;stroke:none;stroke-width:6;stroke-linecap:round;stroke-linejoin:round;stroke-miterlimit:4;stroke-dasharray:none;stroke-opacity:1;paint-order:stroke fill markers"
         inkscape:connector-curvature="0" />
      <path
         id="path1118"
         d="m 206.171,166.58686 c -0.25718,0.0828 -0.59303,0.36504 -1.264,0.92914 l -1.34359,1.12913 1.17719,0.1447 c 0.26598,0.0326 0.54386,0.0973 0.7984,0.17673 0.25454,0.0794 0.48582,0.17347 0.65836,0.26303 0.17254,0.0896 0.28594,0.17462 0.30592,0.23771 0.02,0.0631 -0.0537,0.10387 -0.25683,0.10387 -0.14277,0 -0.35547,0.107 -0.60151,0.28371 -0.24604,0.1767 -0.52563,0.42316 -0.80254,0.70331 -0.2769,0.28016 -0.55114,0.59398 -0.78651,0.90434 -0.23537,0.31036 -0.4315,0.61739 -0.55294,0.8847 -0.1325,0.29166 -0.25371,0.63966 -0.3421,0.96532 -0.0884,0.32565 -0.14413,0.62904 -0.14573,0.83147 -0.002,0.2405 0.0341,0.50927 0.10077,0.78858 0.0667,0.27932 0.16413,0.56926 0.28422,0.85163 0.1201,0.28237 0.26289,0.55699 0.42117,0.80667 0.15827,0.24967 0.33192,0.47404 0.51314,0.65526 l 0.57775,0.57774 0.75189,-0.72037 0.75189,-0.72089 0.61443,0.71417 0.61392,0.71417 0.6413,-0.68316 c 0.15743,-0.16758 0.27639,-0.29829 0.36484,-0.46457 0.0884,-0.16628 0.14661,-0.36804 0.18293,-0.67593 0.0727,-0.61579 0.058,-1.65779 0.0233,-3.69745 -0.0194,-1.14032 -0.0247,-1.96947 -0.0527,-2.59209 -0.028,-0.62262 -0.0788,-1.03862 -0.1881,-1.35237 -0.0547,-0.15688 -0.12425,-0.28787 -0.21291,-0.4067 -0.0887,-0.11882 -0.1964,-0.22541 -0.32814,-0.33228 -0.2635,-0.21373 -0.62217,-0.42933 -1.1126,-0.75189 -0.1777,-0.11688 -0.31139,-0.20465 -0.43253,-0.2527 -0.12114,-0.048 -0.23004,-0.0564 -0.35863,-0.015 z m -0.13281,4.10259 c 0.0539,-0.0202 0.10114,-0.0189 0.14263,0.006 0.0415,0.0246 0.077,0.0726 0.10749,0.14521 0.0609,0.1453 0.10117,0.38986 0.12609,0.74724 0.0249,0.35738 0.0346,0.82739 0.0346,1.42317 0,0.59783 -0.01,1.06911 -0.0346,1.42678 -0.025,0.35768 -0.0652,0.60205 -0.12661,0.74621 -0.0307,0.0721 -0.0666,0.11893 -0.10852,0.14263 -0.0419,0.0237 -0.0901,0.0239 -0.14469,0.003 -0.10911,-0.0427 -0.24473,-0.17221 -0.4129,-0.37517 h -5.3e-4 c -0.11792,-0.14232 -0.20573,-0.42102 -0.26406,-0.76843 -0.0583,-0.34741 -0.0873,-0.76339 -0.0863,-1.17925 0.001,-0.41586 0.0315,-0.8321 0.0915,-1.17977 0.0599,-0.34769 0.14958,-0.62712 0.2682,-0.76998 0.16587,-0.19986 0.29987,-0.32646 0.40773,-0.36691 z"
         style="opacity:1;fill:#ffffff;fill-opacity:1;stroke:none;stroke-width:6;stroke-linecap:round;stroke-linejoin:round;stroke-miterlimit:4;stroke-dasharray:none;stroke-opacity:1;paint-order:stroke fill markers"
         inkscape:connector-curvature="0" />
      <path
         id="path1114"
         d="m 162.29306,166.52846 -0.57877,0.57155 c -0.1389,0.13707 -0.24414,0.25288 -0.3235,0.41806 -0.0794,0.16517 -0.1326,0.37962 -0.16691,0.71416 -0.0686,0.66911 -0.0618,1.81835 -0.0372,4.01268 0.0282,2.51542 0.11056,4.66918 0.18293,4.78627 0.0362,0.0585 0.18611,0.11179 0.39895,0.15038 0.21283,0.0386 0.4884,0.0625 0.77514,0.0625 h 1.04283 v -3.94033 c 0,-1.56822 0.0186,-2.56052 0.0744,-3.175 0.0279,-0.30724 0.0651,-0.51997 0.11368,-0.66301 0.0486,-0.14304 0.10911,-0.21661 0.18294,-0.24494 0.20406,-0.0783 0.44218,-0.071 0.52917,0.016 0.087,0.087 0.15813,1.70631 0.15813,3.59875 0,1.4152 0.0193,2.29715 0.0837,2.87476 0.0322,0.2888 0.0759,0.50167 0.13384,0.66714 0.0579,0.16547 0.1301,0.28342 0.22015,0.38293 0.14488,0.16009 0.2759,0.27843 0.40204,0.35398 0.12614,0.0755 0.24756,0.10816 0.37259,0.0977 0.12502,-0.0105 0.25379,-0.0643 0.39532,-0.16227 0.14153,-0.098 0.29562,-0.23986 0.47129,-0.42685 0.24504,-0.26083 0.38022,-0.44531 0.4253,-0.63975 0.0451,-0.19444 -7e-5,-0.39918 -0.11473,-0.70073 -0.0751,-0.19762 -0.14323,-0.74175 -0.19275,-1.45935 -0.0495,-0.71759 -0.0801,-1.60843 -0.0801,-2.49958 v -3.24063 l -0.78031,-0.74776 -0.78031,-0.74724 -0.68885,0.81907 -0.68885,0.81855 -0.76481,-0.84852 z"
         style="opacity:1;fill:#ffffff;fill-opacity:1;stroke:none;stroke-width:6;stroke-linecap:round;stroke-linejoin:round;stroke-miterlimit:4;stroke-dasharray:none;stroke-opacity:1;paint-order:stroke fill markers"
         inkscape:connector-curvature="0" />
      <path
         id="path1110"
         d="m 153.63984,166.50159 c -0.2318,0.089 -0.70461,0.23292 -1.05109,0.31988 -0.15584,0.0391 -0.27329,0.0707 -0.36277,0.15658 -0.0895,0.0859 -0.15145,0.22583 -0.19586,0.48059 -0.0888,0.50952 -0.10854,1.47871 -0.14469,3.39617 -0.0305,1.61809 -0.0649,2.58736 -0.13333,3.15175 -0.0342,0.2822 -0.0769,0.46309 -0.13177,0.57361 -0.0548,0.11051 -0.12179,0.15038 -0.20464,0.15038 -0.0822,0 -0.14885,-0.0369 -0.20361,-0.13746 -0.0547,-0.10059 -0.0978,-0.26452 -0.13229,-0.51832 -0.0689,-0.5076 -0.1044,-1.37452 -0.13487,-2.81068 -0.0351,-1.65426 -0.0606,-2.52816 -0.15658,-3.06234 -0.048,-0.26709 -0.11381,-0.44906 -0.20671,-0.60152 -0.0929,-0.15245 -0.2129,-0.27515 -0.37052,-0.42323 l -0.66094,-0.62063 -0.56069,0.56069 c -0.132,0.132 -0.2328,0.24794 -0.30902,0.40721 -0.0762,0.15926 -0.12775,0.36223 -0.16123,0.66766 -0.067,0.61085 -0.0614,1.633 -0.0357,3.5419 0.0269,1.99092 0.0437,3.00759 0.13901,3.61632 0.0477,0.30436 0.11491,0.50666 0.21291,0.67747 0.098,0.17082 0.22693,0.31027 0.39739,0.48886 0.38193,0.40018 0.75441,0.72761 0.82837,0.72761 0.0739,0 0.46601,-0.31711 0.87075,-0.70487 l 0.73587,-0.70486 0.55449,0.70486 c 0.17048,0.21673 0.32142,0.38044 0.46354,0.49145 0.14211,0.111 0.27525,0.16941 0.41082,0.17569 0.13558,0.006 0.27339,-0.0395 0.42427,-0.13694 0.15087,-0.0974 0.31481,-0.24637 0.50281,-0.44648 0.24504,-0.26083 0.38022,-0.44532 0.4253,-0.63975 0.0451,-0.19444 -7e-5,-0.39918 -0.11473,-0.70074 -0.0751,-0.19761 -0.14323,-0.83957 -0.19275,-1.71514 -0.0495,-0.87557 -0.0801,-1.98474 -0.0801,-3.11557 0,-1.82656 -0.0117,-2.84984 -0.0703,-3.39876 -0.0293,-0.27446 -0.0706,-0.43028 -0.12764,-0.5085 -0.0571,-0.0782 -0.13017,-0.0788 -0.22376,-0.0429 z"
         style="opacity:1;fill:#ffffff;fill-opacity:1;stroke:none;stroke-width:6;stroke-linecap:round;stroke-linejoin:round;stroke-miterlimit:4;stroke-dasharray:none;stroke-opacity:1;paint-order:stroke fill markers"
         inkscape:connector-curvature="0" />
      <path
         id="path1106"
         d="m 178.5546,166.43751 c -0.13339,-0.01 -0.26354,0.0323 -0.40566,0.12506 -0.14212,0.0927 -0.29593,0.23606 -0.47697,0.42891 -0.28023,0.2985 -0.52494,0.63466 -0.73432,0.99839 -0.20939,0.36374 -0.38381,0.75509 -0.52245,1.16531 -0.13865,0.41021 -0.24153,0.83899 -0.30954,1.27692 -0.068,0.43794 -0.10071,0.88532 -0.0982,1.33222 0.003,0.4469 0.0402,0.89357 0.11317,1.33067 0.0729,0.4371 0.18076,0.86424 0.32401,1.27279 0.14326,0.40855 0.32191,0.79838 0.53537,1.15962 0.21346,0.36123 0.46161,0.69392 0.74517,0.98908 0.21177,0.22043 0.38186,0.38689 0.52917,0.50023 0.14731,0.11335 0.27216,0.17382 0.39274,0.18294 0.12058,0.009 0.2369,-0.0333 0.36846,-0.12558 0.13155,-0.0923 0.27811,-0.23453 0.45837,-0.42529 0.31174,-0.32992 0.57404,-0.65735 0.79168,-0.99787 0.21764,-0.34054 0.39068,-0.69402 0.52503,-1.07591 0.13436,-0.38189 0.23009,-0.79192 0.29197,-1.24592 0.0619,-0.45399 0.0902,-0.9521 0.0904,-1.50895 2.5e-4,-0.56915 -0.0226,-1.06066 -0.077,-1.49965 -0.0544,-0.43899 -0.14058,-0.82556 -0.26717,-1.18391 -0.12658,-0.35835 -0.29381,-0.68873 -0.51004,-1.01595 -0.21624,-0.32723 -0.48175,-0.65122 -0.80512,-0.99684 -0.20647,-0.22068 -0.3795,-0.38722 -0.53434,-0.50126 -0.15483,-0.11405 -0.29139,-0.17543 -0.42478,-0.18501 z m -0.96893,2.6045 c 0.1027,0 0.21759,0.0509 0.33951,0.14314 0.12192,0.0923 0.25095,0.22598 0.38293,0.39171 0.26395,0.33145 0.53881,0.79097 0.78806,1.30328 0.24925,0.5123 0.47281,1.0775 0.63407,1.62005 0.16126,0.54255 0.26045,1.06248 0.26045,1.48467 0,0.1822 -0.0343,0.32336 -0.0946,0.42219 -0.0602,0.0988 -0.14671,0.15552 -0.25166,0.16899 -0.10495,0.0135 -0.22814,-0.0165 -0.36225,-0.0904 -0.13412,-0.0739 -0.27911,-0.19177 -0.42685,-0.35502 -0.18675,-0.20635 -0.37369,-0.48474 -0.54932,-0.8046 -0.17564,-0.31985 -0.34005,-0.6811 -0.48111,-1.05265 -0.14106,-0.37154 -0.25857,-0.75376 -0.34158,-1.11517 -0.083,-0.36142 -0.13131,-0.70221 -0.13281,-0.99168 -0.002,-0.30922 0.0241,-0.59045 0.0667,-0.79426 0.0426,-0.20382 0.10217,-0.33021 0.16847,-0.33021 z"
         style="opacity:1;fill:#ffffff;fill-opacity:1;stroke:none;stroke-width:6;stroke-linecap:round;stroke-linejoin:round;stroke-miterlimit:4;stroke-dasharray:none;stroke-opacity:1;paint-order:stroke fill markers"
         inkscape:connector-curvature="0" />
      <path
         id="path1104"
         d="m 218.98314,166.39669 -0.73484,0.76688 c -0.30567,0.31905 -0.47696,0.53295 -0.54208,0.72347 -0.0326,0.0953 -0.0389,0.18448 -0.0217,0.27802 0.0172,0.0935 0.0578,0.19125 0.11782,0.30334 0.0863,0.16124 0.15827,0.70918 0.20877,1.52497 0.0505,0.81578 0.0796,1.89988 0.0796,3.13262 v 4.1181 h 1.05833 1.05833 v -4.8488 c 0,-2.36284 -0.004,-3.57847 -0.0827,-4.27364 -0.0392,-0.34759 -0.0971,-0.56515 -0.18242,-0.73071 -0.0854,-0.16555 -0.1981,-0.27897 -0.34726,-0.41909 z"
         style="opacity:1;fill:#ffffff;fill-opacity:1;stroke:none;stroke-width:6;stroke-linecap:round;stroke-linejoin:round;stroke-miterlimit:4;stroke-dasharray:none;stroke-opacity:1;paint-order:stroke fill markers"
         inkscape:connector-curvature="0" />
      <path
         id="path1102"
         d="m 187.98503,166.39617 c -0.0704,0 -0.60473,0.1432 -1.18752,0.31781 l -1.05937,0.3173 0.15968,2.52697 c 0.044,0.69487 0.13103,1.5048 0.23565,2.25051 0.10462,0.74572 0.22681,1.42689 0.34158,1.86345 0.23528,0.89502 0.5823,1.85415 0.91209,2.58951 0.16489,0.36768 0.32549,0.67935 0.4656,0.89917 0.14011,0.21982 0.25957,0.34778 0.34262,0.34778 0.0606,0 0.20394,-0.17599 0.3855,-0.4594 0.18156,-0.28342 0.40163,-0.67432 0.6165,-1.10433 l 0.78135,-1.56321 0.69298,1.60559 c 0.34267,0.79416 0.51713,1.19452 0.67283,1.33583 0.0779,0.0707 0.15127,0.0765 0.23823,0.0346 0.087,-0.0419 0.18762,-0.13157 0.32091,-0.25218 0.19506,-0.17653 0.38889,-0.39307 0.57826,-0.64131 0.18936,-0.24823 0.37441,-0.52816 0.5519,-0.83147 0.35497,-0.60664 0.67996,-1.30679 0.95033,-2.03399 0.27037,-0.72719 0.48588,-1.4815 0.62219,-2.19624 0.0682,-0.35738 0.11674,-0.70473 0.14211,-1.03405 0.0254,-0.32932 0.0277,-0.64037 0.004,-0.92501 -0.0271,-0.32688 -0.10239,-0.68088 -0.20825,-1.02784 -0.10587,-0.34696 -0.24226,-0.68681 -0.39274,-0.98599 -0.15049,-0.29917 -0.31498,-0.55752 -0.47594,-0.74104 -0.16097,-0.18352 -0.31848,-0.29249 -0.45579,-0.29249 -0.0628,0 -0.18366,0.0896 -0.32763,0.23358 -0.14397,0.14401 -0.31105,0.34271 -0.46664,0.56121 l -0.56585,0.79426 0.54673,0.69557 c 0.26686,0.33925 0.48034,0.73985 0.63769,1.17409 0.15735,0.43423 0.25842,0.90213 0.30127,1.37614 0.0429,0.47401 0.0275,0.95373 -0.0491,1.41232 -0.0766,0.45859 -0.21437,0.89567 -0.41548,1.28364 -0.12881,0.24849 -0.19891,0.37123 -0.26665,0.35398 -0.0677,-0.0172 -0.13293,-0.17448 -0.2527,-0.48627 -0.20453,-0.53252 -0.44859,-1.66161 -0.64233,-2.84427 -0.19374,-1.18267 -0.33714,-2.41888 -0.3421,-3.16519 -0.003,-0.38127 -0.003,-0.66598 -0.0238,-0.87229 -0.021,-0.20631 -0.0631,-0.33398 -0.14883,-0.40205 -0.0857,-0.0681 -0.21522,-0.0763 -0.41186,-0.0429 -0.19664,0.0335 -0.46011,0.10845 -0.81391,0.20671 -0.2247,0.0624 -0.39918,0.11639 -0.53433,0.17466 -0.13515,0.0583 -0.23136,0.12097 -0.29921,0.20154 -0.0678,0.0806 -0.10743,0.17869 -0.13022,0.30799 -0.0228,0.12931 -0.0284,0.28957 -0.0284,0.49403 0,0.49654 0.13202,1.79153 0.29352,2.87734 0.0973,0.65408 0.14879,1.21088 0.15503,1.66605 0.006,0.45518 -0.0329,0.80877 -0.11782,1.05679 l -0.25632,0.74827 -0.31161,-1.05833 c -0.0857,-0.29104 -0.1818,-0.87551 -0.26768,-1.58285 -0.0859,-0.70735 -0.16161,-1.53758 -0.20619,-2.31976 -0.0891,-1.56435 -0.21996,-2.84427 -0.29042,-2.84427 z"
         style="opacity:1;fill:#ffffff;fill-opacity:1;stroke:none;stroke-width:6;stroke-linecap:round;stroke-linejoin:round;stroke-miterlimit:4;stroke-dasharray:none;stroke-opacity:1;paint-order:stroke fill markers"
         inkscape:connector-curvature="0" />
      <path
         id="path1100"
         d="m 140.84114,166.39617 c -0.0919,0 -0.2405,0.10216 -0.41961,0.27337 -0.17912,0.17121 -0.38902,0.41142 -0.60358,0.6873 -0.42912,0.55175 -0.87706,1.24636 -1.1374,1.81746 -0.18282,0.40105 -0.31502,0.84813 -0.39739,1.3193 -0.0824,0.47116 -0.11481,0.96647 -0.0982,1.46451 0.0166,0.49803 0.0822,0.99888 0.19637,1.48053 0.11419,0.48164 0.27701,0.94431 0.48731,1.36632 0.18756,0.37639 0.44919,0.79506 0.71985,1.16686 0.27067,0.37179 0.54998,0.69645 0.77309,0.88418 l 0.81131,0.68264 0.8878,-0.86041 c 0.48838,-0.47335 0.88832,-0.94047 0.88832,-1.03766 0,-0.0972 -0.44648,-0.48646 -0.99219,-0.86558 -0.27284,-0.18956 -0.55909,-0.42381 -0.80046,-0.64802 -0.24137,-0.22422 -0.43787,-0.43848 -0.53124,-0.58911 -0.0769,-0.12401 -0.12826,-0.22935 -0.14107,-0.339 -0.0128,-0.10965 0.0127,-0.22368 0.0889,-0.36535 0.15235,-0.28336 0.50791,-0.6771 1.16582,-1.36685 l 1.45314,-1.52342 -1.06246,-1.77353 c -0.29208,-0.4877 -0.58295,-0.93121 -0.81649,-1.25264 -0.23354,-0.32143 -0.40955,-0.5209 -0.47181,-0.5209 z m -1.02733,2.52646 0.50333,0.65526 c 0.16181,0.21058 0.2833,0.4185 0.36432,0.62115 0.081,0.20265 0.12119,0.39986 0.12144,0.58911 2.5e-4,0.18925 -0.0399,0.37067 -0.1204,0.54105 -0.0805,0.17039 -0.20147,0.3299 -0.36277,0.47594 -0.12408,0.11229 -0.21849,0.19553 -0.29301,0.24288 -0.0745,0.0474 -0.12912,0.0587 -0.17363,0.0274 -0.089,-0.0627 -0.13743,-0.29687 -0.22376,-0.75706 -0.049,-0.26127 -0.0734,-0.57993 -0.0729,-0.88315 5.3e-4,-0.30322 0.0262,-0.59083 0.076,-0.78961 z"
         style="opacity:1;fill:#ffffff;fill-opacity:1;stroke:none;stroke-width:6;stroke-linecap:round;stroke-linejoin:round;stroke-miterlimit:4;stroke-dasharray:none;stroke-opacity:1;paint-order:stroke fill markers"
         inkscape:connector-curvature="0" />
      <path
         id="path1098"
         d="m 224.19161,166.26388 -1.33067,1.36943 c -0.46177,0.47516 -0.80645,0.86877 -1.03094,1.23093 -0.11225,0.18108 -0.19454,0.35437 -0.2465,0.52607 -0.052,0.17168 -0.0736,0.34189 -0.0646,0.51676 0.009,0.17487 0.0488,0.35456 0.11938,0.54519 0.0705,0.19062 0.17211,0.39186 0.30489,0.61081 0.26555,0.43789 0.65628,0.94537 1.1746,1.572 0.45666,0.55206 0.82391,1.04572 1.09244,1.45107 0.26853,0.40535 0.43822,0.72202 0.49971,0.91984 0.0307,0.0989 0.0344,0.16798 0.01,0.20361 -0.0246,0.0356 -0.0775,0.0378 -0.15968,0.003 -0.16443,-0.0705 -0.4465,-0.29024 -0.85576,-0.68988 l -1.00046,-0.9772 -0.70021,0.70022 -0.70022,0.6997 1.07125,1.27072 1.07126,1.27073 1.26814,-1.06919 c 0.3487,-0.29402 0.69929,-0.64254 0.9834,-0.96738 0.2841,-0.32485 0.50158,-0.62592 0.58394,-0.82476 0.10251,-0.24746 0.15654,-0.48778 0.154,-0.73845 -0.003,-0.25068 -0.0617,-0.51187 -0.18397,-0.80047 -0.1223,-0.28861 -0.30806,-0.6046 -0.56482,-0.96583 -0.25677,-0.36125 -0.58418,-0.76752 -0.99013,-1.23611 -0.36137,-0.41714 -0.68938,-0.85212 -0.92604,-1.21646 -0.23666,-0.36434 -0.38212,-0.65811 -0.37982,-0.79375 0.003,-0.20403 0.0288,-0.29584 0.10956,-0.26148 0.0808,0.0343 0.21727,0.19459 0.44183,0.49557 0.17031,0.22827 0.30929,0.39926 0.43253,0.51263 0.12324,0.11338 0.2304,0.16906 0.33745,0.16692 0.10705,-0.002 0.21363,-0.0621 0.33538,-0.18035 0.12175,-0.11827 0.25899,-0.29467 0.42633,-0.52968 l 0.5395,-0.7581 -0.91054,-1.02784 z"
         style="opacity:1;fill:#ffffff;fill-opacity:1;stroke:none;stroke-width:6;stroke-linecap:round;stroke-linejoin:round;stroke-miterlimit:4;stroke-dasharray:none;stroke-opacity:1;paint-order:stroke fill markers"
         inkscape:connector-curvature="0" />
      <path
         id="path1096"
         d="m 174.49025,165.33784 c -0.11462,0 -0.79371,0.59467 -1.50947,1.32136 -0.50797,0.51573 -0.81612,0.8636 -0.96583,1.11363 -0.0749,0.12502 -0.11007,0.22569 -0.11111,0.31058 -0.001,0.0849 0.0323,0.15372 0.0946,0.21601 0.10989,0.10988 0.18953,0.48834 0.24185,1.16892 0.0523,0.68057 0.0775,1.66368 0.0775,2.98328 0,1.78545 0.009,2.75403 0.0863,3.34759 0.0384,0.29679 0.0935,0.49956 0.1726,0.66405 0.0791,0.16448 0.18227,0.29041 0.31626,0.43305 0.17563,0.18694 0.31369,0.32768 0.4315,0.42271 0.11781,0.095 0.21518,0.14441 0.31006,0.14935 0.0949,0.005 0.1872,-0.0345 0.29404,-0.11783 0.10683,-0.0833 0.22821,-0.21051 0.38189,-0.38034 0.10881,-0.12023 0.19347,-0.24073 0.25786,-0.40876 0.0644,-0.16802 0.10865,-0.38383 0.13746,-0.69504 0.0576,-0.62244 0.0529,-1.62642 0.0212,-3.39411 -0.0311,-1.7318 -0.0359,-2.72148 0.0129,-3.27836 0.0244,-0.27844 0.0622,-0.44872 0.11679,-0.54932 0.0546,-0.10059 0.12606,-0.13177 0.21756,-0.13177 0.12102,0 0.22589,-0.0558 0.30024,-0.14986 0.0744,-0.094 0.11834,-0.22626 0.11834,-0.37931 0,-0.14699 -0.0441,-0.27911 -0.11576,-0.37465 -0.0717,-0.0955 -0.17087,-0.15451 -0.28112,-0.15451 -0.0717,0 -0.13229,-0.0184 -0.18293,-0.0579 -0.0506,-0.0395 -0.0913,-0.1 -0.12299,-0.18449 -0.0634,-0.16904 -0.091,-0.43379 -0.091,-0.81597 0,-0.29104 -0.0237,-0.55541 -0.0615,-0.74724 -0.0378,-0.19182 -0.09,-0.31109 -0.14727,-0.31109 z"
         style="opacity:1;fill:#ffffff;fill-opacity:1;stroke:none;stroke-width:6;stroke-linecap:round;stroke-linejoin:round;stroke-miterlimit:4;stroke-dasharray:none;stroke-opacity:1;paint-order:stroke fill markers"
         inkscape:connector-curvature="0" />
      <path
         id="path1094"
         d="m 146.65319,165.22363 -1.43609,1.41852 c -0.62197,0.61425 -0.96829,0.98109 -1.11828,1.23559 -0.075,0.12724 -0.10115,0.22647 -0.0878,0.31419 0.0133,0.0877 0.066,0.16419 0.14779,0.24598 0.0732,0.0732 0.13329,0.18743 0.18242,0.36483 0.0491,0.17741 0.0873,0.41791 0.11627,0.74259 0.0578,0.64937 0.0791,1.6364 0.0791,3.13315 0,1.61156 0.0179,2.59697 0.0816,3.23029 0.0319,0.31666 0.0752,0.54523 0.13333,0.71985 0.0582,0.17463 0.13138,0.29543 0.22272,0.39636 0.14489,0.1601 0.2759,0.27844 0.40204,0.35399 0.12615,0.0755 0.24757,0.10815 0.37259,0.0977 0.12502,-0.0105 0.25379,-0.0643 0.39533,-0.16226 0.14153,-0.098 0.29562,-0.24037 0.47129,-0.42737 0.24503,-0.26082 0.38021,-0.44479 0.42529,-0.63923 0.0451,-0.19444 -6e-5,-0.39918 -0.11472,-0.70073 -0.0751,-0.19762 -0.14323,-0.73247 -0.19275,-1.43506 -0.0495,-0.70259 -0.0801,-1.5728 -0.0801,-2.44119 0,-1.31526 0.0165,-2.10459 0.0744,-2.56522 0.029,-0.23032 0.0682,-0.37869 0.12093,-0.46922 0.0527,-0.0905 0.11889,-0.12351 0.20153,-0.12351 0.11025,0 0.20947,-0.0585 0.28112,-0.154 0.0717,-0.0955 0.11576,-0.22818 0.11576,-0.37517 0,-0.14699 -0.0441,-0.27911 -0.11576,-0.37465 -0.0716,-0.0955 -0.17087,-0.15451 -0.28112,-0.15451 -0.0725,0 -0.13368,-0.0186 -0.18448,-0.0594 -0.0508,-0.0409 -0.0915,-0.10427 -0.12299,-0.19275 -0.063,-0.17698 -0.0894,-0.45545 -0.0894,-0.863 z"
         style="opacity:1;fill:#ffffff;fill-opacity:1;stroke:none;stroke-width:6;stroke-linecap:round;stroke-linejoin:round;stroke-miterlimit:4;stroke-dasharray:none;stroke-opacity:1;paint-order:stroke fill markers"
         inkscape:connector-curvature="0" />
      <path
         id="path1092"
         d="m 212.53444,165.21175 -1.3808,1.38131 c -0.543,0.543 -0.87143,0.90536 -1.03197,1.16375 -0.0803,0.1292 -0.11844,0.2321 -0.12093,0.31885 -0.002,0.0867 0.0312,0.15724 0.0946,0.22065 0.0562,0.0562 0.10443,0.17937 0.14521,0.37569 0.0408,0.19632 0.074,0.46568 0.10025,0.81442 0.0525,0.69749 0.077,1.7121 0.077,3.09335 0,1.6573 0.018,2.6677 0.0816,3.31401 0.0318,0.32316 0.0751,0.555 0.13333,0.73174 0.0582,0.17675 0.13113,0.29824 0.22272,0.39946 0.14435,0.1595 0.27516,0.27731 0.40101,0.35295 0.12585,0.0756 0.24663,0.10928 0.37104,0.0997 0.1244,-0.01 0.25272,-0.0621 0.39274,-0.15813 0.14001,-0.096 0.29189,-0.23581 0.46457,-0.41962 0.24551,-0.26133 0.37941,-0.44567 0.42375,-0.66249 0.0443,-0.21682 -0.001,-0.46581 -0.11318,-0.85679 -0.0718,-0.25048 -0.13713,-0.81335 -0.18448,-1.51826 -0.0473,-0.7049 -0.0765,-1.55188 -0.0765,-2.37091 0,-1.2355 0.0169,-1.98017 0.0749,-2.41588 0.029,-0.21785 0.0683,-0.35876 0.12092,-0.44493 0.0526,-0.0862 0.11871,-0.11782 0.20102,-0.11782 0.11025,0 0.20947,-0.0585 0.28112,-0.154 0.0717,-0.0955 0.11576,-0.22818 0.11576,-0.37517 0,-0.14699 -0.0441,-0.27911 -0.11576,-0.37465 -0.0717,-0.0955 -0.17087,-0.15451 -0.28112,-0.15451 -0.0726,0 -0.13366,-0.0189 -0.18448,-0.0599 -0.0508,-0.041 -0.0915,-0.10386 -0.12299,-0.19275 -0.0629,-0.17779 -0.0894,-0.45851 -0.0894,-0.86868 z"
         style="opacity:1;fill:#ffffff;fill-opacity:1;stroke:none;stroke-width:6;stroke-linecap:round;stroke-linejoin:round;stroke-miterlimit:4;stroke-dasharray:none;stroke-opacity:1;paint-order:stroke fill markers"
         inkscape:connector-curvature="0" />
      <path
         id="path1090"
         d="m 218.86118,164.67535 c -0.0763,-0.017 -0.14446,-0.004 -0.216,0.0351 -0.0716,0.0395 -0.14653,0.10569 -0.2372,0.19637 -0.16632,0.16632 -0.25208,0.28581 -0.26148,0.40566 -0.009,0.11985 0.0574,0.24054 0.1974,0.40927 0.091,0.10971 0.1848,0.19632 0.28474,0.26045 0.0999,0.0641 0.20641,0.10579 0.32246,0.12558 0.2321,0.0396 0.50354,-0.009 0.84336,-0.13901 0.0891,-0.0342 0.15295,-0.068 0.18965,-0.10801 0.0367,-0.04 0.0461,-0.0862 0.0259,-0.14521 -0.0404,-0.11809 -0.19921,-0.2875 -0.49454,-0.5612 -0.31539,-0.29229 -0.50154,-0.44494 -0.65423,-0.47904 z"
         style="opacity:1;fill:#ffffff;fill-opacity:1;stroke:none;stroke-width:6;stroke-linecap:round;stroke-linejoin:round;stroke-miterlimit:4;stroke-dasharray:none;stroke-opacity:1;paint-order:stroke fill markers"
         inkscape:connector-curvature="0" />
      <path
         id="path1082"
         d="m 134.49631,163.47594 c -0.64577,-0.07 -1.7182,-0.0396 -3.78581,0.0294 l -2.05208,0.0687 0.39843,0.60823 c 0.0816,0.12451 0.14734,0.29501 0.19998,0.56069 0.0526,0.26568 0.092,0.62619 0.12145,1.13068 0.0588,1.00899 0.077,2.59325 0.077,5.14336 v 6.22701 h 1.45521 1.45521 v -3.62459 c 0,-0.92848 0.0117,-1.65178 0.0388,-2.17764 0.0271,-0.52586 0.0695,-0.85449 0.13074,-0.99374 0.0306,-0.0696 0.066,-0.0917 0.10645,-0.0677 0.0405,0.024 0.0862,0.0941 0.13746,0.20981 0.10245,0.23134 0.22707,0.644 0.37776,1.2299 0.12541,0.48764 0.27943,0.97851 0.45475,1.46193 0.17532,0.48342 0.37182,0.95974 0.58188,1.41696 0.4201,0.91446 0.89472,1.75408 1.3627,2.4319 0.234,0.33891 0.46617,0.6374 0.68937,0.88418 0.2232,0.24679 0.43735,0.44196 0.63458,0.57464 0.19724,0.13268 0.37772,0.20287 0.53382,0.19947 0.1561,-0.003 0.28779,-0.0804 0.38758,-0.24184 0.0483,-0.0781 0.0266,-0.21864 -0.047,-0.38241 -0.0736,-0.16376 -0.19913,-0.35056 -0.35915,-0.5209 -0.11661,-0.12412 -0.2136,-0.25414 -0.29611,-0.40824 -0.0825,-0.1541 -0.15052,-0.33249 -0.20877,-0.55397 -0.1165,-0.44296 -0.19436,-1.0578 -0.27285,-1.99471 -0.0509,-0.60792 -0.11753,-1.14173 -0.20619,-1.61902 -0.0887,-0.4773 -0.19959,-0.89816 -0.339,-1.28055 -0.13941,-0.38238 -0.30738,-0.72636 -0.51056,-1.04954 -0.20318,-0.32319 -0.44143,-0.62584 -0.72141,-0.92553 l -0.63923,-0.6842 1.46347,-0.97203 c 0.40247,-0.26722 0.76827,-0.55549 1.03353,-0.8046 0.26526,-0.24911 0.42995,-0.45874 0.42995,-0.56947 0,-0.17862 -0.0442,-0.39885 -0.12144,-0.63821 -0.0772,-0.23936 -0.18777,-0.49828 -0.31988,-0.75499 -0.1321,-0.25671 -0.28595,-0.5109 -0.45062,-0.74156 -0.16466,-0.23065 -0.33981,-0.43772 -0.51469,-0.59893 -0.18019,-0.1661 -0.32541,-0.29162 -0.50591,-0.38447 -0.18051,-0.0928 -0.39646,-0.15311 -0.71934,-0.1881 z"
         style="opacity:1;fill:#ffffff;fill-opacity:1;stroke:none;stroke-width:6;stroke-linecap:round;stroke-linejoin:round;stroke-miterlimit:4;stroke-dasharray:none;stroke-opacity:1;paint-order:stroke fill markers"
         inkscape:connector-curvature="0" />
      <path
         id="path1086"
         d="m 197.98856,164.32963 c -0.0831,-0.0112 -0.19239,0.0167 -0.33693,0.0579 -0.32742,0.0932 -0.92924,0.24221 -1.33739,0.33125 -0.28545,0.0623 -0.45908,0.12747 -0.54105,0.21807 -0.082,0.0906 -0.0722,0.20677 0.008,0.37104 0.0576,0.11744 0.11942,0.87168 0.1726,1.99212 0.0532,1.12044 0.0973,2.60687 0.1204,4.18941 l 0.0842,5.75469 h 1.04438 1.04386 v -3.96875 c 0,-1.66358 0.0155,-2.65555 0.0724,-3.23184 0.0284,-0.28815 0.0673,-0.47233 0.11937,-0.58447 0.0521,-0.11213 0.11742,-0.15244 0.19947,-0.15244 0.10766,0 0.2711,0.1264 0.447,0.33021 0.17591,0.20381 0.36425,0.48504 0.52348,0.79427 0.15822,0.30726 0.28957,0.72801 0.39016,1.21336 0.10059,0.48535 0.17056,1.03537 0.20722,1.60145 0.0367,0.56608 0.0398,1.14812 0.006,1.69757 -0.0336,0.54945 -0.10382,1.06626 -0.21394,1.50172 -0.10694,0.42294 -0.15601,0.64547 -0.12712,0.71985 0.0289,0.0744 0.13598,8e-4 0.34106,-0.16949 0.18696,-0.15516 0.38641,-0.38675 0.58395,-0.6656 0.19753,-0.27884 0.39316,-0.60476 0.57102,-0.94878 0.17787,-0.34402 0.33818,-0.70609 0.46612,-1.05678 0.12795,-0.35069 0.22353,-0.69023 0.2713,-0.98909 0.0826,-0.51666 0.0942,-1.07839 0.0445,-1.65364 -0.0497,-0.57525 -0.16109,-1.16404 -0.32505,-1.73478 -0.16395,-0.57074 -0.38022,-1.12363 -0.64027,-1.62677 -0.26005,-0.50315 -0.56374,-0.95668 -0.90175,-1.32912 l -0.54054,-0.59531 -0.73639,0.85989 -0.7369,0.86041 -0.0104,-1.94871 c -0.005,-0.94652 -0.0125,-1.43308 -0.0904,-1.66192 -0.039,-0.11442 -0.0957,-0.16448 -0.1788,-0.1757 z"
         style="opacity:1;fill:#ffffff;fill-opacity:1;stroke:none;stroke-width:6;stroke-linecap:round;stroke-linejoin:round;stroke-miterlimit:4;stroke-dasharray:none;stroke-opacity:1;paint-order:stroke fill markers"
         inkscape:connector-curvature="0" />
    </g>
  </g>
  <g
     inkscape:groupmode="layer"
     id="layer2"
     inkscape:label="Claim 1"
     transform="translate(0,-266.06844)">
    <path
       style="fill:#142b58;fill-opacity:1;stroke-width:0.26458341"
       d="m 9.4475242,285.46364 c -0.50932,-0.22629 -1.24135,-0.71319 -1.62673,-1.08201 -0.5784,-0.55355 -0.7947,-0.62026 -1.23938,-0.38228 -0.29627,0.15857 -1.38911,0.2883 -2.42852,0.2883 -1.73598,0 -1.95279,-0.063 -2.66322,-0.7734 l -0.77339999,-0.77339 v -6.00412 c 0,-4.98097 -0.0767,-6.2202 -0.45038,-7.27218 -0.52501,-1.4782 -0.29008,-2.31541 0.86147999,-3.06994 0.58865,-0.3857 0.87213,-0.41251 1.78497,-0.16886 0.7639,0.20389 1.54162,0.20925 2.62689,0.0181 2.78278,-0.49018 5.1976498,0.55769 6.3099698,2.73803 0.53112,1.04107 0.55781,1.05588 1.06906,0.59321 0.79774,-0.72194 2.2927,-0.62096 3.00121,0.20273 l 0.58254,0.67724 1.34788,-1.28578 c 1.61138,-1.53716 2.59203,-1.69252 3.69859,-0.58596 0.43811,0.43811 1.03213,0.72 1.58842,0.75377 0.48872,0.0297 1.01117,0.17654 1.161,0.32636 0.18683,0.18683 0.6296,0.16492 1.40933,-0.0697 0.66889,-0.20131 1.99457,-0.30302 3.22037,-0.24708 1.1459,0.0523 2.9169,0.0966 3.93555,0.0984 1.01864,0.002 2.2688,0.004 2.77812,0.004 4.30773,0.005 3.87916,-0.0921 5.23322,1.18619 l 1.24907,1.17919 0.17779,3.92132 c 0.0978,2.15673 0.25657,4.40066 0.35286,4.9865 0.16964,1.03206 0.12873,1.10899 -1.31604,2.4754 -1.3373,1.26476 -1.5784,1.39276 -2.33724,1.24079 -0.46536,-0.0932 -1.71745,-0.15697 -2.78242,-0.14172 -1.36491,0.0196 -2.12634,-0.0968 -2.58028,-0.39421 -0.58644,-0.38424 -0.71579,-0.38481 -1.44768,-0.006 -0.73818,0.38173 -2.12139,0.47611 -5.8097,0.39641 -0.50932,-0.011 -1.56702,-0.0134 -2.35044,-0.005 -0.88671,0.009 -1.67024,-0.14644 -2.07562,-0.41206 -0.61517,-0.40307 -0.68683,-0.39322 -1.29481,0.17794 -0.90136,0.84678 -2.2602,0.80815 -3.20525,-0.0911 l -0.73117,-0.69576 -0.77022,0.66682 c -0.60371,0.52265 -0.97553,0.64049 -1.7198,0.54506 -0.73787,-0.0946 -1.09916,0.017 -1.62059,0.50049 -0.88298,0.8188 -2.0212,0.99309 -3.1654298,0.48473 z m 1.7318998,-1.98933 c 0.0966,-0.15629 -0.0862,-0.56288 -0.40624,-0.90354 -0.46643,-0.49648 -0.62073,-1.08315 -0.7777098,-2.95697 -0.20371,-2.43166 -0.65721,-3.67555 -1.7771,-4.87431 l -0.63957,-0.68462 1.46353,-0.97173 c 0.80494,-0.53445 1.4635198,-1.15293 1.4635198,-1.3744 0,-0.71445 -0.7070998,-2.08846 -1.4066198,-2.73329 -0.72075,-0.6644 -0.87582,-0.68121 -5.01106,-0.54313 l -2.05206,0.0685 0.39842,0.60806 c 0.32631,0.49802 0.39841,1.73486 0.39841,6.83507 v 6.22701 h 1.45521 1.4552 v -3.62479 c 0,-3.71394 0.18864,-4.14279 0.7914,-1.79917 1.00332,3.90109 3.8463798,8.01895 4.6446698,6.72729 z M 5.7433542,271.72925 c 0,-1.83096 0.0751,-2.25827 0.39688,-2.25827 0.62336,0 1.45521,0.9906 1.45521,1.73293 0,0.88985 -0.66753,2.14965 -1.32566,2.50187 -0.5064,0.27102 -0.52643,0.19583 -0.52643,-1.97653 z m 10.5833398,8.83831 c 0,-0.0972 -0.44649,-0.48688 -0.99219,-0.866 -0.5457,-0.37911 -1.14496,-0.93579 -1.33169,-1.23705 -0.30742,-0.49602 -0.20223,-0.69167 1.11359,-2.07116 l 1.45308,-1.5234 -1.0621,-1.77344 c -0.58415,-0.9754 -1.16398,-1.77344 -1.2885,-1.77344 -0.36764,0 -1.63995,1.63592 -2.16063,2.77812 -0.73128,1.60421 -0.65322,3.94233 0.18797,5.63038 0.37511,0.75277 1.0471,1.67585 1.4933,2.0513 l 0.81128,0.68265 0.88794,-0.86063 c 0.48837,-0.47335 0.88795,-0.94014 0.88795,-1.03733 z m -3.31959,-4.32218 c -0.098,-0.52255 -0.0966,-1.27537 0.003,-1.67293 l 0.18142,-0.72285 0.50327,0.65496 c 0.64723,0.84231 0.6482,1.64307 0.003,2.22724 -0.49632,0.44916 -0.51791,0.43395 -0.69058,-0.48642 z m 6.98626,5.56864 c 0.49007,-0.52166 0.54001,-0.73703 0.3107,-1.34014 -0.15026,-0.39523 -0.27321,-2.13959 -0.27321,-3.87637 0,-2.63052 0.0663,-3.15778 0.39688,-3.15778 0.22049,0 0.39687,-0.23518 0.39687,-0.52916 0,-0.29398 -0.17638,-0.52917 -0.39687,-0.52917 -0.29002,0 -0.39688,-0.30033 -0.39688,-1.11544 v -1.11544 l -1.43598,1.41815 c -1.24394,1.22849 -1.38548,1.46865 -1.05833,1.79579 0.29265,0.29266 0.37765,1.24703 0.37765,4.24053 0,3.22314 0.0725,3.943 0.43788,4.34672 0.57954,0.64039 0.93862,0.61027 1.64129,-0.13769 z m 4.3163,-0.34806 0.73588,-0.70502 0.55457,0.70502 c 0.68192,0.86693 1.04956,0.88396 1.80158,0.0835 0.49008,-0.52166 0.54001,-0.73703 0.31071,-1.34014 -0.15027,-0.39523 -0.27321,-2.56905 -0.27321,-4.83072 0,-3.65311 -0.0471,-4.09408 -0.42146,-3.9504 -0.2318,0.089 -0.70493,0.23288 -1.05141,0.31984 -0.62334,0.15644 -0.63073,0.19883 -0.70303,4.03376 -0.061,3.23617 -0.13855,3.87566 -0.46994,3.87566 -0.32884,0 -0.40948,-0.59425 -0.47042,-3.46657 -0.0702,-3.30853 -0.10367,-3.49485 -0.73414,-4.08715 l -0.66059,-0.62059 -0.56088,0.56088 c -0.52801,0.52801 -0.55766,0.79852 -0.50609,4.61632 0.0538,3.98184 0.0674,4.06865 0.74921,4.78305 0.38193,0.40018 0.75492,0.7276 0.82888,0.7276 0.0739,0 0.4656,-0.31726 0.87034,-0.70502 z m 6.83369,-2.95505 c 0,-2.01303 0.0796,-3.7397 0.17697,-3.83703 0.0973,-0.0973 0.38308,0.01 0.63499,0.23754 0.42188,0.38179 0.51423,0.3408 1.17043,-0.51952 l 0.71241,-0.93401 -0.60026,-0.86898 c -0.33014,-0.47793 -0.63714,-0.91691 -0.68223,-0.97551 -0.0451,-0.0586 -0.32423,0.20143 -0.6203,0.57784 l -0.53833,0.68437 -0.64398,-0.64398 c -0.79739,-0.79739 -0.95882,-0.79954 -1.68887,-0.0224 -0.49007,0.52166 -0.54,0.73703 -0.3107,1.34014 0.15026,0.39522 0.27321,2.49678 0.27321,4.67012 v 3.95152 h 1.05833 1.05833 z m 5.82084,-0.28037 c 0,-3.13644 0.0757,-3.96949 0.371,-4.08281 0.20406,-0.0783 0.44218,-0.0712 0.52917,0.0158 0.087,0.087 0.15816,1.70652 0.15816,3.59896 0,2.8304 0.0777,3.52663 0.43788,3.92465 0.57955,0.64039 0.93862,0.61026 1.64129,-0.13769 0.49008,-0.52166 0.54001,-0.73703 0.31071,-1.34014 -0.15027,-0.39523 -0.27321,-2.17685 -0.27321,-3.95916 v -3.24057 l -0.78015,-0.74743 -0.78014,-0.74743 -0.68899,0.81882 -0.68898,0.81881 -0.76492,-0.84849 -0.76492,-0.84849 -0.57898,0.57142 c -0.55557,0.54832 -0.5769,0.75624 -0.52775,5.1449 0.0282,2.51542 0.11044,4.6693 0.18281,4.78639 0.0724,0.1171 0.60081,0.21291 1.1743,0.21291 h 1.04272 z m 8.71053,5.98467 c -0.491,-0.33089 -1.16346,-1.00334 -1.49434,-1.49434 -0.55046,-0.81682 -0.60161,-1.19036 -0.60161,-4.39316 0,-2.50611 -0.11224,-3.76907 -0.39514,-4.44613 -0.26827,-0.64208 -0.31982,-1.1409 -0.16056,-1.55367 0.35644,-0.92382 4.11782,-4.44443 4.74839,-4.44443 0.88673,0 1.81322,0.54109 2.13473,1.24673 0.2401,0.52697 0.37496,0.59728 0.67229,0.35052 0.68214,-0.56612 1.97156,-0.39178 3.13409,0.42376 2.43208,1.70616 3.70165,6.07678 2.73303,9.4087 -0.74507,2.56298 -2.99377,5.23904 -4.40237,5.23904 -0.24921,0 -0.90149,-0.30427 -1.44951,-0.67617 -0.98773,-0.67029 -1.00128,-0.67173 -1.55827,-0.16535 -0.69239,0.62946 -1.59425,1.10611 -2.09287,1.10611 -0.20632,0 -0.77686,-0.27073 -1.26786,-0.60161 z m 2.01365,-2.31826 c 0.43525,-0.48095 0.47983,-0.96254 0.41633,-4.49792 -0.0622,-3.46359 -0.0187,-3.9593 0.34731,-3.9593 0.24204,0 0.41843,-0.22307 0.41843,-0.52916 0,-0.29398 -0.17639,-0.52917 -0.39688,-0.52917 -0.28663,0 -0.39687,-0.29398 -0.39687,-1.05833 0,-0.58209 -0.0938,-1.05834 -0.20838,-1.05834 -0.11462,0 -0.79402,0.59457 -1.50978,1.32127 -1.01595,1.03145 -1.2314,1.39126 -0.98225,1.64041 0.21978,0.21978 0.31916,1.5126 0.31916,4.15179 0,3.57091 0.0393,3.87445 0.57528,4.445 0.7025,0.74778 0.80293,0.753 1.41765,0.0737 z m 5.16355,-0.32128 c 1.24698,-1.31968 1.69786,-2.60126 1.69878,-4.82865 10e-4,-2.2766 -0.36544,-3.31384 -1.65893,-4.69635 -0.82588,-0.88272 -1.11794,-0.9037 -1.84212,-0.13229 -2.24181,2.38801 -2.21493,7.16365 0.0536,9.525 0.84705,0.8817 1.02763,0.89536 1.74866,0.13229 z m -0.61864,-2.5183 c -0.74698,-0.82541 -1.49896,-2.80611 -1.50495,-3.96399 -0.003,-0.61846 0.10267,-1.12448 0.23526,-1.12448 0.8216,0 2.40477,3.25406 2.40477,4.94281 0,0.72883 -0.54412,0.79865 -1.13508,0.14566 z m 11.60709,5.35972 c -0.52984,-0.28077 -0.85839,-0.3239 -1.0451,-0.13718 -0.14978,0.14978 -0.7161,0.27232 -1.25849,0.27232 -0.81102,0 -1.126,-0.16967 -1.77368,-0.95541 -1.52429,-1.84923 -2.69058,-6.30893 -2.69058,-10.28835 0,-1.53367 0.10861,-2.05211 0.54653,-2.60884 0.7636,-0.97076 2.71849,-1.43307 6.19169,-1.46427 2.70162,-0.0243 2.94215,-0.0696 3.48737,-0.65763 0.67784,-0.73102 4.09808,-1.86074 4.88106,-1.61223 0.71656,0.22743 1.5621,1.18134 1.5621,1.76231 0,0.39766 1.76604,2.2987 2.35058,2.53026 0.0934,0.037 0.74683,-0.40947 1.452,-0.99218 1.52048,-1.25646 2.41238,-1.35012 3.81038,-0.40015 l 0.9703,0.65933 1.06618,-1.02531 c 1.81836,-1.74864 2.75339,-2.00202 3.94092,-1.06791 0.47816,0.37612 0.69714,0.79934 0.69714,1.34733 0,0.79743 0.90068,2.27762 1.14518,1.88201 0.071,-0.11483 0.11638,-0.65516 0.10091,-1.20075 -0.0231,-0.8156 0.1554,-1.1799 1.0041,-2.04904 0.8495,-0.86997 1.21187,-1.05708 2.0472,-1.05708 0.86673,0 1.20348,0.19147 2.30524,1.31077 1.0896,1.10694 1.33989,1.25094 1.60954,0.92604 0.17561,-0.2116 0.76284,-0.38473 1.30495,-0.38473 0.8587,0 1.17831,0.20197 2.481136,1.56786 1.22796,1.28736 1.49548,1.7318 1.49548,2.48423 0,0.504 -0.22036,1.18854 -0.48973,1.52118 -0.47942,0.59205 -0.47711,0.62347 0.10963,1.48805 1.45469,2.14363 0.96053,4.27209 -1.536636,6.61859 -1.72138,1.61752 -2.6224,1.93607 -3.71026,1.31172 -0.59169,-0.33958 -0.88362,-0.37219 -1.30637,-0.14595 -0.30987,0.16584 -1.34105,0.24635 -2.3936,0.18687 -2.78471,-0.15735 -2.84385,-0.27492 -2.84385,-5.65354 0,-2.37638 -0.10216,-4.38383 -0.22702,-4.461 -0.12485,-0.0772 -0.43322,0.24323 -0.68525,0.71199 -0.46198,0.85925 -0.46501,2.70111 -0.01,6.01167 0.15953,1.1604 0.12974,1.22387 -1.17354,2.50031 -1.08257,1.06028 -1.51171,1.30969 -2.25344,1.30969 -0.50392,0 -1.1305,-0.19286 -1.3924,-0.42857 -0.43973,-0.39577 -0.52036,-0.39263 -1.05351,0.0411 -0.45098,0.36687 -1.07836,0.47196 -2.86669,0.48018 -2.16016,0.01 -2.33907,-0.0331 -3.17025,-0.7629 l -0.88089,-0.77344 -1.01492,0.68875 c -0.74299,0.50421 -1.21873,0.64799 -1.7756,0.53662 -0.41838,-0.0837 -1.52512,-0.15213 -2.45943,-0.15213 -1.4562,0 -1.79256,-0.0938 -2.35582,-0.65708 l -0.65708,-0.65707 -0.71996,0.77992 c -0.90118,0.97624 -1.818,1.19234 -2.81565,0.66367 z m 16.56769,-2.39348 0.61414,0.71397 0.64141,-0.68275 c 0.6297,-0.67029 0.64012,-0.75863 0.57074,-4.83795 -0.0776,-4.56128 0.0673,-4.14558 -1.89441,-5.43581 -0.7108,-0.46751 -0.71316,-0.46675 -2.0551,0.66145 l -1.34348,1.1295 1.17688,0.14433 c 1.06392,0.13046 2.31857,0.78172 1.50599,0.78172 -0.5711,0 -2.25794,1.70662 -2.74368,2.77585 -0.265,0.58333 -0.48444,1.39185 -0.48763,1.79671 -0.008,0.96202 0.5943,2.37756 1.31919,3.10244 l 0.57764,0.57764 0.75208,-0.72054 0.75209,-0.72054 z m -1.40887,-2.14296 c -0.4717,-0.56929 -0.4655,-3.32582 0.009,-3.89727 0.66348,-0.79944 0.81874,-0.42885 0.81874,1.95427 0,2.39133 -0.15482,2.75485 -0.8275,1.943 z m -16.4241,0.99126 0.78137,-1.56366 0.69297,1.60604 c 0.68533,1.58833 0.69891,1.60066 1.23204,1.11819 1.56051,-1.41224 3.03761,-5.38514 2.84877,-7.66224 -0.10843,-1.30752 -0.98347,-3.04717 -1.53272,-3.04717 -0.1257,0 -0.48314,0.35754 -0.79431,0.79454 l -0.56577,0.79454 0.54685,0.69521 c 1.06743,1.35701 1.27879,3.69467 0.47436,5.24653 -0.25762,0.49699 -0.28,0.49129 -0.51952,-0.13229 -0.40907,-1.06504 -0.97454,-4.51686 -0.98446,-6.00947 -0.0101,-1.5251 0.0169,-1.5036 -1.39829,-1.11057 -0.89884,0.24962 -0.99219,0.36049 -0.99219,1.17834 0,0.49654 0.13213,1.79119 0.29363,2.877 0.19455,1.30814 0.20714,2.22677 0.0373,2.72279 l -0.25634,0.74858 -0.31172,-1.05833 c -0.17145,-0.58208 -0.38466,-2.33825 -0.47381,-3.9026 -0.0891,-1.56435 -0.21972,-2.84427 -0.29018,-2.84427 -0.0704,0 -0.60494,0.14286 -1.18773,0.31747 l -1.05963,0.31747 0.15992,2.5268 c 0.088,1.38974 0.34772,3.24117 0.57725,4.1143 0.47057,1.79003 1.38832,3.83646 1.72052,3.83646 0.12118,0 0.57195,-0.70365 1.0017,-1.56366 z m 23.28753,0.95487 c 0.49101,-0.52266 0.53497,-0.73764 0.31071,-1.51961 -0.14367,-0.50095 -0.26122,-2.25106 -0.26122,-3.88913 0,-2.47099 0.0676,-2.97831 0.39687,-2.97831 0.22049,0 0.39688,-0.23518 0.39688,-0.52916 0,-0.29398 -0.17639,-0.52917 -0.39688,-0.52917 -0.29035,0 -0.39687,-0.30098 -0.39687,-1.12133 v -1.12133 l -1.38088,1.38087 c -1.086,1.086 -1.31199,1.44975 -1.05833,1.70342 0.22494,0.22494 0.32254,1.52118 0.32254,4.28368 0,3.31459 0.0715,4.04012 0.43788,4.445 0.57739,0.63801 0.93858,0.61031 1.6293,-0.12493 z m 13.7968,-2.27503 c 0.410016,-0.98986 0.0385,-1.86658 -1.58529,-3.74093 -0.72276,-0.83429 -1.31033,-1.73886 -1.30572,-2.01014 0.007,-0.40807 0.10211,-0.3676 0.55123,0.23437 0.68123,0.91307 0.86235,0.90946 1.5317,-0.0306 l 0.53985,-0.75815 -0.91084,-1.02779 -0.91084,-1.02779 -1.33079,1.3694 c -1.84709,1.90067 -1.81658,2.49499 0.25672,5.00148 1.82661,2.20826 2.22383,3.486 0.58676,1.88745 l -1.00074,-0.9772 -0.70009,0.70008 -0.70009,0.70009 1.07134,1.27054 1.07134,1.27054 1.26798,-1.06918 c 0.6974,-0.58804 1.40276,-1.39455 1.56748,-1.79222 z m -28.03481,-1.34952 c 0,-3.32716 0.0633,-3.96875 0.39149,-3.96875 0.21533,0 0.65206,0.50602 0.97053,1.12448 0.63286,1.22904 0.82995,4.27222 0.3895,6.01408 -0.21389,0.84588 -0.19649,0.89068 0.21369,0.55026 0.74783,-0.62064 1.70127,-2.46476 1.89239,-3.6602 0.33041,-2.06664 -0.47042,-4.85439 -1.82248,-6.34415 l -0.54067,-0.59574 -0.73647,0.86033 -0.73648,0.86032 -0.0107,-1.94909 c -0.0104,-1.89304 -0.0279,-1.94421 -0.60607,-1.77957 -0.32742,0.0932 -0.92926,0.24238 -1.33741,0.33142 -0.57091,0.12454 -0.69383,0.26041 -0.53281,0.58894 0.11512,0.23488 0.24716,3.01666 0.29341,6.18174 l 0.0841,5.75468 h 1.04401 1.04402 v -3.96875 z m 21.96041,-0.87992 c 0,-4.72567 -0.0155,-4.86326 -0.61215,-5.42375 l -0.61215,-0.57509 -0.73448,0.76663 c -0.61134,0.63811 -0.68615,0.85695 -0.44618,1.30532 0.17259,0.32249 0.2883,2.19164 0.2883,4.65713 v 4.11843 h 1.05833 1.05833 z m -0.41279,-6.42662 c 0.35636,-0.13675 0.31173,-0.26707 -0.27893,-0.81447 -0.63078,-0.58458 -0.74478,-0.61005 -1.10747,-0.24735 -0.33265,0.33265 -0.34398,0.477 -0.0639,0.81446 0.3642,0.43884 0.77067,0.50816 1.45031,0.24736 z m -0.38096,-1.95387 c 0,-0.14552 -0.11203,-0.26459 -0.24896,-0.26459 -0.13694,0 -0.32256,0.11907 -0.4125,0.26459 -0.0899,0.14552 0.0221,0.26458 0.24897,0.26458 0.22687,0 0.41249,-0.11906 0.41249,-0.26458 z"
       id="path1050-2"
       inkscape:connector-curvature="0" />
  </g>
</svg>
