<?xml version="1.0" encoding="UTF-8" standalone="no"?>
<!-- Created with Inkscape (http://www.inkscape.org/) -->

<svg
   xmlns:dc="http://purl.org/dc/elements/1.1/"
   xmlns:cc="http://creativecommons.org/ns#"
   xmlns:rdf="http://www.w3.org/1999/02/22-rdf-syntax-ns#"
   xmlns:svg="http://www.w3.org/2000/svg"
   xmlns="http://www.w3.org/2000/svg"
   xmlns:sodipodi="http://sodipodi.sourceforge.net/DTD/sodipodi-0.dtd"
   xmlns:inkscape="http://www.inkscape.org/namespaces/inkscape"
   width="155.31799"
   height="211.429"
   viewBox="0 0 145.61062 198.21469"
   id="svg2"
   version="1.1"
   inkscape:version="0.92.4 (5da689c313, 2019-01-14)"
   sodipodi:docname="logo.svg"
   inkscape:export-filename="/home/mezzo/Scrivania/Mezzo/immagini/mie/mie grafiche/pirata/pirata.svg.png"
   inkscape:export-xdpi="90"
   inkscape:export-ydpi="90">
  <defs
     id="defs4" />
  <sodipodi:namedview
     id="base"
     pagecolor="#ffffff"
     bordercolor="#666666"
     borderopacity="1.0"
     inkscape:pageopacity="0.0"
     inkscape:pageshadow="2"
     inkscape:zoom="0.7"
     inkscape:cx="119.08166"
     inkscape:cy="253.23752"
     inkscape:document-units="px"
     inkscape:current-layer="layer3"
     showgrid="false"
     inkscape:snap-others="false"
     inkscape:snap-nodes="false"
     inkscape:window-width="1920"
     inkscape:window-height="991"
     inkscape:window-x="-9"
     inkscape:window-y="-9"
     inkscape:window-maximized="1"
     units="px" />
  <metadata
     id="metadata7">
    <rdf:RDF>
      <cc:Work
         rdf:about="">
        <dc:format>image/svg+xml</dc:format>
        <dc:type
           rdf:resource="http://purl.org/dc/dcmitype/StillImage" />
        <dc:title></dc:title>
      </cc:Work>
    </rdf:RDF>
  </metadata>
  <g
     inkscape:groupmode="layer"
     id="layer3"
     inkscape:label="faccia"
     style="display:inline"
     transform="translate(0,-854.14747)">
    <path
       style="display:inline;fill:#000000;stroke-width:0.72348529"
       d="m 47.910612,1052.0779 c -2.99209,-0.5258 -6.64718,0.4408 -8.53771,-2.5647 -8.84655,-8.9063 -20.50856,-16.3436 -24.06869,-29.063 -4.40019,-12.7168 -4.46654,-26.48412 -7.4777098,-39.4642 -1.05345,-11.39648 -0.32109,-22.86682 -0.84251,-34.25432 -3.82851,-7.44817 -9.0195,-14.36174 -6.15807,-23.40077 0.66373,-9.77448 1.2067,-19.93457 6.7493,-28.40249 4.2922798,-8.83996 9.5047498,-17.93725 18.7241298,-22.36864 13.4025,-8.5849 28.09004,-16.21037 44.02928,-18.41231 11.48215,1.19037 21.67016,7.4679 31.258608,13.49455 7.64433,7.11212 16.18592,13.80221 21.6791,22.81437 -5.7494,3.10322 -16.95655,-4.694 -24.705978,-4.93966 -25.25476,-4.94376 -53.65941,-4.58475 -75.57184,10.58604 -9.11309,5.66354 -16.6659498,14.26375 -18.6927198,25.06287 -2.39221,4.75836 -3.55895,19.92297 4.57003,11.62402 9.0176998,-7.89359 18.0517698,-16.63731 30.0858098,-19.51719 18.941,-7.01932 40.54058,-6.14649 58.69406,2.78919 8.657418,3.34192 15.565598,9.76069 20.430678,17.57435 1.97538,4.16339 9.70426,9.55789 10.4622,9.27049 -5.18504,7.69449 -9.51271,16.67867 -10.74969,25.95865 -3.09132,12.24391 -0.0974,25.22124 -4.04061,37.36855 -0.13984,8.6366 -5.72601,14.6109 -12.04341,19.7214 -8.421928,7.7801 -16.379258,16.2784 -25.782908,22.8561 -8.75255,3.7148 -18.66093,3.9084 -28.01135,3.2667 z m 4.81112,-16.3696 c 4.22114,-8.3805 12.07069,-7.8235 17.12426,-0.699 5.52236,3.5877 11.28734,-0.6025 16.30459,-3.0127 -1.89427,-5.9652 2.40419,-10.5052 0.79299,-16.5122 0.6587,-6.4846 -13.3477,-9.8469 -5.60436,-14.7395 -0.31147,-9.15017 -14.7401,-3.69445 -20.79165,-2.71698 -7.34848,0.6508 -14.16174,3.40518 -20.56243,6.90858 -1.023,6.2358 12.42937,-0.7521 17.20328,0.3944 10.53868,0.8704 -6.11907,1.8067 -8.89315,3.6639 -8.33141,1.9919 -19.86728,8.7463 -13.43968,19.2014 5.07639,5.7349 8.51803,13.5457 17.86615,7.5121 z m 5.04943,-13.208 c -11.61793,-7.1115 16.3542,-8.4372 6.4644,-2.1847 -2.51407,0.884 -3.41658,3.9764 -6.4644,2.1847 z m 10.11412,-18.1715 c 4.06132,-3.9106 3.05242,2.7905 0,0 z m -38.1583,21.2985 c -3.31817,-6.5533 1.26479,-11.2929 1.21523,-18.4868 1.30003,-8.16855 10.6196,-10.87799 15.90763,-15.96542 -2.43975,-3.75145 3.05814,-11.26699 6.43099,-6.85489 7.10599,4.31277 -5.73486,3.24157 -4.17965,4.47721 3.19166,1.82648 6.38332,3.65295 9.57498,5.47943 3.64277,-5.77789 11.83836,-5.73078 16.9663,-2.41393 3.9764,0.57018 7.84634,3.98575 9.70692,0.53516 8.22741,5.54697 4.53264,18.80584 4.59847,27.49504 -3.25542,11.6358 8.4485,1.6954 12.779658,-0.9244 7.77471,-6.9324 9.17299,-18.4764 8.89118,-28.35137 -0.24804,-10.47851 4.71148,-20.5696 2.76378,-31.05038 1.34815,-8.76734 -2.79589,-15.85369 -6.0659,-23.44406 -2.45479,-8.01188 -8.554118,-14.47555 -16.275938,-17.52942 -7.6658,-4.54762 -16.51754,-5.80646 -25.33598,-5.81134 -11.4881,-0.4354 -23.20475,1.29513 -33.83508,5.66436 -8.3504,4.13684 -13.74069,11.44407 -20.19423,17.82319 -3.1704498,9.51135 -1.61093,19.8995 -2.15807,29.78512 -0.6257598,10.84254 2.25051,21.34031 4.02023,31.91618 1.55114,8.44302 0.46262,17.58822 6.92034,24.20172 1.7807,1.6738 9.91347,12.6688 8.26914,3.4546 z m 52.59571,-39.75276 c -3.99191,-2.83173 -9.76428,-5.49037 -6.74655,-11.02064 3.68341,3.28048 5.16747,7.03284 9.77313,7.77639 1.66241,3.46223 0.40108,5.65331 -3.02658,3.24425 z m -18.70123,-1.76839 c -2.01541,-4.90829 12.12045,0.96879 2.75847,0.6526 l -1.06588,-0.10817 -1.69253,-0.54443 z m -18.33162,-21.77984 c 1.72673,-3.8915 -5.27812,0.052 -5.51365,-4.58486 -3.06527,3.94529 -15.41397,7.92839 -18.49756,3.50809 4.69075,-7.40896 16.42322,-8.2553 24.66356,-7.83351 1.24488,-2.30587 4.40704,-6.59888 6.4621,-0.86171 3.00282,3.60626 -7.16431,18.88858 -7.11445,9.77199 z m -14.96765,-2.50471 c -3.10655,-3.88023 -0.55729,3.5569 0,0 z m 37.4115,-2.32527 c -6.07275,-4.48623 -1.13825,-9.2488 4.50046,-8.79943 7.12095,-5.66149 14.40539,-3.8727 21.88684,-0.25562 3.30854,6.75078 -6.28412,-2.89623 -5.69604,3.60465 -4.44651,3.08735 -11.8378,1.77879 -13.92369,6.5517 -3.49708,-3.5712 2.47654,5.70289 -3.98242,1.22945 l -1.39539,-1.02069 z m 12.32812,-6.71828 c -1.77758,-3.22833 -3.74735,3.44915 0,0 z m -62.95317,-2.48698 c 4.77229,-9.19157 19.05268,-14.16569 27.27236,-6.87905 0.01,8.12183 -12.28981,-0.75442 -17.22406,3.64117 -1.73006,-0.4699 -12.99177,10.05685 -10.0483,3.23788 z m 51.83985,-10.73647 c 0.135,-6.96965 12.96982,-8.17996 19.18966,-8.96397 3.09014,-1.87241 15.764988,5.19161 9.81626,4.88032 -6.34589,-0.78756 -12.66786,-0.0275 -18.63005,2.27655 -4.97528,2.62915 -8.14795,-3.44329 -10.37587,1.8071 z m 17.44382,59.85114 c -2.00348,-3.18459 -2.28637,1.67902 0,0 z m 35.037668,-43.87888 c 2.91229,-7.73588 -5.36614,-2.68858 -1.76809,1.70089 l 0.78683,-0.43053 0.98126,-1.27035 z m -0.67212,-8.17494 c -2.43494,-3.64455 -2.13133,3.52098 0,0 z m 10.40011,-5.25693 c 4.02526,-3.09302 9.76027,-10.10702 10.45153,-12.79785 -1.45332,5.67557 -6.24275,9.18994 -10.45153,12.79785 z m 12.56409,-22.11105 c 0.0209,-3.61121 3.47888,-7.05686 0.98435,-1.28969 -0.90593,3.14145 -2.62696,9.81129 -1.22471,2.64399 z m -1.11277,-12.01021 c -3.18578,-8.2367 4.20505,6.21254 0,0 z m -48.947938,-1.159 c -6.37418,-0.26127 -6.98621,-4.69949 -0.11074,-2.98363 4.94237,0.33624 10.590758,5.41308 1.8735,3.19448 z m 40.156208,-7.95527 c -5.05656,-2.38726 -4.86507,-2.83632 0.23366,-0.53456 3.38739,1.76109 9.49918,7.93621 2.85563,2.66302 -1.00015,-0.74899 -1.98408,-1.53497 -3.08929,-2.12846 z m -42.777498,3.37168 c -8.30435,-0.37967 0.92485,-3.00738 3.71068,-1.76317 11.661088,-4.18234 0.87446,5.8074 -3.71068,1.76317 z"
       id="path3355"
       inkscape:connector-curvature="0" />
    <flowRoot
       xml:space="preserve"
       id="flowRoot1381"
       style="line-height:1.25;letter-spacing:0px;word-spacing:0px;opacity:1;vector-effect:none;fill:#000000;fill-opacity:1;stroke:none;stroke-width:1;stroke-linecap:butt;stroke-linejoin:miter;stroke-miterlimit:4;stroke-dasharray:none;stroke-dashoffset:0;stroke-opacity:1"
       transform="matrix(0.9375,0,0,0.93749875,-393.82903,258.3175)"><flowRegion
         id="flowRegion1383"><rect
           id="rect1385"
           width="1590"
           height="892.85712"
           x="-330"
           y="211.09113" /></flowRegion><flowPara
         id="flowPara1387" /></flowRoot>  </g>
</svg>
