<?xml version="1.0" encoding="UTF-8" standalone="no"?>
<!-- Created with Inkscape (http://www.inkscape.org/) -->

<svg
   xmlns:dc="http://purl.org/dc/elements/1.1/"
   xmlns:cc="http://creativecommons.org/ns#"
   xmlns:rdf="http://www.w3.org/1999/02/22-rdf-syntax-ns#"
   xmlns:svg="http://www.w3.org/2000/svg"
   xmlns="http://www.w3.org/2000/svg"
   xmlns:sodipodi="http://sodipodi.sourceforge.net/DTD/sodipodi-0.dtd"
   xmlns:inkscape="http://www.inkscape.org/namespaces/inkscape"
   width="210mm"
   height="297mm"
   viewBox="0 0 744.09448819 1052.3622047"
   id="svg2"
   version="1.1"
   inkscape:version="0.92.4 (5da689c313, 2019-01-14)"
   sodipodi:docname="pirata.svg"
   inkscape:export-filename="/home/mezzo/Scrivania/Mezzo/immagini/mie/mie grafiche/pirata/pirata.svg.png"
   inkscape:export-xdpi="90"
   inkscape:export-ydpi="90">
  <defs
     id="defs4" />
  <sodipodi:namedview
     id="base"
     pagecolor="#ffffff"
     bordercolor="#666666"
     borderopacity="1.0"
     inkscape:pageopacity="0.0"
     inkscape:pageshadow="2"
     inkscape:zoom="0.9899495"
     inkscape:cx="482.92659"
     inkscape:cy="591.79242"
     inkscape:document-units="px"
     inkscape:current-layer="layer3"
     showgrid="false"
     inkscape:snap-others="false"
     inkscape:snap-nodes="false"
     inkscape:window-width="1920"
     inkscape:window-height="991"
     inkscape:window-x="-9"
     inkscape:window-y="-9"
     inkscape:window-maximized="1" />
  <metadata
     id="metadata7">
    <rdf:RDF>
      <cc:Work
         rdf:about="">
        <dc:format>image/svg+xml</dc:format>
        <dc:type
           rdf:resource="http://purl.org/dc/dcmitype/StillImage" />
        <dc:title />
      </cc:Work>
    </rdf:RDF>
  </metadata>
  <g
     inkscape:groupmode="layer"
     id="layer2"
     inkscape:label="bandiera 1"
     style="display:inline"
     sodipodi:insensitive="true">
    <path
       style="fill:#15a136;stroke-width:1.25"
       d="m -8.3249,903.56026 c -15.584572,-32.2531 -13.498505,-74.11977 -22.79635,-109.97213 -24.11817,-141.93339 -48.192267,-283.99434 -69.53236,-426.38625 -17.00329,-56.67099 53.367821,-11.5551 82.231256,-19.16285 79.651249,9.04624 159.610264,-4.31346 239.472404,1.6002 52.40084,3.06616 105.00809,8.75632 156.9795,-0.42842 44.26025,-9.96555 89.83293,-17.84757 135.36262,-11.31044 43.29647,-8.14612 85.8831,9.31958 130.26546,-1.3533 49.35902,-0.56473 98.79083,1.54657 147.83571,5.23153 42.15427,-18.77149 77.02914,22.80524 83.84696,61.08204 21.86526,40.1839 -16.78852,79.83016 1.90186,122.5589 13.2887,37.20613 18.61808,76.67326 28.35644,114.682 14.17594,39.7742 20.3901,81.36049 20.84302,123.66321 6.82406,37.61453 -7.15993,71.6443 -12.09187,105.40413 -42.02543,5.92565 -84.5801,0.62376 -126.38034,8.73657 -54.77874,-1.85665 -109.7782,-15.83731 -164.28466,-2.198 -40.31164,-9.03877 -80.89051,-3.50006 -122.82145,-1.38252 -38.83734,4.92713 -77.01945,-12.17378 -114.64845,0.94383 -42.76316,6.06467 -84.68457,-7.04274 -127.21085,-4.30254 -21.21091,-2.51233 -40.69192,2.10441 -60.09469,10.37667 -53.47697,-1.56323 -108.689115,-5.13432 -159.98521,13.19436 -16.568276,-0.26772 -30.2409567,13.2815 -47.249,9.02301 z"
       id="path1480"
       inkscape:connector-curvature="0" />
    <path
       style="fill:#129235;stroke-width:1.25"
       d="M -6.1104,901.20354 C -20.653749,872.81852 -18.743026,833.25469 -26.655088,800.49392 -38.209806,742.89755 -45.196109,684.73165 -55.615232,626.95169 c -5.515779,-18.6052 -6.361699,-68.39344 1.818594,-21.47283 12.743109,35.46464 21.190579,75.43423 29.067331,113.63465 9.925258,60.45373 19.3169616,121.24756 28.1099836,181.7096 l -1.7114141,0.682 z m 64.6605,-17.81032 c -18.140118,-22.62215 33.207239,-12.79255 33.352675,-34.7603 15.148065,-19.78575 66.050715,-9.2944 47.946645,-41.14962 26.93976,-19.80121 33.3627,-95.92745 74.48351,-69.73374 -2.97355,10.59212 1.38656,27.95942 -9.18534,43.40179 3.61993,25.38623 -9.59471,55.4228 -27.67096,60.76533 30.48039,0.62282 29.66962,40.24846 7.3617,30.06119 -22.03634,13.45916 -49.52415,3.63731 -73.84809,7.77285 -17.592763,-0.75795 -34.95632,6.51712 -52.44014,3.6425 z m 133.01554,-19.56888 c 4.07223,-7.25853 -8.65608,2.26306 0,0 z M 774.8,876.46588 c -30.44951,-11.27558 55.54826,-7.1434 67.45341,-26.37099 30.98349,-5.53109 26.53066,-24.3525 -4.58809,-15.74236 10.89991,-13.86743 64.79439,-41.32041 36.78676,-49.33554 22.684,-8.34692 25.1511,-56.38917 -4.27792,-26.63411 -32.56613,26.39099 15.20249,-37.54132 14.77732,-51.60719 6.62164,-48.25031 -42.5559,41.58955 -65.7953,26.25274 26.50493,-24.65003 45.42451,-58.09772 55.96486,-92.60773 11.5349,-3.01524 8.41094,49.98882 18.39496,34.92621 -0.96943,-36.85619 -5.03748,-76.23577 -10.92527,-114.77212 13.19458,27.94485 15.75977,69.8799 26.85648,102.86379 18.43043,49.2211 14.55094,102.60529 17.79379,154.26674 -20.55767,20.39821 4.68376,63.85008 -40.8472,53.43904 -37.64102,-2.41278 -74.16726,4.34148 -111.5938,5.32152 z M 893.3,741.83032 c 4.49967,-14.58116 -12.51953,7.19123 0,0 z M 336.84437,873.70798 c -28.31898,-6.89247 -78.41168,-3.56279 -96.02527,-8.85936 35.133,-14.4343 70.19391,5.86692 105.52249,6.82065 14.57485,2.86581 -8.98515,3.74665 -9.49722,2.03871 z m 264.20565,-7.73066 c -23.5774,-2.78182 -78.77119,-70.35723 -24.67035,-40.33323 38.31134,15.40463 56.55785,-40.52442 91.76267,-7.11769 13.20866,17.26622 77.45036,15.31797 64.50194,31.63424 -42.18524,1.73593 -84.70136,2.79159 -124.09906,17.69106 z m -167.18749,-5.97485 c -6.05371,-13.35758 12.28585,4.57401 0,0 z m 307.18748,-28.78571 c -16.03437,-3.14971 -44.41044,-13.65749 -14.10313,-18.40613 16.84089,-23.83641 14.04505,-63.03277 -21.50068,-41.55322 -10.84741,-12.77745 9.22647,-30.91598 3.10381,-35.42709 10.7713,-13.0258 -37.98506,-22.07461 -39.3966,2.26338 -10.48247,-14.14767 -77.31816,-22.30714 -60.74342,-35.31927 16.81651,-5.88906 74.38822,1.6009 35.14002,-21.85099 15.94584,-27.0279 65.96431,-6.22674 70.7546,4.36198 4.8273,17.07978 39.8433,-7.9563 54.60762,13.79591 17.5394,-0.80179 4.2633,31.94331 22.32127,2.18685 6.82203,-17.55096 45.10475,-34.39229 23.30243,-2.50643 1.21354,13.4002 -13.86247,29.694 -19.64306,42.98066 3.86024,30.30497 63.72318,-13.2119 37.60541,31.83606 -14.40805,32.20039 -54.76877,61.97457 -91.44827,57.63829 z m -31.25,-106.63644 c -5.79397,-4.8533 -4.43617,4.34938 0,0 z m 8.5148,-0.92315 c -10.21581,-8.99495 -6.23512,7.60534 0,0 z M 1.8306,826.40983 c -7.338076,-37.48776 -0.2262654,-72.35237 12.0427,-105.83886 12.309293,-21.6541 45.517533,-6.48031 20.255787,13.2723 -11.892212,15.79265 6.210452,31.01905 -15.647662,45.17741 -4.671165,14.15463 -2.948102,43.25503 -16.650825,47.38915 z m 557.34442,-28.07951 c -22.13442,3.97221 -38.82833,-14.63756 -14.91337,-27.64529 24.87567,-6.35295 61.35691,5.6254 14.91337,27.64529 z m 71.875,-47.60114 c -14.1894,1.10608 -52.69878,-26.94889 -16.29376,-15.57546 5.77828,-0.65814 43.71974,18.76708 16.29376,15.57546 z M 841.675,743.33032 c 7.53797,-4.65181 5.51266,5.16502 0,0 z M 532.55374,709.34583 c -24.14948,-25.93384 24.24905,-4.96381 0,0 z m -199.6287,-8.54296 c -33.7963,0.48082 -37.60959,-65.88846 -2.62192,-31.25159 19.41427,5.02824 57.9433,39.19629 13.3156,33.3206 l -5.52322,-0.77728 z m 199.84022,-10.56312 c -4.15283,-30.17779 14.68393,6.36472 0,0 z m -314.91379,-2.61193 c -1.29279,-6.08086 18.74749,7.01397 0,0 z m -17.73891,-6.35936 c -22.06107,-13.0801 39.41041,-7.55676 8.11251,2.99122 z m 350.05208,-7.32344 c -2.64291,-26.8901 -27.17041,-46.9733 -26.45012,-70.77179 -22.14505,-2.60972 -55.56355,-15.99978 -14.04875,-26.04414 27.03744,-10.33509 62.73803,24.54251 78.84192,42.5303 -14.26381,21.33397 -37.8536,16.5629 -53.07945,-0.0791 8.44901,22.62066 33.30759,26.65969 23.08861,45.75525 2.57376,3.75146 -3.23347,15.03246 -8.35221,8.60945 z m 192.93705,-6.22999 c -0.74359,-21.10724 64.31098,-40.63973 59.62375,-36.85035 -13.08824,18.54176 -36.07326,40.10831 -59.62375,36.85035 z M 796.05,667.04619 c 22.15756,-29.4084 23.02793,-4.80508 0,0 z M 105.771,663.43342 C 73.185367,642.03458 38.916987,633.16407 4.7085875,615.2097 -11.183366,605.26711 -32.32437,568.67564 -1.0331,594.96601 c 16.642491,10.83551 15.455324,-38.36149 38.810408,-9.80781 26.120201,26.22367 60.20186,43.30564 86.506392,66.43822 52.99801,14.05975 -4.02576,12.85375 -18.5127,11.837 z m 190.33607,-8.43951 c -3.9402,-21.35983 17.70621,12.02528 0,0 z m 563.00081,-23.02218 c 0.97416,-27.54738 25.0964,-28.54992 6.52863,-2.07891 l -4.05704,3.23289 z m -638.68283,-3.76767 c -25.21988,-18.15042 -73.45852,-29.0396 -85.20364,-51.25869 33.93121,6.82464 84.18264,18.46471 93.72519,53.60722 l -2.4156,0.0789 z m 621.64646,-2.40992 c -6.89762,-16.92661 -32.25534,-34.63798 -45.49929,-53.20093 -22.81612,43.05166 -65.73922,23.70971 -91.53584,-2.75997 9.62652,-34.58827 38.50457,42.09985 38.16346,8.25488 -26.58908,-33.63401 -38.22415,-82.52465 -82.59281,-101.04245 -35.92441,-10.09366 -63.55082,-35.44882 -101.72888,-40.03681 -37.5275,-4.91272 -67.8648,-31.29915 -106.18883,-34.43914 -78.72417,-8.69251 -157.6205,-16.19607 -236.01946,-27.70875 -53.58596,-3.60102 -107.33389,5.07831 -160.77976,0.62929 29.118577,18.70841 72.25603,5.42067 106.68703,7.01697 59.43246,-2.53363 115.90619,20.33354 173.51402,31.46732 39.21235,4.55981 71.27746,25.94854 97.41682,54.39823 18.64157,18.33716 91.89925,59.05708 26.35626,59.27686 -42.42134,11.88065 -86.65175,7.0382 -126.67003,-9.88063 -37.23678,-8.45584 -77.19745,-4.12556 -112.25178,-22.56326 C 167.67238,469.85961 110.26341,454.23663 57.961373,426.90737 21.589542,402.41248 -16.05294,380.26281 -57.507825,365.3697 c -48.166265,-29.65935 -19.846073,56.8554 -23.005214,83.55825 3.999982,17.79111 12.616915,78.16547 1.059844,28.93886 -7.793693,-45.50183 -15.771496,-91.11404 -21.325085,-136.91845 21.785725,2.15849 102.1218523,12.03807 93.07838,13.6533 25.293774,14.96383 54.691124,19.27267 80.185534,5.13703 34.344416,-13.46897 72.123526,-9.95545 108.516116,-8.74467 25.15698,-2.89966 29.9222,3.36856 1.84545,3.58352 -19.08482,-0.0338 -74.90746,4.8896 -27.75192,4.20115 87.19704,-4.63911 174.3257,0.0258 261.72277,-0.10461 39.86157,-8.48624 -32.40734,-8.41923 -43.24052,-4.88512 -36.25005,1.28609 44.7185,-7.15041 59.1682,-13.27224 43.425,-2.2776 88.00682,-3.53906 129.29141,0.006 41.3726,6.89229 89.19531,-5.71781 127.10484,-0.85299 13.78009,7.52792 78.90649,-10.30115 67.00264,8.68798 -22.32529,5.54669 -45.00074,40.55092 -5.67314,23.14009 26.45896,-3.32347 83.93127,-10.36183 90.66517,16.71076 -8.62902,11.14257 42.8437,2.79845 9.05428,-8.32781 -30.8297,-33.59694 33.1965,0.37685 23.86478,24.51618 19.6141,24.86038 -3.92081,79.85307 -8.56753,89.82451 5.88579,-31.47588 -12.26506,-50.01219 -46.01117,-40.73013 23.95773,-21.64485 -42.33659,-7.26722 -45.17203,-4.05015 45.66032,7.4403 57.48922,51.9384 79.74468,85.19788 -2.74967,12.56107 -12.54089,32.5676 8.99433,22.35345 -22.147,22.22526 25.15742,43.32008 -7.43744,66.50805 -1.43455,5.92006 -10.45798,8.2958 -13.53504,2.29344 z M 629.46148,458.82511 c -4.60197,-1.41761 -2.29624,2.17703 0,0 z m 86.58853,-86.74479 c 13.52051,-25.43681 -18.70285,6.38686 0,0 z m -20,-23.125 c -4.79052,-6.72647 -4.79052,6.72647 0,0 z m -233.48145,-3.14414 c 40.0522,-5.82234 -38.24524,2.05657 -9.84743,0.47894 l 4.13538,-0.36352 z m 26.31776,-3.30078 c -8.3303,-2.28011 -1.50334,2.27175 0,0 z m 16.82517,0.0647 c -4.60186,-1.41777 -2.29639,2.17688 0,0 z m 111.73215,279.62042 c 6.62402,-11.35711 63.18977,-5.0471 20.61061,-0.71921 -6.81299,0.35271 -13.87569,3.11194 -20.61061,0.71921 z m -334.89359,-4.11521 c 2.19023,-16.01172 22.62517,6.64352 0,0 z m 219.12498,0.70947 c -22.7474,10.38498 -67.43003,-55.17958 -33.90786,-21.13776 9.42841,-11.81453 59.12038,25.22816 33.90786,21.13776 z M 240.42505,607.23812 c -29.20828,-24.14516 -55.7635,-46.51537 -87.49999,-67.28244 -18.92079,-12.81807 -67.506761,-39.95883 -62.519126,-53.23535 57.122826,13.70112 110.007796,40.49607 163.477496,64.13494 33.83339,7.87436 45.54617,42.83545 11.07033,57.29931 -8.63793,-2.84351 -16.43239,4.99262 -24.52871,-0.91646 z m 474.93264,-2.76672 c 0.0876,-9.11678 7.94575,4.50586 0,0 z M 60.1126,586.25247 c -5.903183,-8.07376 12.094844,3.96671 0,0 z m -123.8652,-4.17215 c 1.093916,-5.63426 1.093916,5.63426 0,0 z m 1.5144,-5.59969 c -1.815117,-7.90999 6.610117,4.91769 0,0 z m -3.3721,-6.53766 c -5.545096,-21.90217 6.264493,-33.20288 0.4104,-4.91559 2.313562,2.11442 0.659004,17.20347 -0.4104,4.91559 z M 878.613,550.94796 c -3.15478,-16.21081 8.42119,7.24819 0,0 z M 63.2376,546.13358 c -7.451588,-5.5486 8.870121,0.3908 0,0 z m -9.6875,-2.87704 c 3.600295,-2.38195 2.917092,4.29349 0,0 z m -121.0446,-4.30122 c -9.228779,-15.17728 -4.937435,-51.56803 -0.9165,-15 -0.139159,4.669 3.379853,10.34726 0.9165,15 z m 942.4478,0.71975 c -5.35638,-10.39445 6.50351,1.44712 0,0 z M 90.7465,526.14282 c -43.00387,-28.20772 25.45357,4.43349 0,0 z m 475.67857,-3.63811 c 8.3946,-15.68858 34.49154,-1.07519 4.68831,1.46564 l -3.06763,-0.31513 z m 305.52326,-3.69272 c -4.91829,-16.12021 6.56328,-12.10513 0,0 z M 476.07338,479.60561 c -13.42489,-6.39433 -54.97024,-28.80453 -16.18696,-21.20205 18.80074,17.58759 37.96862,2.21024 35.08265,-11.90861 17.22261,-18.31898 38.79976,8.21915 12.33096,16.96644 -3.75031,11.23249 -19.38223,30.59403 -31.22665,16.14422 z"
       id="path1478"
       inkscape:connector-curvature="0" />
    <path
       style="fill:#0d732d;stroke-width:1.25"
       d="m -9.6032,896.58768 c -2.743987,-27.64292 15.0752237,8.18834 0,0 z m 84.7908,-16.55036 c -33.094555,-8.47181 22.347739,-12.4606 26.6551,-26.57468 29.67265,-24.31728 59.09377,7.99579 85.53953,-2.58835 0.30929,34.96313 -53.8958,27.74339 -81.55287,28.11164 -9.885488,-0.72079 -21.576979,4.72571 -30.64176,1.05139 z M 781.05,876.19154 c -5.28064,-9.22266 50.04476,-9.70572 63.25414,-24.85623 26.67908,-1.89019 46.9832,-24.4848 34.77286,-46.1294 20.79826,-25.90838 20.45785,-63.58728 30.723,-92.8964 26.46019,-6.90875 8.33916,57.9563 2.80116,49.49879 23.50938,1.59934 16.97642,55.29508 3.10684,70.89702 12.71706,39.21862 -25.84573,42.46609 -57.3681,37.54469 -26.08531,-2.27548 -51.27659,6.87837 -77.2899,5.94153 z m 131.8035,-149.2347 c 14.75059,-14.18374 -17.7691,7.8491 0,0 z M 769.175,873.33032 c 5.22237,-4.32442 1.25222,4.40107 0,0 z m -517.73699,-8.36648 c 20.60455,-9.06803 55.77525,1.86549 13.47721,0.23328 -4.42886,-0.2783 -9.1513,1.49234 -13.47721,-0.23328 z m 358.36201,-6.86343 c -16.38384,-10.93367 -31.18757,-4.25991 -17.68846,-25.27117 -2.38994,30.93036 48.88254,-41.38833 36.60807,-5.14861 6.1457,28.65798 16.14165,-16.55673 33.19298,3.61811 39.46285,2.15922 -0.8668,18.01393 -16.07752,12.79504 -3.69996,13.19459 -24.30716,22.19595 -36.03507,14.00663 z m 76.13622,-16.78218 c 5.78878,-10.9328 34.25075,6.22839 3.09087,1.42305 z m 82.73697,-29.00767 c -11.85387,-30.29069 78.50713,-34.25461 30.34672,-9.28117 -8.85121,1.84085 -21.3146,16.27976 -30.34672,9.28117 z m 16.78852,-35.17082 c 14.72558,-14.59611 60.06861,-6.11367 20.45709,1.0331 -6.80308,-0.007 -13.79146,0.73452 -20.45709,-1.0331 z M 904.8,708.33032 c 2.8764,-4.33633 4.55649,4.81025 0,0 z m -6.5625,-3.21466 c -4.60528,-24.84383 13.81283,-41.08861 12.08587,-19.68496 0.95136,14.9937 17.45168,25.90118 -8.80867,15.00906 l -1.9543,3.11492 -1.323,1.56098 z m 7.8125,-39.28534 c 2.23346,-7.13686 2.14431,6.86075 0,0 z m -6.5426,-15.7093 c -5.50098,-35.88907 11.85503,-11.49405 0,0 z m -345.04649,-24.7396 c -17.76901,-17.1084 -40.13345,-31.78893 -63.19121,-36.55649 31.80413,-16.04098 64.92875,17.04241 92.90532,29.7621 -9.14767,5.34624 -18.92382,13.63701 -29.71411,6.79439 z M 67.9251,622.08032 c 1.552255,-4.92802 4.485412,4.75895 0,0 z m 680.99894,-25.13253 c -2.98119,-8.08095 10.21607,-25.32474 -5.30573,-38.37384 1.67168,-29.99169 -10.46441,-57.40295 -15.05605,-86.01762 8.44522,-12.23398 20.75275,-78.8198 -7.29067,-56.77414 -16.71695,12.13012 -62.51578,1.70616 -56.20136,32.23196 20.33481,-4.77579 52.99567,7.62259 17.28329,19.11273 18.58687,14.50631 44.82845,25.33026 38.53312,49.95341 -27.84957,-15.381 -37.3161,-52.48764 -66.86879,-62.19913 -32.90071,7.74299 -56.17759,-26.89264 -85.26949,-25.17328 -42.24697,5.67562 -76.16154,-28.79164 -118.11674,-30.47526 -41.05847,-0.60688 -76.27635,-20.40872 -116.87411,-20.37779 -73.73158,-6.95508 -148.011,-15.19993 -221.92231,-5.44703 -19.295736,4.69935 -87.657976,-3.46128 -34.887094,-11.62143 25.941304,-8.26492 52.525374,-11.79055 79.726904,-10.85738 -16.77189,2.01323 -82.266436,16.25413 -40.05446,13.61786 41.99073,-4.92398 84.28094,-2.71736 126.30445,-4.74536 66.37155,-1.3874 133.35535,6.43002 199.51951,-0.37823 39.63041,-10.96259 81.41355,-4.5583 121.30857,-12.76777 39.25677,9.05846 87.88179,-4.29432 118.04709,27.51835 21.80926,17.32174 13.77296,1.45428 0.49979,-8.43513 16.96079,-21.74688 48.68861,-33.53013 71.10175,-20.65471 -16.23062,18.47113 -29.40628,16.66012 -48.7306,16.23809 -22.32744,20.75665 38.25159,20.88598 53.04087,11.35733 28.15253,-11.39764 69.8284,11.62951 75.91982,20.48874 -19.54167,40.77154 34.07459,-14.12488 38.04798,8.21161 15.22108,17.7516 13.22369,62.80929 -6.47128,64.44721 2.38747,-31.86827 -57.14485,1.92328 -33.47537,-32.29985 -14.85902,4.11862 -93.93336,6.55015 -46.99502,24.68167 31.256,1.07278 25.03874,31.29779 9.64448,42.62126 -13.90148,-14.55246 -24.40534,-32.22946 -18.03751,-0.94297 -4.03909,33.8635 31.59187,100.99504 -27.42109,97.06067 z m -290.416,-87.95596 C 439.675,500.1879 417.2875,478.30545 408.85322,465.20376 c 22.29985,9.98537 42.51881,27.36072 62.62082,43.94285 l -3.8983,1.42559 z M 246.05005,499.54882 C 186.54953,482.26896 132.03409,451.10202 74.359033,428.74485 57.736092,423.40909 -7.0214581,383.00827 44.9292,405.92228 c 18.59452,-16.75774 63.64153,31.25989 94.5001,38.02036 37.7641,14.40521 80.59527,19.94117 114.22299,41.88768 1.74092,4.45673 11.21748,21.11153 -7.60224,13.7185 z m 80.31249,-8.35066 c -18.63964,-5.07589 -28.26052,-15.0302 -48.84795,-19.61759 -4.99186,-20.15105 -49.96728,-6.28144 -67.15531,-28.25998 -32.37371,-17.93929 -79.7264,-9.98208 -105.06313,-35.70654 -24.769933,-7.92751 -85.841083,-19.74544 -89.21325,-31.29244 39.836984,3.16458 78.073118,16.37369 118.81775,11.15236 45.84882,-3.56315 91.26268,2.89729 135.08557,16.41887 39.9673,12.15054 86.07993,12.02104 121.14396,35.80347 29.52898,27.93804 -34.79333,-8.07411 -16.00482,28.2909 17.97596,24.45369 -39.56792,4.07344 -48.76282,23.21095 z M 124.1751,413.33032 c -11.47657,-3.6299 -4.81448,1.70874 0,0 z m 587.49846,49.99766 c 8.73125,-9.03989 16.98193,6.17229 0,0 z m -309.37352,-4.47682 c 4.21984,-5.57251 4.43417,6.65729 0,0 z M -18.9499,374.91657 c -27.432454,1.60473 -50.957229,-33.23874 -75.322994,-18.1255 -13.799476,-40.56994 50.858377,17.67658 74.384757,14.86896 5.771328,0.36508 16.8689969,9.88477 0.938237,3.25654 z m 738.33597,0.0831 c -1.69706,-9.97452 11.87922,-4.90374 0,0 z M 668.86251,359.8172 c 9.41837,-16.81691 -27.89783,-13.59058 -33.78625,-21.02992 15.88163,-6.05483 84.90214,17.91897 33.78625,21.02992 z"
       id="path1476"
       inkscape:connector-curvature="0" />
  </g>
  <g
     inkscape:groupmode="layer"
     id="layer3"
     inkscape:label="faccia"
     style="display:inline">
    <path
       style="display:inline;fill:#000000;stroke-width:0.85769993"
       d="m 420.41828,597.81507 c -3.54716,-0.62339 -7.88031,0.52253 -10.12155,-3.04058 -10.48768,-10.55854 -24.31313,-19.37548 -28.5337,-34.45447 -5.21648,-15.07599 -5.29513,-31.39731 -8.86491,-46.78536 -1.24888,-13.51068 -0.38066,-27.10892 -0.99881,-40.60893 -4.53874,-8.8299 -10.69271,-17.02603 -7.30046,-27.74192 0.78686,-11.58776 1.43056,-23.63269 8.00138,-33.67151 5.08854,-10.47989 11.26798,-21.26484 22.19766,-26.51831 15.88881,-10.17751 33.30106,-19.2176 52.1972,-21.82802 13.61222,1.41119 25.69022,8.85329 37.05743,15.99795 9.06244,8.43151 19.18859,16.3627 25.70082,27.04673 -6.81598,3.67891 -20.10218,-5.56479 -29.28921,-5.85603 -29.93981,-5.86089 -63.61384,-5.43528 -89.59127,12.54988 -10.80367,6.71421 -19.75767,16.90986 -22.16043,29.71236 -2.83599,5.64109 -4.21917,23.61893 5.41783,13.78042 10.69058,-9.35795 21.40057,-19.72374 35.66706,-23.13787 22.45477,-8.32149 48.06131,-7.28674 69.58247,3.30662 10.26346,3.96188 18.45319,11.57142 24.22079,20.83461 2.34184,4.93575 11.50451,11.33099 12.40306,10.99028 -6.14692,9.12192 -11.27743,19.77278 -12.74388,30.77432 -3.66479,14.51531 -0.11552,29.9001 -4.79019,44.30089 -0.16578,10.23875 -6.78824,17.3214 -14.27759,23.38002 -9.9843,9.22335 -19.4178,19.29822 -30.56593,27.09619 -10.37625,4.40396 -22.12274,4.63339 -33.20777,3.87273 z m 5.70364,-19.40636 c 5.00421,-9.93523 14.30994,-9.27491 20.301,-0.82874 6.54682,4.25324 13.38127,-0.71429 19.32927,-3.57162 -2.24568,-7.07179 2.85019,-12.45407 0.9401,-19.57535 0.7809,-7.68763 -15.82385,-11.67369 -6.64403,-17.47386 -0.36925,-10.8477 -17.47455,-4.37987 -24.64873,-3.22107 -8.71171,0.77153 -16.78891,4.03686 -24.37699,8.19018 -1.21278,7.39261 14.73515,-0.89158 20.39468,0.4676 12.49372,1.03185 -7.25423,2.14187 -10.54293,4.34356 -9.87698,2.36151 -23.55289,10.36886 -15.9329,22.76359 6.01812,6.79881 10.09823,16.05858 21.18053,8.90571 z m 5.98615,-15.65827 c -13.77318,-8.43079 19.38809,-10.00251 7.66362,-2.59005 -2.98046,1.04805 -4.05039,4.71408 -7.66362,2.59005 z m 11.99041,-21.54258 c 4.81474,-4.63605 3.61867,3.30815 0,0 z m -45.2371,25.24964 c -3.93372,-7.76901 1.49943,-13.38784 1.44067,-21.91638 1.5412,-9.68389 12.58966,-12.89596 18.85867,-18.92717 -2.89234,-4.4474 3.62546,-13.35717 7.62402,-8.12657 8.42423,5.11285 -6.79875,3.84292 -4.95503,5.3078 3.78375,2.16531 7.5675,4.33061 11.35125,6.49592 4.31854,-6.84975 14.03451,-6.7939 20.11374,-2.86174 4.71406,0.67596 9.30192,4.72515 11.50766,0.63444 9.75369,6.57601 5.3735,22.2946 5.45154,32.59576 -3.85934,13.79431 10.01579,2.0099 15.15043,-1.09593 9.217,-8.21841 10.87468,-21.90402 10.54059,-33.61091 -0.29405,-12.42241 5.58551,-24.38552 3.27649,-36.81061 1.59825,-10.3938 -3.31456,-18.79475 -7.19119,-27.79323 -2.91018,-9.4982 -10.141,-17.16096 -19.29531,-20.78136 -9.08789,-5.39126 -19.58173,-6.88364 -30.03608,-6.88943 -13.61928,-0.51617 -27.5095,1.53541 -40.11187,6.71518 -9.89949,4.90428 -16.28974,13.56709 -23.94049,21.12962 -3.7586,11.27583 -1.90977,23.59111 -2.55841,35.31064 -0.74185,12.85397 2.668,25.2992 4.76603,37.83704 1.83889,10.00934 0.54844,20.85101 8.20414,28.69143 2.11104,1.98437 11.75252,15.01909 9.80315,4.0955 z m 62.35281,-47.12742 c -4.73246,-3.35705 -11.57567,-6.5089 -7.99811,-13.0651 4.36672,3.88905 6.12609,8.33752 11.58615,9.21901 1.97081,4.10451 0.47549,6.70206 -3.58804,3.84609 z m -22.17052,-2.09644 c -2.38929,-5.81885 14.36893,1.14851 3.27019,0.77366 l -1.26361,-0.12823 -2.00651,-0.64543 z m -21.73234,-25.82028 c 2.04705,-4.61342 -6.25727,0.0616 -6.5365,-5.43542 -3.63391,4.6772 -18.27343,9.39921 -21.92906,4.1589 5.56094,-8.78342 19.46991,-9.78677 29.23893,-9.28673 1.47581,-2.73363 5.22459,-7.82306 7.66089,-1.02157 3.55987,4.27526 -8.49337,22.39265 -8.43426,11.58482 z m -17.74432,-2.96937 c -3.68285,-4.60006 -0.66067,4.21675 0,0 z m 44.35175,-2.75664 c -7.19931,-5.31847 -1.34941,-10.96457 5.33535,-10.43183 8.44196,-6.71177 17.07775,-4.59113 25.94709,-0.30305 3.92231,8.00314 -7.44989,-3.43351 -6.75272,4.27337 -5.27138,3.66009 -14.03384,2.10878 -16.50669,7.76713 -4.14583,-4.23371 2.93597,6.76083 -4.7212,1.45752 l -1.65425,-1.21004 z m 14.61513,-7.9646 c -2.10734,-3.82723 -4.44253,4.08901 0,0 z M 383.9022,474.7744 c 5.6576,-10.89672 22.58717,-16.79361 32.33169,-8.1552 0.0113,9.62853 -14.56971,-0.89438 -20.41932,4.31666 -2.051,-0.55708 -15.40189,11.92252 -11.91237,3.83854 z m 61.45672,-12.72822 c 0.16005,-8.26261 15.37587,-9.69744 22.74956,-10.62689 3.66339,-2.21978 18.68957,6.15471 11.63728,5.78567 -7.52312,-0.93366 -15.01789,-0.0326 -22.08613,2.69888 -5.89825,3.11689 -9.65949,-4.08207 -12.30071,2.14234 z m 20.67984,70.95429 c -2.37514,-3.77538 -2.71051,1.9905 0,0 z m 41.53755,-52.01897 c 3.45256,-9.17099 -6.36162,-3.18734 -2.09608,2.01642 l 0.93279,-0.5104 1.16329,-1.50601 z m -0.7968,-9.69149 c -2.88665,-4.32067 -2.52672,4.17415 0,0 z m 12.32944,-6.23217 c 4.772,-3.66681 11.57091,-11.98199 12.39041,-15.17202 -1.72292,6.72847 -7.40085,10.89481 -12.39041,15.17202 z m 14.89488,-26.21293 c 0.0248,-4.28113 4.12425,-8.366 1.16695,-1.52894 -1.07399,3.72422 -3.11429,11.6314 -1.4519,3.13448 z m -1.31921,-14.23825 c -3.77677,-9.76472 4.98514,7.36504 0,0 z m -58.02833,-1.37402 c -7.55666,-0.30974 -8.28223,-5.5713 -0.13128,-3.53712 5.85924,0.39861 12.55546,6.41727 2.22105,3.78709 z m 47.60564,-9.43107 c -5.99461,-2.83013 -5.76759,-3.36249 0.277,-0.63373 4.0158,2.08781 11.26139,9.40848 3.38539,3.15705 -1.18569,-0.88793 -2.35215,-1.81973 -3.66239,-2.52332 z m -50.71321,3.99718 c -9.84489,-0.45011 1.09642,-3.5653 4.39906,-2.09026 13.82435,-4.95823 1.03668,6.88473 -4.39906,2.09026 z"
       id="path3355"
       inkscape:connector-curvature="0" />
    <flowRoot
       xml:space="preserve"
       id="flowRoot826"
       style="font-style:normal;font-variant:normal;font-weight:normal;font-stretch:normal;font-size:40px;line-height:25px;font-family:Sen;-inkscape-font-specification:Sen;letter-spacing:0px;word-spacing:0px;fill:#000000;fill-opacity:1;stroke:none"
       transform="matrix(5.6111217,0,0,5.6111217,6636.0077,-3220.538)"><flowRegion
         id="flowRegion828"><rect
           id="rect830"
           width="775.79712"
           height="246.47722"
           x="-1147.5333"
           y="706.33685" /></flowRegion><flowPara
         id="flowPara832"
         style="font-style:normal;font-variant:normal;font-weight:normal;font-stretch:normal;font-family:WantedPirates;-inkscape-font-specification:WantedPirates">Green Warrior</flowPara></flowRoot>    <flowRoot
       xml:space="preserve"
       id="flowRoot1381"
       style="line-height:1.25;letter-spacing:0px;word-spacing:0px;opacity:1;vector-effect:none;fill:#000000;fill-opacity:1;stroke:none;stroke-width:1;stroke-linecap:butt;stroke-linejoin:miter;stroke-miterlimit:4;stroke-dasharray:none;stroke-dashoffset:0;stroke-opacity:1"
       transform="scale(0.9375)"><flowRegion
         id="flowRegion1383"><rect
           id="rect1385"
           width="1590"
           height="892.85712"
           x="-330"
           y="211.09113" /></flowRegion><flowPara
         id="flowPara1387"></flowPara></flowRoot>  </g>
  <g
     inkscape:label="ossa"
     id="g1548"
     inkscape:groupmode="layer"
     style="display:inline"
     sodipodi:insensitive="true">
    <path
       style="display:inline;fill:#000000;stroke-width:0.85769993"
       d="m 268.76778,767.58693 c -18.07079,-2.0235 -15.10999,-17.87621 -12.45704,-30.88213 7.00242,4.51591 -0.4521,28.09642 16.91607,27.73615 23.43648,5.65256 20.32975,-22.34905 30.49306,-32.83731 8.88541,-4.25113 32.62766,-20.2834 33.25782,-17.89961 -13.86941,9.89047 -34.48486,17.43345 -35.89539,37.06549 -1.81099,16.74263 -18.68324,19.01278 -32.31452,16.81741 z m -2.94836,-10.78895 c -9.52167,-14.01197 24.43066,-37.82735 -3.13872,-38.09264 -8.54505,1.16651 -5.15866,13.82463 -14.09239,3.21809 -6.93023,-2.4376 -12.27388,-21.55828 -13.66164,-5.15042 -0.7601,8.49838 18.21546,21.67735 0.83393,13.19254 -12.03173,-12.6822 -4.92677,-40.80668 16.52691,-33.20635 16.95036,4.7615 34.90959,4.77839 51.61772,-1.08423 15.89599,-5.08436 31.53108,-10.821 46.11427,-19.11191 25.81683,-10.46027 50.45371,-23.53582 74.06972,-38.20292 16.4817,-9.82744 32.80176,-19.86222 49.34175,-29.67763 22.83746,-15.27264 44.26477,-32.85174 67.95733,-46.62098 14.98947,-10.28069 30.1332,-23.10264 34.23969,-41.70775 9.6425,-11.25967 26.75305,-32.63361 42.06749,-17.40601 11.87416,11.21532 4.43075,32.01737 20.48075,39.35905 6.93222,22.52881 -20.33297,26.82351 -36.48013,23.56225 -7.54798,0.67323 -19.31782,-1.47664 -5.45803,-3.80212 10.02846,1.66216 38.71364,1.6792 35.00949,-7.61291 -9.08537,2.91698 -29.41419,-0.97703 -14.15249,-10.95544 10.05689,-16.27955 -24.93936,3.53705 -18.11282,-16.76272 4.69673,-12.63277 -15.21538,-18.26894 -9.63015,-3.02024 -0.26629,17.32682 -20.09524,22.2361 -25.84041,36.632 -15.26305,11.88073 -33.5423,19.31326 -49.05075,31.1715 -14.17891,7.93395 -26.9413,18.73075 -41.62231,26.25742 -6.60197,6.19579 -24.09768,9.58661 -24.67586,16.69276 8.35575,-5.03679 15.85889,-3.93269 3.40229,1.98859 -16.11121,4.50334 -26.62612,17.48223 -40.811,25.48978 -15.54697,6.07067 -29.70587,14.61791 -44.20301,22.80406 -12.28395,9.98461 -30.44136,9.97768 -40.73625,22.01103 -15.28405,8.44762 -32.17626,16.96762 -45.37882,29.30084 3.05474,11.72929 -0.29755,27.81574 -14.61656,20.73436 z m 17.42204,-47.55891 c 5.35955,-3.42919 30.8857,-5.83379 22.44608,-11.22536 -14.61361,9.90884 -37.8155,2.91498 -49.83292,6.88356 8.5243,3.38872 18.15981,7.16936 27.38684,4.3418 z M 566.53863,554.62733 c 2.63697,-7.40745 -9.60704,7.43122 0,0 z m 18.83793,200.83326 c -15.98467,-5.4725 -24.31732,-19.6003 -28.66493,-34.13191 9.09689,0.4684 -11.92293,-18.41207 3.04555,-9.14208 2.22727,10.85587 7.48081,14.55613 17.85102,16.00724 12.32212,4.98478 4.09363,14.17926 -3.53976,4.69464 -15.07827,-13.00768 1.36261,20.03658 12.00144,16.95054 7.57774,4.51233 18.95215,-22.22367 11.25027,-5.12698 -1.67839,5.95487 -2.78472,17.56567 -11.94359,10.74855 z m 8.24506,-17.81803 c 2.04623,-11.21417 35.6117,-14.56247 13.42088,-4.68259 -4.31708,5.197 -7.76826,2.94518 -13.42088,4.68259 z m 32.5734,-14.19859 c 5.66238,-5.82047 18.53257,-8.01787 5.49802,-0.18997 0.43399,-2.49061 -6.11249,3.23826 -5.49802,0.18997 z m -72.77808,-4.4931 c 0.28284,-3.93187 3.21821,3.61172 0,0 z m 55.36995,-2.69885 c -6.79022,-4.69245 -9.53029,4.38092 -10.82968,-8.47469 -5.73066,-6.52848 12.19858,-6.79861 -2.69889,-7.75065 -14.49692,0.3606 7.88707,23.26377 -12.25058,16.04279 -16.22788,-7.91132 -30.21671,-19.39476 -49.17719,-20.26872 -15.59161,3.46859 24.69298,7.80994 16.73208,18.31428 -4.85839,0.77511 -21.66132,-12.78608 -29.48431,-18.77508 -14.12418,-12.13563 -33.10295,-17.38206 -46.5053,-30.25572 -1.92704,-6.79615 -14.89823,-20.18595 0.54988,-11.43508 10.89004,7.74695 39.03131,15.62558 39.38662,24.00779 2.88574,7.69358 10.66448,6.60833 13.11822,2.96412 17.3274,4.31856 32.14375,18.70293 50.81936,18.48158 -4.61742,-5.73286 -24.05381,-9.77198 -6.4891,-6.37908 16.02049,7.19657 33.63456,5.30976 50.58035,3.98844 12.02044,-5.48197 26.38211,26.76942 13.23674,8.51252 -1.79499,6.67051 -6.1309,14.59229 -16.64488,11.89702 -3.51469,1.79318 -7.3483,2.80733 -10.34332,-0.86952 z m -253.177,-16.60625 c 13.29223,-9.95237 28.79007,-16.92731 43.51245,-24.38196 -15.14873,10.30299 -31.38652,19.47814 -47.17589,28.48814 0.73507,-1.74756 2.38729,-2.80997 3.66344,-4.10618 z m 54.0887,-69.59976 c -15.35978,-4.08035 -28.06857,-13.62711 -42.82848,-19.67587 -11.74045,-10.51255 -28.40125,-15.91955 -37.29231,-29.18733 -8.95199,-12.2066 -21.32159,-22.34391 -31.51237,-33.70359 -9.46722,-7.22039 -22.00151,-13.4543 -19.25793,2.17001 1.2583,5.82851 13.98801,22.94976 2.19728,10.70991 -7.25082,-6.75589 -33.83226,-24.53585 -18.08513,-29.66056 -1.89688,9.33863 19.25198,12.9358 7.99238,6.51441 -2.59634,-5.83851 -11.14844,-27.39219 -14.24054,-10.08351 -0.28381,11.60079 -18.50738,8.81015 -3.91402,17.78928 6.67159,6.27696 9.46964,17.43082 12.36885,22.71076 13.54415,-4.60054 35.47668,16.46637 38.96832,18.06968 -16.18499,-8.27639 -33.72463,-13.04056 -51.83453,-14.54762 -17.49907,-0.87636 -28.95613,-30.56438 -9.49006,-37.80274 15.7138,-7.6561 8.75981,-39.41674 31.45959,-34.49968 17.92193,-4.75401 27.53121,24.31265 20.46071,29.67555 -0.0648,-9.02589 -9.08108,-14.51856 -5.3117,-1.64757 -1.1929,20.18671 22.33599,24.21587 34.07111,35.14636 21.81283,19.6846 46.08522,36.17242 71.73746,50.40797 5.15811,3.82723 43.73035,19.73414 14.51137,17.61454 z M 259.35941,566.11099 c -2.21726,-7.02712 -14.69287,-15.94926 -19.57935,-18.12755 -5.79777,7.50209 12.6214,20.23747 19.57935,18.12755 z m 217.44271,61.12111 c 13.87838,-9.83637 27.58252,-19.82229 42.90638,-27.65953 15.3479,-6.59908 27.70153,-18.53795 43.63601,-23.65378 6.74222,-4.64747 24.56149,-9.35081 7.64963,-1.79828 -30.09898,14.41598 -58.39865,32.06047 -86.68715,49.6477 -2.05278,0.61625 -5.50757,3.9612 -7.50487,3.46389 z M 328.2707,589.52841 c -12.94857,-8.44592 -28.73315,-17.10412 -37.49161,-29.25204 13.11499,7.81436 -12.94375,-23.5527 3.49468,-9.92622 10.65121,12.0041 20.93685,23.59797 32.82595,34.80048 1.09411,1.55731 8.45711,7.33247 1.17098,4.37778 z m -26.00014,-44.59968 c -7.30087,-5.49167 -5.8465,-13.48057 0.6386,-3.25939 5.03852,5.55072 10.97443,14.84917 -0.6386,3.25939 z"
       id="path1530"
       inkscape:connector-curvature="0" />
    <flowRoot
       transform="matrix(5.6111217,0,0,5.6111217,6636.0077,-3220.538)"
       style="font-style:normal;font-variant:normal;font-weight:normal;font-stretch:normal;font-size:40px;line-height:25px;font-family:Sen;-inkscape-font-specification:Sen;letter-spacing:0px;word-spacing:0px;fill:#000000;fill-opacity:1;stroke:none"
       id="flowRoot1538"
       xml:space="preserve"><flowRegion
         id="flowRegion1534"><rect
           y="706.33685"
           x="-1147.5333"
           height="246.47722"
           width="775.79712"
           id="rect1532" /></flowRegion><flowPara
         style="font-style:normal;font-variant:normal;font-weight:normal;font-stretch:normal;font-family:WantedPirates;-inkscape-font-specification:WantedPirates"
         id="flowPara1536">Green Warrior</flowPara></flowRoot>    <flowRoot
       transform="scale(0.9375)"
       style="line-height:1.25;letter-spacing:0px;word-spacing:0px;opacity:1;vector-effect:none;fill:#000000;fill-opacity:1;stroke:none;stroke-width:1;stroke-linecap:butt;stroke-linejoin:miter;stroke-miterlimit:4;stroke-dasharray:none;stroke-dashoffset:0;stroke-opacity:1"
       id="flowRoot1546"
       xml:space="preserve"><flowRegion
         id="flowRegion1542"><rect
           y="211.09113"
           x="-330"
           height="892.85712"
           width="1590"
           id="rect1540" /></flowRegion><flowPara
         id="flowPara1544"></flowPara></flowRoot>  </g>
</svg>
