<svg xmlns="http://www.w3.org/2000/svg" width="928.141" height="511.852" viewBox="0 0 870.132 479.861"><g style="display:inline"><path d="M80.087 1051.663c-13.146-27.206-11.386-62.521-19.23-92.763-20.343-119.724-40.65-239.555-58.65-359.665-14.343-47.803 45.016-9.747 69.363-16.164 67.187 7.63 134.634-3.639 201.999 1.35 44.201 2.586 88.576 7.386 132.415-.362 37.334-8.406 75.776-15.054 114.18-9.54 36.522-6.872 72.445 7.861 109.882-1.142 41.635-.476 83.332 1.305 124.702 4.413 35.558-15.834 64.976 19.237 70.727 51.524 18.443 33.896-14.162 67.338 1.604 103.38 11.21 31.385 15.705 64.676 23.919 96.737 11.958 33.55 17.2 68.629 17.581 104.312 5.757 31.729-6.04 60.433-10.2 88.91-35.448 4.999-71.344.526-106.603 7.37-46.207-1.566-92.6-13.36-138.577-1.854-34.004-7.625-68.233-2.953-103.603-1.167-32.76 4.156-64.967-10.268-96.708.797-36.071 5.115-71.433-5.941-107.304-3.63-17.892-2.119-34.325 1.775-50.691 8.753-45.109-1.318-91.681-4.33-134.95 11.13-13.976-.226-25.51 11.203-39.856 7.611z" style="fill:#15a136;stroke-width:1.05439746" transform="translate(0 -572.5)"/><path d="M81.955 1049.675c-12.268-23.943-10.656-57.316-17.33-84.95-9.746-48.584-15.64-97.648-24.428-146.386-4.653-15.694-5.366-57.691 1.534-18.113 10.749 29.915 17.874 63.63 24.519 95.853a8486.302 8486.302 0 0 1 23.71 153.275l-1.443.575zm54.542-15.023c-15.301-19.083 28.011-10.791 28.134-29.321 12.778-16.69 55.715-7.84 40.444-34.71 22.724-16.703 28.142-80.917 62.828-58.822-2.508 8.934 1.17 23.584-7.748 36.61 3.053 21.414-8.093 46.75-23.341 51.257 25.71.525 25.027 33.95 6.21 25.357-18.588 11.353-41.775 3.068-62.292 6.556-14.84-.64-29.487 5.497-44.235 3.073zm112.201-16.507c3.435-6.123-7.301 1.909 0 0zm491.969 10.663c-25.685-9.51 46.856-6.025 56.898-22.244 26.135-4.666 22.38-20.542-3.87-13.279 9.194-11.697 54.655-34.854 31.03-41.615 19.135-7.041 21.216-47.566-3.608-22.467-27.47 22.262 12.823-31.666 12.465-43.531 5.585-40.7-35.897 35.081-55.5 22.144C800.44 887.024 816.4 858.81 825.29 829.7c9.73-2.543 7.094 42.167 15.516 29.461-.818-31.089-4.25-64.306-9.216-96.812 11.13 23.572 13.294 58.945 22.654 86.767 15.547 41.519 12.274 86.55 15.01 130.127-17.341 17.206 3.95 53.858-34.456 45.077-31.75-2.036-62.561 3.662-94.131 4.488zm99.957-113.567c3.795-12.3-10.56 6.066 0 0zm-469.38 111.241c-23.888-5.814-66.142-3.005-81-7.473 29.636-12.176 59.21 4.949 89.01 5.753 12.295 2.418-7.579 3.16-8.01 1.72zm222.862-6.52c-19.888-2.347-66.445-59.348-20.81-34.023 32.316 12.994 47.707-34.183 77.403-6.004 11.142 14.565 65.331 12.921 54.409 26.684-35.584 1.465-71.447 2.355-104.68 14.923zm-141.026-5.04c-5.106-11.268 10.363 3.857 0 0zm259.118-24.282c-13.525-2.657-37.46-11.52-11.896-15.526 14.206-20.106 11.847-53.17-18.136-35.05-9.15-10.779 7.783-26.079 2.618-29.884 9.086-10.988-32.041-18.62-33.232 1.91-8.842-11.935-65.22-18.817-51.238-29.793 14.185-4.968 62.748 1.35 29.641-18.432 13.45-22.799 55.642-5.252 59.683 3.68 4.072 14.406 33.609-6.712 46.063 11.636 14.794-.676 3.596 26.945 18.828 1.845 5.754-14.804 38.047-29.01 19.656-2.114 1.024 11.303-11.693 25.047-16.57 36.255 3.257 25.563 53.752-11.145 31.722 26.854-12.154 27.162-46.199 52.277-77.139 48.619zm-26.36-89.95c-4.887-4.094-3.742 3.67 0 0zm7.183-.778c-8.617-7.588-5.26 6.415 0 0zM88.653 986.585c-6.19-31.621-.19-61.03 10.159-89.277 10.383-18.265 38.395-5.466 17.086 11.196-10.032 13.321 5.238 26.165-13.2 38.108-3.94 11.94-2.486 36.486-14.045 39.973zm470.13-23.685c-18.67 3.35-32.752-12.347-12.58-23.32 20.984-5.358 51.756 4.746 12.58 23.32zm60.628-40.153c-11.969.933-44.452-22.732-13.744-13.138 4.874-.555 36.879 15.83 13.744 13.138zm177.666-6.24c6.359-3.925 4.65 4.356 0 0zm-260.75-28.667c-20.37-21.876 20.455-4.187 0 0zm-168.39-7.206c-28.507.405-31.724-55.579-2.211-26.362 16.376 4.242 48.876 33.063 11.232 28.107l-4.66-.656zm168.57-8.91c-3.504-25.456 12.385 5.368 0 0zM270.87 869.52c-1.09-5.13 15.814 5.917 0 0zm-14.963-5.364c-18.61-11.033 33.243-6.374 6.843 2.523zm295.275-6.178c-2.23-22.682-22.919-39.622-22.311-59.697-18.68-2.201-46.869-13.496-11.85-21.968 22.806-8.718 52.92 20.702 66.504 35.875-12.032 17.995-31.93 13.97-44.773-.067 7.126 19.08 28.095 22.488 19.475 38.595 2.171 3.165-2.727 12.68-7.045 7.262zm162.746-5.255c-.627-17.804 54.247-34.28 50.294-31.084-11.04 15.64-30.429 33.833-50.294 31.084zm44.663-.564c18.69-24.806 19.424-4.053 0 0zm-582.263-3.047c-27.487-18.05-56.393-25.533-85.248-40.678-13.405-8.387-31.238-39.252-4.843-17.076 14.038 9.14 13.037-32.358 32.737-8.273 22.033 22.12 50.781 36.53 72.97 56.042 44.705 11.86-3.396 10.842-15.616 9.985zm160.552-7.12c-3.324-18.017 14.935 10.144 0 0zm474.901-19.419c.822-23.236 21.17-24.082 5.507-1.753l-3.422 2.727zm-538.74-3.178c-21.274-15.31-61.964-24.495-71.871-43.237 28.622 5.756 71.01 15.575 79.059 45.218l-2.038.067zm524.37-2.033c-5.819-14.278-27.208-29.217-38.38-44.876-19.246 36.315-55.452 20-77.212-2.328 8.12-29.176 32.48 35.512 32.192 6.963-22.429-28.37-32.243-69.61-69.669-85.23-30.303-8.515-53.606-29.902-85.81-33.772-31.655-4.144-57.245-26.402-89.572-29.05-66.405-7.333-132.956-13.662-199.087-23.373-45.2-3.038-90.538 4.283-135.62.53 24.562 15.781 60.949 4.573 89.992 5.92 50.132-2.138 97.769 17.151 146.362 26.543 33.077 3.846 60.124 21.888 82.173 45.886 15.725 15.467 77.519 49.815 22.232 50-35.783 10.022-73.092 5.938-106.848-8.334-31.41-7.132-65.118-3.48-94.687-19.032-44.934-21.38-93.36-34.559-137.477-57.611-30.68-20.662-62.433-39.346-97.4-51.908-40.63-25.019-16.741 47.958-19.406 70.483 3.374 15.007 10.643 65.934.894 24.41-6.574-38.382-13.303-76.856-17.988-115.493 18.377 1.82 86.142 10.154 78.513 11.517 21.336 12.622 46.133 16.256 67.638 4.333 28.97-11.362 60.838-8.398 91.535-7.377 21.22-2.445 25.24 2.842 1.557 3.023-16.098-.028-63.186 4.125-23.41 3.544 73.553-3.913 147.048.022 220.769-.088 33.624-7.158-27.336-7.102-36.474-4.12-30.578 1.084 37.72-6.032 49.91-11.196 36.629-1.921 74.234-2.986 109.059.005 34.898 5.814 75.238-4.823 107.215-.72 11.624 6.35 66.559-8.689 56.518 7.329-18.832 4.678-37.96 34.205-4.786 19.519 22.32-2.804 70.798-8.74 76.478 14.096-7.279 9.399 36.14 2.36 7.638-7.025-26.006-28.34 28.001.318 20.13 20.68 16.545 20.97-3.307 67.357-7.227 75.768 4.965-26.55-10.346-42.186-38.811-34.356 20.209-18.258-35.712-6.13-38.104-3.417 38.516 6.276 48.494 43.811 67.267 71.866-2.32 10.596-10.579 27.472 7.586 18.856-18.681 18.747 21.221 36.541-6.273 56.1-1.21 4.994-8.822 6.998-11.417 1.935zm-179.34-140.841c-3.883-1.196-1.938 1.836 0 0zm73.038-73.17c11.405-21.457-15.776 5.387 0 0zm-16.87-19.507c-4.04-5.674-4.04 5.674 0 0zm-196.946-2.652c33.785-4.912-32.26 1.734-8.306.404l3.488-.307zm22.2-2.785c-7.027-1.923-1.268 1.917 0 0zm14.192.055c-3.882-1.196-1.937 1.836 0 0zm94.248 235.865c5.588-9.58 53.302-4.257 17.386-.607-5.747.298-11.705 2.625-17.386.607zm-282.489-3.471c1.848-13.507 19.085 5.604 0 0zm184.836.598c-19.188 8.76-56.878-46.545-28.602-17.83 7.953-9.966 49.87 21.28 28.602 17.83zm-220.369-9.744c-24.638-20.367-47.037-39.237-73.808-56.754-15.96-10.812-56.943-33.706-52.736-44.905 48.184 11.557 92.794 34.16 137.897 54.1 28.539 6.641 38.419 36.132 9.338 48.332-7.287-2.398-13.861 4.211-20.69-.773zm400.614-2.334c.074-7.69 6.703 3.801 0 0zm-552.71-15.368c-4.98-6.81 10.202 3.346 0 0zM33.332 780.49c.923-4.753.923 4.753 0 0zm1.277-4.723c-1.53-6.673 5.576 4.148 0 0zm-2.844-5.515c-4.678-18.475 5.284-28.007.346-4.147 1.951 1.784.556 14.512-.346 4.147zm796.47-16.023c-2.662-13.674 7.103 6.114 0 0zm-687.785-4.06c-6.285-4.681 7.482.329 0 0zm-8.171-2.428c3.037-2.009 2.46 3.622 0 0zm-102.104-3.628c-7.784-12.802-4.164-43.498-.773-12.653-.117 3.939 2.851 8.729.773 12.653zm794.972.607c-4.518-8.768 5.486 1.221 0 0zm-661.492-11.414c-36.275-23.794 21.47 3.74 0 0zm401.243-3.07c7.081-13.233 29.094-.906 3.955 1.237l-2.588-.266zm257.714-3.114c-4.148-13.598 5.537-10.21 0 0zM488.686 694.05c-11.324-5.394-46.369-24.297-13.654-17.885 15.858 14.836 32.027 1.865 29.593-10.045 14.527-15.452 32.728 6.933 10.401 14.312-3.163 9.475-16.35 25.806-26.34 13.618z" style="fill:#129235;stroke-width:1.05439746" transform="translate(0 -572.5)"/><path d="M79.009 1045.782c-2.315-23.318 12.716 6.907 0 0zm71.522-13.961c-27.916-7.146 18.851-10.51 22.484-22.416 25.03-20.512 49.847 6.744 72.155-2.184.26 29.492-45.463 23.402-68.792 23.713-8.338-.608-18.2 3.986-25.847.887zm595.408-3.244c-4.454-7.78 42.214-8.187 53.356-20.967 22.504-1.594 39.631-20.653 29.332-38.91 17.543-21.855 17.256-53.638 25.915-78.36 22.32-5.828 7.034 48.887 2.363 41.753 19.83 1.349 14.32 46.642 2.62 59.803 10.727 33.081-21.8 35.82-48.39 31.67-22.004-1.92-43.253 5.801-65.196 5.011zm111.179-125.882c12.442-11.964-14.989 6.62 0 0zm-121.196 123.468c4.405-3.647 1.056 3.713 0 0zm-436.72-7.057c17.38-7.649 47.047 1.574 11.368.197-3.736-.235-7.72 1.259-11.368-.197zm302.285-5.79c-13.82-9.222-26.308-3.593-14.921-21.316-2.016 26.09 41.233-34.912 30.88-4.343 5.184 24.174 13.615-13.966 27.998 3.052 33.288 1.821-.73 15.195-13.561 10.793-3.121 11.13-20.504 18.723-30.396 11.815zm64.222-14.155c4.883-9.222 28.89 5.253 2.607 1.2zm69.79-24.469c-9.999-25.55 66.222-28.894 25.598-7.829-7.466 1.553-17.98 13.733-25.598 7.83zm14.161-29.667c12.422-12.312 50.67-5.157 17.256.872-5.738-.006-11.633.62-17.256-.872zm100.664-58.042c2.427-3.658 3.844 4.058 0 0zm-5.535-2.712c-3.885-20.956 11.651-34.659 10.194-16.604.803 12.647 14.721 21.848-7.43 12.66l-1.648 2.628-1.116 1.316zm6.59-33.137c1.884-6.02 1.808 5.787 0 0zm-5.52-13.251c-4.64-30.274 10-9.696 0 0zm-291.052-20.869c-14.988-14.431-33.853-26.814-53.303-30.836 26.827-13.53 54.769 14.376 78.367 25.105-7.716 4.51-15.962 11.503-25.064 5.731zm-410.402-2.784c1.31-4.157 3.784 4.014 0 0zm574.435-21.2c-2.515-6.816 8.618-21.362-4.475-32.37 1.41-25.298-8.827-48.42-12.7-72.556 7.123-10.32 17.505-66.486-6.15-47.89-14.101 10.231-52.733 1.439-47.407 27.188 17.153-4.029 44.703 6.43 14.579 16.122 15.678 12.236 37.813 21.366 32.503 42.136-23.492-12.974-31.477-44.274-56.405-52.466-27.752 6.532-47.387-22.684-71.926-21.234-35.636 4.788-64.244-24.286-99.634-25.706-34.633-.512-64.34-17.215-98.585-17.19-62.194-5.866-124.85-12.82-187.196-4.594-16.276 3.964-73.94-2.92-29.428-9.803 21.882-6.972 44.306-9.945 67.251-9.158-14.147 1.698-69.393 13.71-33.786 11.487 35.42-4.154 71.092-2.293 106.54-4.003 55.985-1.17 112.487 5.424 168.298-.32 33.43-9.246 68.674-3.844 102.326-10.77 33.114 7.642 74.13-3.621 99.575 23.213 18.396 14.611 11.618 1.227.422-7.115 14.306-18.344 41.07-28.283 59.975-17.423-13.69 15.581-24.805 14.053-41.105 13.697-18.834 17.509 32.266 17.618 44.74 9.58 23.748-9.614 58.902 9.81 64.04 17.283-16.483 34.392 28.743-11.914 32.095 6.927 12.84 14.974 11.154 52.98-5.459 54.362 2.014-26.881-48.203 1.622-28.237-27.245-12.534 3.474-79.234 5.525-39.641 20.82 26.365.904 21.12 26.4 8.135 35.95-11.726-12.274-20.586-27.185-15.215-.795-3.407 28.565 26.649 85.192-23.13 81.873zM473.87 718.838c-15.886-7.427-34.77-25.885-41.885-36.937 18.81 8.423 35.866 23.08 52.822 37.067l-3.288 1.203zm-179.212-7.966c-50.19-14.576-96.175-40.866-144.825-59.724-14.021-4.501-68.645-38.58-24.824-19.252 15.685-14.135 53.683 26.369 79.712 32.071 31.855 12.151 67.984 16.821 96.35 35.333 1.468 3.76 9.462 17.808-6.413 11.572zm67.745-7.044c-15.723-4.281-23.838-12.678-41.204-16.548-4.21-16.997-42.148-5.298-56.647-23.837-27.308-15.132-67.25-8.42-88.623-30.12-20.893-6.686-72.408-16.655-75.253-26.395 33.604 2.67 65.857 13.811 100.225 9.407 38.675-3.006 76.982 2.444 113.947 13.85 33.714 10.249 72.61 10.14 102.188 30.2 24.908 23.567-29.35-6.81-13.5 23.864 15.162 20.627-33.377 3.436-41.133 19.58zm-170.549-65.683c-9.68-3.062-4.06 1.442 0 0zM687.42 680.32c7.365-7.625 14.324 5.207 0 0zm-260.962-3.776c3.56-4.7 3.74 5.615 0 0zm-355.332-70.8c-23.14 1.353-42.984-28.038-63.537-15.29-11.64-34.221 42.9 14.91 62.745 12.543 4.868.308 14.23 8.338.792 2.747zm622.8.07c-1.432-8.414 10.02-4.137 0 0zm-42.618-12.807c7.944-14.185-23.532-11.464-28.5-17.74 13.397-5.106 71.617 15.116 28.5 17.74z" style="fill:#0d732d;stroke-width:1.05439746" transform="translate(0 -572.5)"/></g><g style="display:inline"><path d="M441.74 793.761c-2.992-.525-6.648.441-8.538-2.564-8.847-8.907-20.509-16.344-24.069-29.063-4.4-12.717-4.466-26.484-7.477-39.465-1.054-11.396-.322-22.866-.843-34.254-3.828-7.448-9.02-14.362-6.158-23.4.664-9.775 1.207-19.935 6.75-28.403 4.292-8.84 9.504-17.938 18.723-22.369 13.403-8.585 28.09-16.21 44.03-18.412 11.482 1.19 21.67 7.468 31.258 13.494 7.645 7.112 16.186 13.803 21.68 22.815-5.75 3.103-16.957-4.694-24.707-4.94-25.254-4.944-53.659-4.585-75.571 10.586-9.114 5.664-16.666 14.264-18.693 25.063-2.392 4.758-3.56 19.923 4.57 11.624 9.018-7.894 18.052-16.637 30.086-19.517 18.94-7.02 40.54-6.147 58.694 2.789 8.657 3.342 15.565 9.76 20.43 17.574 1.976 4.164 9.705 9.558 10.463 9.27-5.185 7.695-9.513 16.68-10.75 25.96-3.091 12.244-.097 25.22-4.04 37.368-.14 8.637-5.727 14.611-12.044 19.722-8.422 7.78-16.38 16.278-25.783 22.856-8.753 3.715-18.66 3.908-28.011 3.266zm4.81-16.37c4.222-8.38 12.071-7.823 17.125-.698 5.522 3.588 11.287-.603 16.305-3.013-1.895-5.965 2.404-10.505.793-16.512.658-6.485-13.348-9.847-5.605-14.74-.311-9.15-14.74-3.694-20.791-2.717-7.349.651-14.162 3.406-20.563 6.909-1.023 6.236 12.43-.752 17.203.394 10.54.87-6.119 1.807-8.893 3.664-8.331 1.992-19.867 8.747-13.44 19.202 5.077 5.735 8.519 13.545 17.867 7.512zm5.05-13.207c-11.618-7.112 16.354-8.437 6.465-2.185-2.514.884-3.417 3.977-6.465 2.185zm10.114-18.172c4.062-3.91 3.053 2.79 0 0zm-38.158 21.299c-3.318-6.553 1.265-11.293 1.215-18.487 1.3-8.169 10.62-10.878 15.908-15.965-2.44-3.752 3.058-11.267 6.43-6.855 7.107 4.312-5.734 3.241-4.179 4.477l9.575 5.48c3.643-5.779 11.839-5.731 16.966-2.415 3.977.57 7.847 3.986 9.707.536 8.228 5.547 4.533 18.805 4.599 27.495-3.256 11.635 8.448 1.695 12.78-.925 7.774-6.932 9.173-18.476 8.89-28.351-.247-10.479 4.712-20.57 2.765-31.05 1.348-8.768-2.796-15.854-6.066-23.445-2.455-8.012-8.555-14.475-16.276-17.53-7.666-4.547-16.518-5.806-25.336-5.81-11.488-.436-23.205 1.295-33.835 5.664-8.35 4.137-13.741 11.444-20.195 17.823-3.17 9.511-1.61 19.9-2.158 29.785-.625 10.843 2.25 21.34 4.02 31.916 1.552 8.444.463 17.589 6.92 24.202 1.782 1.674 9.914 12.67 8.27 3.455zm52.596-39.753c-3.992-2.832-9.765-5.49-6.747-11.02 3.684 3.28 5.168 7.032 9.773 7.776 1.663 3.462.401 5.653-3.026 3.244zm-18.702-1.768c-2.015-4.909 12.12.968 2.759.652l-1.066-.108-1.692-.544zm-18.331-21.78c1.727-3.892-5.278.052-5.514-4.585-3.065 3.945-15.414 7.928-18.497 3.508 4.69-7.409 16.423-8.255 24.663-7.834 1.245-2.305 4.407-6.598 6.462-.861 3.003 3.606-7.164 18.888-7.114 9.772zm-14.968-2.505c-3.106-3.88-.557 3.557 0 0zm37.412-2.325c-6.073-4.486-1.139-9.25 4.5-8.8 7.121-5.661 14.406-3.872 21.887-.255 3.309 6.75-6.284-2.897-5.696 3.604-4.447 3.088-11.838 1.78-13.924 6.552-3.497-3.571 2.477 5.703-3.982 1.23l-1.396-1.021zm12.328-6.719c-1.778-3.228-3.748 3.45 0 0zm-62.953-2.487c4.772-9.191 19.052-14.165 27.272-6.879.01 8.122-12.29-.754-17.224 3.642-1.73-.47-12.992 10.056-10.048 3.237zm51.84-10.736c.135-6.97 12.97-8.18 19.19-8.964 3.09-1.872 15.764 5.192 9.815 4.88-6.345-.787-12.667-.027-18.63 2.277-4.975 2.63-8.148-3.443-10.375 1.807zm17.443 59.851c-2.003-3.184-2.286 1.68 0 0zm35.038-43.879c2.912-7.736-5.366-2.688-1.768 1.701l.787-.43.981-1.27zm-.672-8.175c-2.435-3.644-2.131 3.521 0 0zm10.4-5.257c4.025-3.093 9.76-10.107 10.452-12.797-1.454 5.675-6.243 9.19-10.452 12.797zm12.564-22.11c.021-3.612 3.479-7.058.984-1.29-.905 3.141-2.627 9.81-1.224 2.644zm-1.113-12.01c-3.185-8.238 4.205 6.212 0 0zm-48.948-1.16c-6.374-.261-6.986-4.7-.11-2.984 4.942.337 10.59 5.414 1.873 3.195zm40.157-7.955c-5.057-2.387-4.865-2.837.233-.535 3.388 1.761 9.5 7.936 2.856 2.663-1-.749-1.984-1.535-3.09-2.128zm-42.778 3.371c-8.304-.38.925-3.007 3.71-1.763 11.662-4.182.875 5.808-3.71 1.763z" style="display:inline;fill:#000;stroke-width:.72348529" transform="translate(0 -572.5)"/></g><g style="display:inline"><path d="M313.82 936.967c-15.243-1.707-12.746-15.079-10.508-26.05 5.907 3.81-.381 23.7 14.269 23.396 19.77 4.768 17.148-18.851 25.721-27.698 7.495-3.586 27.522-17.11 28.054-15.1-11.7 8.344-29.089 14.706-30.278 31.266-1.528 14.123-15.76 16.038-27.258 14.186zm-2.487-9.1c-8.032-11.82 20.607-31.909-2.648-32.132-7.208.984-4.351 11.66-11.887 2.714-5.846-2.056-10.353-18.185-11.524-4.344-.641 7.168 15.365 18.285.704 11.128-10.15-10.698-4.156-34.421 13.94-28.01 14.298 4.016 29.447 4.03 43.54-.915 13.41-4.289 26.598-9.128 38.899-16.121 21.777-8.824 42.559-19.853 62.48-32.225 13.902-8.29 27.668-16.754 41.62-25.034 19.264-12.882 37.338-27.71 57.323-39.325 12.644-8.672 25.418-19.488 28.882-35.181 8.133-9.498 22.567-27.528 35.485-14.683 10.016 9.46 3.737 27.007 17.275 33.2 5.848 19.004-17.15 22.626-30.771 19.875-6.367.568-16.295-1.245-4.604-3.207 8.459 1.402 32.655 1.417 29.53-6.421-7.663 2.46-24.81-.824-11.937-9.241 8.483-13.733-21.037 2.983-15.278-14.14 3.961-10.656-12.835-15.41-8.124-2.548-.224 14.616-16.95 18.757-21.796 30.9-12.875 10.022-28.294 16.291-41.376 26.294-11.96 6.692-22.725 15.8-35.109 22.148-5.569 5.227-20.327 8.087-20.814 14.081 7.048-4.249 13.377-3.317 2.87 1.677-13.59 3.8-22.46 14.747-34.425 21.502-13.114 5.12-25.058 12.33-37.286 19.235-10.362 8.422-25.678 8.416-34.362 18.567-12.892 7.126-27.141 14.312-38.278 24.716 2.577 9.893-.25 23.463-12.33 17.49zm14.696-40.117c4.52-2.893 26.052-4.921 18.933-9.47-12.327 8.36-31.898 2.46-42.035 5.807 7.19 2.859 15.318 6.048 23.102 3.663zm238.966-130.418c2.224-6.248-8.104 6.268 0 0zm15.89 169.406c-13.483-4.616-20.512-16.533-24.18-28.79 7.674.395-10.057-15.531 2.57-7.712 1.878 9.157 6.31 12.278 15.057 13.502 10.394 4.205 3.453 11.96-2.986 3.96-12.718-10.972 1.15 16.902 10.124 14.298 6.392 3.807 15.986-18.746 9.49-4.324-1.416 5.023-2.35 14.817-10.075 9.066zm6.955-15.03c1.726-9.459 30.039-12.283 11.32-3.95-3.641 4.384-6.552 2.485-11.32 3.95zm27.476-11.976c4.776-4.91 15.633-6.763 4.638-.16.366-2.101-5.156 2.731-4.638.16zm-61.39-3.79c.239-3.317 2.715 3.046 0 0zm46.706-2.277c-5.728-3.958-8.039 3.696-9.135-7.148-4.834-5.507 10.29-5.735-2.277-6.538-12.228.304 6.653 19.623-10.333 13.532-13.689-6.673-25.489-16.36-41.482-17.097-13.152 2.926 20.829 6.588 14.114 15.449-4.098.653-18.272-10.786-24.87-15.838-11.915-10.236-27.924-14.662-39.229-25.52-1.625-5.733-12.567-17.028.464-9.646 9.186 6.534 32.924 13.18 33.223 20.25 2.434 6.49 8.996 5.575 11.066 2.5 14.616 3.644 27.114 15.777 42.867 15.59-3.895-4.835-20.29-8.242-5.474-5.38 13.514 6.07 28.371 4.478 42.666 3.364 10.139-4.624 22.253 22.58 11.165 7.18-1.514 5.627-5.172 12.31-14.04 10.036-2.965 1.512-6.199 2.368-8.725-.734zm-213.56-14.007c11.213-8.395 24.286-14.279 36.704-20.567-12.778 8.69-26.475 16.43-39.794 24.03.62-1.474 2.014-2.37 3.09-3.463zm45.625-58.71c-12.956-3.441-23.676-11.494-36.126-16.596-9.903-8.868-23.957-13.428-31.457-24.62-7.551-10.297-17.985-18.848-26.581-28.43-7.986-6.09-18.559-11.349-16.245 1.83 1.062 4.917 11.8 19.36 1.854 9.035-6.116-5.699-28.538-20.697-15.255-25.02-1.6 7.878 16.24 10.912 6.741 5.496-2.19-4.925-9.403-23.106-12.012-8.506-.24 9.785-15.611 7.431-3.301 15.006 5.627 5.294 7.988 14.703 10.433 19.156 11.425-3.88 29.925 13.89 32.87 15.243-13.652-6.982-28.447-11-43.723-12.272-14.76-.739-24.425-25.781-8.005-31.887 13.255-6.458 7.39-33.249 26.537-29.101 15.117-4.01 23.223 20.508 17.259 25.032-.055-7.614-7.66-12.247-4.48-1.39-1.007 17.028 18.84 20.427 28.739 29.647 18.4 16.604 38.874 30.512 60.512 42.52 4.35 3.228 36.887 16.646 12.24 14.858zm-126.813-53.93c-1.87-5.927-12.394-13.453-16.516-15.29-4.89 6.328 10.646 17.07 16.516 15.29zM489.3 818.576c11.707-8.297 23.267-16.72 36.193-23.331 12.946-5.566 23.366-15.637 36.807-19.952 5.688-3.92 20.719-7.888 6.453-1.517-25.389 12.16-49.26 27.043-73.122 41.878-1.732.52-4.646 3.342-6.33 2.922zm-125.288-31.803c-10.923-7.125-24.237-14.428-31.625-24.675 11.062 6.591-10.919-19.867 2.947-8.373 8.985 10.126 17.661 19.905 27.69 29.355.923 1.313 7.133 6.185.988 3.693zM342.08 749.15c-6.158-4.632-4.932-11.371.539-2.75 4.25 4.683 9.257 12.526-.54 2.75z" style="display:inline;fill:#000;stroke-width:.72348529" transform="translate(0 -572.5)"/><g aria-label="Green Warrior" style="font-style:normal;font-variant:normal;font-weight:400;font-stretch:normal;font-size:40px;line-height:25px;font-family:Sen;-inkscape-font-specification:Sen;letter-spacing:0;word-spacing:0;fill:#000;fill-opacity:1;stroke:none"><path d="M-1138.978 710.066c1.764.12 2.836 1.95.468 1.778-2.623 1.439-3.733 4.625-4.769 7.279-.938 1.51.365 4.467.784 1.386.47-1.57 1.308-5.738 3.496-3.372-1.297 2.356-1.942 5.103-3.398 7.207-.229 1.38-1.71 1.119-1.699-.157-2.67.991-2.966-2.439-2.02-4.15 1.305-3.569 2.86-7.463 6.106-9.696.315-.16.673-.278 1.032-.275zm-2.598 13.535c.2-.007-.204.29 0 0z" style="font-style:normal;font-variant:normal;font-weight:400;font-stretch:normal;font-family:WantedPirates;-inkscape-font-specification:WantedPirates" transform="translate(5684.701 -2999.589) scale(4.73308)"/><path d="M-1138.725 715.515c-.477 1.928.586 1.971 1.91 1.631 1.502 1.034 1.534 4.239-.66 2.295-1.509.894-1.826 2.85-2.759 4.252-.08 1.135-2.044 2.455-2.397 1.451.861-2.56 1.377-5.199 2.373-7.714.09-.92.36-2.018 1.533-1.915z" style="font-style:normal;font-variant:normal;font-weight:400;font-stretch:normal;font-family:WantedPirates;-inkscape-font-specification:WantedPirates" transform="translate(5684.701 -2999.589) scale(4.73308)"/><path d="M-1130.814 717.469c2.956.316 3.48 4.62.45 5.02-.72-.133-3.694-.003-3.042.697 1.463.13 3.918.12 1.089.982-1.99.543-6.496.36-4.873-2.753.784-2.967 3.67-3.792 6.376-3.946zm-2.442 3.066c1.016 1.484 4.063-1.5 1.59-1.39-.672.244-1.22.793-1.59 1.39z" style="font-style:normal;font-variant:normal;font-weight:400;font-stretch:normal;font-family:WantedPirates;-inkscape-font-specification:WantedPirates" transform="translate(5684.701 -2999.589) scale(4.73308)"/><path d="M-1123.393 717.469c2.957.316 3.48 4.62.45 5.02-.72-.133-3.692-.002-3.042.697 1.463.13 3.918.12 1.089.982-1.99.543-6.496.36-4.873-2.753.785-2.966 3.667-3.791 6.376-3.946zm-2.441 3.066c1.015 1.484 4.063-1.5 1.59-1.39-.672.243-1.22.793-1.59 1.39z" style="font-style:normal;font-variant:normal;font-weight:400;font-stretch:normal;font-family:WantedPirates;-inkscape-font-specification:WantedPirates" transform="translate(5684.701 -2999.589) scale(4.73308)"/><path d="M-1119.35 716.277c3.602-.62.678 3.026.332 4.59 2.118-1.178 3.205-5.633 6.204-3.607.413 1.776-1.178 3.26-1.562 4.938-.429 1.284-1.085 5.656-2.063 2.595-1.015-1.365 1.688-5.257.283-5.176-1.748 1.615-2.537 4.733-4.718 5.566-3.554.792-.66-3.344-.195-5.02.717-1.216.153-3.46 1.72-3.886zM-1102.514 709.597c1.152 1.013 3.042 1.217 1.423 3.114-1.014 2.108-1.621 4.393-2.907 6.36 1.66-1.376 3.215-4.66 4.63-6.895.164-2.307 2.094-2.629 3.672-1.72-.457 1.682-1.608 3.133-1.543 4.962 1.325-1.588 2.269-6.943 4.954-4.278.392 1.75-3.04 3.895-3.548 6.129-1.484 2.335-2.624 4.766-3.96 7.128-.033.816-2.696 3.55-1.993 1.538.484-1.058.03-1.714.738-2.978.344-2.03 1.402-5.81.917-7.039-1.589 2.56-3.41 4.981-4.852 7.615-.12 1.665-2.204 4.346-1.826 1.67.422-1.657.68-3.204.714-4.878.874-3.238 2.396-6.31 2.685-9.692.29-.349.53-.76.896-1.036zM-1092.592 717.84c1.38.262 4.65.197 3.34 2.148-.11 1.607-1.273 6.55-3.32 3.73-1.067-.242-5.61 1.96-5.548-1.054 1.035-2.333 2.762-4.66 5.528-4.824zm-.234 2.383c-1.34.985.139 3.979.22 1.2a7.59 7.59 0 0 0-.22-1.2z" style="font-style:normal;font-variant:normal;font-weight:400;font-stretch:normal;font-family:WantedPirates;-inkscape-font-specification:WantedPirates" transform="translate(5684.701 -2999.589) scale(4.73308)"/><path d="M-1086.38 715.515c-.478 1.928.584 1.971 1.908 1.631 1.502 1.034 1.535 4.239-.66 2.295-1.508.894-1.825 2.85-2.758 4.252-.08 1.135-2.045 2.454-2.397 1.451.86-2.56 1.377-5.199 2.372-7.714.09-.92.363-2.018 1.534-1.915z" style="font-style:normal;font-variant:normal;font-weight:400;font-stretch:normal;font-family:WantedPirates;-inkscape-font-specification:WantedPirates" transform="translate(5684.701 -2999.589) scale(4.73308)"/><path d="M-1081.615 715.515c-.477 1.928.585 1.971 1.91 1.631 1.5 1.034 1.535 4.239-.66 2.295-1.508.894-1.825 2.85-2.758 4.252-.081 1.135-2.045 2.455-2.398 1.451.861-2.56 1.377-5.199 2.373-7.714.089-.92.364-2.018 1.533-1.915zM-1069.76 707.293c-.03 1.883-.276 5.269-2.834 4.997-3.034-.154.14-4.066 1.773-4.635l.525-.201.537-.161zm-5.742 8.867c3.628.799.71 3.65-.466 5.414-1.403 1.099-1.957 5.764-3.577 4.645.65-3.27 2.216-6.291 3.242-9.453l.493-.455.308-.151z" style="font-style:normal;font-variant:normal;font-weight:400;font-stretch:normal;font-family:WantedPirates;-inkscape-font-specification:WantedPirates" transform="translate(5684.701 -2999.589) scale(4.73308)"/><path d="M-1072.357 717.312c4.486-.195 1.162 4.766.137 6.836-.699 1.193-2.943.807-2.246.215-2.8.45-2.47-2.995-1.31-4.453.928-1.056 1.921-2.43 3.419-2.598zm-1.426 3.38c-.546 1.243.132 5.104.943 1.745.843-1.224.623-4.973-.943-1.746zM-1067.162 715.515c-.477 1.928.585 1.971 1.91 1.631 1.501 1.034 1.534 4.239-.66 2.295-1.51.894-1.826 2.85-2.759 4.252-.081 1.135-2.045 2.455-2.398 1.451.862-2.56 1.377-5.199 2.373-7.714.09-.92.361-2.018 1.534-1.915z" style="font-style:normal;font-variant:normal;font-weight:400;font-stretch:normal;font-family:WantedPirates;-inkscape-font-specification:WantedPirates" transform="translate(5684.701 -2999.589) scale(4.73308)"/></g></g></svg>