<?xml version="1.0" encoding="UTF-8" standalone="no"?>
<!-- Created with Inkscape (http://www.inkscape.org/) -->

<svg
   xmlns:dc="http://purl.org/dc/elements/1.1/"
   xmlns:cc="http://creativecommons.org/ns#"
   xmlns:rdf="http://www.w3.org/1999/02/22-rdf-syntax-ns#"
   xmlns:svg="http://www.w3.org/2000/svg"
   xmlns="http://www.w3.org/2000/svg"
   xmlns:sodipodi="http://sodipodi.sourceforge.net/DTD/sodipodi-0.dtd"
   xmlns:inkscape="http://www.inkscape.org/namespaces/inkscape"
   width="928.14099"
   height="511.85199"
   viewBox="0 0 870.13218 479.86125"
   id="svg2"
   version="1.1"
   inkscape:version="0.92.4 (5da689c313, 2019-01-14)"
   sodipodi:docname="pirateflag.svg"
   inkscape:export-filename="/home/mezzo/Scrivania/Mezzo/immagini/mie/mie grafiche/pirata/pirata.svg.png"
   inkscape:export-xdpi="90"
   inkscape:export-ydpi="90">
  <defs
     id="defs4" />
  <sodipodi:namedview
     id="base"
     pagecolor="#ffffff"
     bordercolor="#666666"
     borderopacity="1.0"
     inkscape:pageopacity="0.0"
     inkscape:pageshadow="2"
     inkscape:zoom="0.7"
     inkscape:cx="448.36737"
     inkscape:cy="253.23752"
     inkscape:document-units="px"
     inkscape:current-layer="g1548"
     showgrid="false"
     inkscape:snap-others="false"
     inkscape:snap-nodes="false"
     inkscape:window-width="1920"
     inkscape:window-height="991"
     inkscape:window-x="-9"
     inkscape:window-y="-9"
     inkscape:window-maximized="1"
     units="px" />
  <metadata
     id="metadata7">
    <rdf:RDF>
      <cc:Work
         rdf:about="">
        <dc:format>image/svg+xml</dc:format>
        <dc:type
           rdf:resource="http://purl.org/dc/dcmitype/StillImage" />
        <dc:title></dc:title>
      </cc:Work>
    </rdf:RDF>
  </metadata>
  <g
     inkscape:groupmode="layer"
     id="layer2"
     inkscape:label="bandiera 1"
     style="display:inline"
     transform="translate(0,-572.50091)">
    <path
       style="fill:#15a136;stroke-width:1.05439746"
       d="M 80.087047,1051.663 C 66.941187,1024.4569 68.700817,989.14173 60.857917,958.8996 40.513807,839.17623 20.206877,719.34526 2.2061229,599.23512 -12.136458,551.43213 47.222837,589.48819 71.569667,583.07092 c 67.187273,7.63066 134.634133,-3.63848 201.999283,1.34979 44.20105,2.58636 88.57621,7.38612 132.41503,-0.36138 37.33432,-8.40612 75.7757,-15.05474 114.18081,-9.54056 36.52135,-6.87139 72.44394,7.86124 109.88126,-1.14153 41.63522,-0.47636 83.33184,1.30456 124.70208,4.41289 35.55788,-15.83409 64.97546,19.23663 70.72642,51.5238 18.4437,33.89584 -14.16142,67.33818 1.60425,103.38064 11.20926,31.38404 15.70471,64.67527 23.91918,96.73633 11.95763,33.55025 17.19942,68.62903 17.58145,104.31214 5.75625,31.72853 -6.03951,60.43323 -10.19974,88.91026 -35.44918,4.9983 -71.34481,0.5261 -106.60406,7.3694 -46.20685,-1.5661 -92.59989,-13.3591 -138.57707,-1.8541 -34.00359,-7.6243 -68.2326,-2.9523 -103.6021,-1.1662 -32.75999,4.1561 -64.96729,-10.2688 -96.70803,0.7962 -36.07149,5.1156 -71.43296,-5.9407 -107.30464,-3.6293 -17.89178,-2.1191 -34.32436,1.7751 -50.69095,8.753 -45.10879,-1.3187 -91.68122,-4.331 -134.9504,11.1296 -13.97564,-0.2258 -25.508793,11.2032 -39.855393,7.6111 z"
       id="path1480"
       inkscape:connector-curvature="0" />
    <path
       style="fill:#129235;stroke-width:1.05439746"
       d="m 81.955017,1049.6751 c -12.26757,-23.9433 -10.65584,-57.31602 -17.32981,-84.95035 -9.74661,-48.58357 -15.63968,-97.64755 -24.4284,-146.38599 -4.65266,-15.69382 -5.36621,-57.6911 1.53401,-18.11272 10.74905,29.91506 17.87464,63.63013 24.51882,95.85287 8.37213,50.99381 16.2942,102.27446 23.71128,153.27529 l -1.4436,0.5753 z m 54.542303,-15.0234 c -15.30151,-19.0822 28.01091,-10.7908 28.13359,-29.3209 12.77766,-16.68961 55.71496,-7.83993 40.44385,-34.71038 22.72417,-16.70268 28.14204,-80.91653 62.82818,-58.82166 -2.50824,8.93464 1.16959,23.58427 -7.748,36.61019 3.05348,21.41374 -8.09331,46.7501 -23.34095,51.25668 25.71076,0.52537 25.02686,33.95017 6.20973,25.35697 -18.58805,11.3531 -41.77452,3.0682 -62.2922,6.5566 -14.83981,-0.6394 -29.48628,5.4973 -44.2342,3.0725 z m 112.201,-16.5067 c 3.435,-6.1227 -7.30156,1.909 0,0 z m 491.96867,10.6634 c -25.6847,-9.5112 46.85596,-6.0256 56.89817,-22.2443 26.13513,-4.6656 22.37909,-20.54181 -3.87014,-13.27901 9.19427,-11.69742 54.65524,-34.8545 31.0303,-41.61541 19.13431,-7.04077 21.21535,-47.56527 -3.60851,-22.46635 -27.47011,22.26128 12.82358,-31.66677 12.46494,-43.53159 5.58547,-40.7 -35.89667,35.08153 -55.49952,22.14466 22.35739,-20.79274 38.31639,-49.00647 47.20737,-78.11629 9.72989,-2.54341 7.09478,42.16647 15.51648,29.46089 -0.81774,-31.08886 -4.24921,-64.30624 -9.21567,-96.81235 11.12984,23.57199 13.29359,58.94495 22.65394,86.76746 15.54637,41.51888 12.27394,86.54941 15.00939,130.12677 -17.34079,17.20625 3.95078,53.85862 -34.45537,45.07672 -31.75088,-2.0352 -62.56142,3.6621 -94.13138,4.4888 z m 99.95689,-113.56745 c 3.79551,-12.29947 -10.56045,6.06593 0,0 z M 371.24354,1026.4821 c -23.88756,-5.814 -66.14166,-3.0053 -80.99904,-7.4731 29.63532,-12.1755 59.20983,4.9489 89.01012,5.7533 12.29415,2.4175 -7.57914,3.1604 -8.01108,1.7198 z m 222.86222,-6.521 c -19.88796,-2.3465 -66.44491,-59.34751 -20.80988,-34.02173 32.3163,12.99409 47.70756,-34.18307 77.40346,-6.0039 11.14174,14.56437 65.33077,12.92095 54.40855,26.68403 -35.58401,1.4642 -71.44712,2.3547 -104.67979,14.9227 z m -141.02565,-5.0399 c -5.10642,-11.2673 10.36333,3.8583 0,0 z m 259.11816,-24.28121 c -13.52528,-2.65683 -37.461,-11.52031 -11.89624,-15.52587 14.20559,-20.10644 11.84725,-53.16928 -18.13621,-35.05089 -9.14999,-10.77801 7.78269,-26.07818 2.61812,-29.88339 9.08578,-10.98749 -32.04108,-18.62033 -33.23174,1.90921 -8.84216,-11.93382 -65.21926,-18.81648 -51.23817,-29.79244 14.18503,-4.96753 62.7478,1.35038 29.64124,-18.43171 13.4506,-22.79852 55.64208,-5.25236 59.68278,3.67941 4.07191,14.4071 33.60854,-6.71128 46.0625,11.6371 14.7948,-0.67632 3.59617,26.94476 18.8284,1.84465 5.7545,-14.80455 38.04667,-29.01052 19.65602,-2.11422 1.02364,11.30331 -11.69325,25.04742 -16.56928,36.25496 3.25618,25.56279 53.75165,-11.14448 31.72084,26.85429 -12.15345,27.16161 -46.19844,52.27664 -77.13826,48.6189 z m -26.35994,-89.94972 c -4.88731,-4.09385 -3.74199,3.66878 0,0 z m 7.18239,-0.7787 c -8.61722,-7.5874 -5.25943,6.41524 0,0 z M 88.653397,986.58529 c -6.1898,-31.6216 -0.19085,-61.03053 10.15824,-89.27698 10.383113,-18.26563 38.394863,-5.46626 17.086123,11.19542 -10.03129,13.32139 5.23863,26.16513 -13.19908,38.10796 -3.940223,11.93968 -2.48678,36.48639 -14.045283,39.9736 z M 558.78345,962.89972 c -18.67079,3.35063 -32.7524,-12.34705 -12.5797,-23.3193 20.98308,-5.35883 51.75566,4.74512 12.5797,23.3193 z M 619.4113,922.7473 c -11.96901,0.933 -44.45237,-22.73187 -13.74408,-13.13818 4.87408,-0.55515 36.87839,15.83037 13.74408,13.13818 z m 177.66596,-6.24107 c 6.35841,-3.92389 4.65003,4.35679 0,0 z M 536.32792,887.8397 c -20.37052,-21.87566 20.45451,-4.18706 0,0 z m -168.3904,-7.20614 c -28.50779,0.40558 -31.72437,-55.5781 -2.21164,-26.36128 16.37629,4.24141 48.87622,33.06278 11.23195,28.10653 l -4.65894,-0.65565 z m 168.56882,-8.91018 c -3.50299,-25.45551 12.38616,5.36875 0,0 z m -265.63545,-2.20321 c -1.09049,-5.12932 15.81385,5.91641 0,0 z m -14.96309,-5.36424 c -18.60891,-11.0333 33.24339,-6.37426 6.84305,2.52315 z m 295.27523,-6.17745 c -2.22934,-22.68228 -22.91873,-39.62282 -22.31115,-59.69728 -18.67975,-2.20134 -46.86886,-13.4961 -11.85038,-21.9687 22.80657,-8.71783 52.92066,20.70205 66.50458,35.87508 -12.03178,17.99558 -31.93019,13.9711 -44.77347,-0.0667 7.12689,19.08094 28.09555,22.48793 19.47566,38.59538 2.17101,3.16442 -2.72749,12.68015 -7.04524,7.26222 z m 162.74587,-5.25511 c -0.62723,-17.80433 54.24747,-34.28034 50.29371,-31.08393 -11.04017,15.64031 -30.42845,33.83208 -50.29371,31.08393 z m 44.66285,-0.56418 c 18.6903,-24.80651 19.42447,-4.05317 0,0 z M 176.329,849.11176 c -27.48656,-18.05031 -56.39256,-25.53274 -85.247963,-40.67758 -13.40515,-8.38675 -31.23797,-39.25232 -4.84322,-17.07592 14.038243,9.13995 13.03685,-32.3586 32.737283,-8.27306 22.03286,22.12014 50.78135,36.52909 72.9697,56.04183 44.70477,11.85966 -3.39581,10.84237 -15.6158,9.98473 z m 160.5519,-7.11888 c -3.32363,-18.0174 14.93551,10.14354 0,0 z m 474.90131,-19.41962 c 0.82172,-23.23672 21.16926,-24.08238 5.50701,-1.7536 l -3.42218,2.727 z m -538.74046,-3.1781 c -21.27342,-15.31021 -61.96358,-24.49543 -71.8708,-43.23763 28.62159,5.75671 71.00957,15.57532 79.05888,45.21866 l -2.0376,0.0666 z m 524.36997,-2.03281 c -5.81826,-14.2779 -27.20796,-29.21776 -38.37947,-44.87594 -19.2458,36.31485 -55.45221,19.99956 -77.21212,-2.32809 8.12014,-29.17583 32.47929,35.51198 32.19156,6.96314 -22.42837,-28.37089 -32.24276,-69.61103 -69.66852,-85.23112 -30.30289,-8.51419 -53.60626,-29.90172 -85.81014,-33.77177 -31.65512,-4.14397 -57.24518,-26.4014 -89.57219,-29.05004 -66.40525,-7.33228 -132.95572,-13.66167 -199.08666,-23.37282 -45.20072,-3.03753 -90.53806,4.28364 -135.62062,0.53081 24.56205,15.78088 60.94927,4.57244 89.99243,5.91894 50.13235,-2.13716 97.76896,17.15171 146.3622,26.54325 33.07632,3.84628 60.12382,21.88806 82.17284,45.88589 15.7245,15.46772 77.51867,49.81571 22.23198,50.0011 -35.78316,10.02154 -73.09231,5.93684 -106.84845,-8.33449 -31.40989,-7.13266 -65.11744,-3.47999 -94.6864,-19.03252 -44.93423,-21.37992 -93.35973,-34.55819 -137.47743,-57.61091 -30.6803,-20.66188 -62.432423,-39.34553 -97.400363,-51.90813 -40.6291091,-25.0182 -16.74052,47.95855 -19.40531,70.48288 3.37406,15.00713 10.64259,65.93398 0.894,24.41045 -6.57412,-38.38161 -13.3035431,-76.85633 -17.9880951,-115.49317 18.3766551,1.82072 86.1416151,10.15433 78.5132851,11.5168 21.335763,12.62226 46.132963,16.25685 67.637953,4.33318 28.97013,-11.36132 60.83749,-8.3976 91.53529,-7.37629 21.22037,-2.44591 25.23992,2.84144 1.55667,3.02277 -16.09839,-0.0285 -63.18579,4.12446 -23.40924,3.54374 73.55227,-3.91317 147.04686,0.0218 220.76786,-0.0882 33.62395,-7.15829 -27.33617,-7.10177 -36.47415,-4.12068 -30.57757,1.08484 37.72085,-6.0315 49.90944,-11.19538 36.62976,-1.92119 74.23533,-2.98526 109.05963,0.005 34.89853,5.81377 75.23784,-4.82307 107.21521,-0.71951 11.62376,6.34994 66.55905,-8.6892 56.51794,7.32847 -18.83179,4.67873 -37.95894,34.20543 -4.7854,19.51908 22.31861,-2.80341 70.79754,-8.74039 76.4777,14.09583 -7.27873,9.39896 36.13943,2.36054 7.63745,-7.02466 -26.00541,-28.33962 28.00184,0.31788 20.13037,20.67984 16.54485,20.97018 -3.30727,67.3575 -7.22686,75.76859 4.96477,-26.55047 -10.3458,-42.18618 -38.81125,-34.3566 20.20877,-18.25782 -35.71168,-6.13003 -38.10342,-3.41637 38.5153,6.27602 48.49319,43.81097 67.26607,71.86594 -2.3194,10.59549 -10.57847,27.47136 7.58688,18.85554 -18.6814,18.7474 21.22073,36.54126 -6.27362,56.10073 -1.21007,4.99368 -8.82149,6.99766 -11.41705,1.93456 z M 618.07134,676.52097 c -3.88185,-1.19578 -1.93692,1.83636 0,0 z m 73.03898,-73.17079 c 11.40479,-21.45641 -15.77619,5.38743 0,0 z m -16.87036,-19.50636 c -4.04089,-5.6739 -4.04089,5.6739 0,0 z m -196.9458,-2.65214 c 33.78475,-4.91124 -32.26055,1.73476 -8.30648,0.404 l 3.48826,-0.30664 z m 22.1995,-2.78426 c -7.02675,-1.92332 -1.26809,1.91626 0,0 z m 14.19234,0.0546 c -3.88175,-1.19591 -1.93705,1.83624 0,0 z m 94.24807,235.86486 c 5.58748,-9.57993 53.30171,-4.25732 17.38543,-0.60667 -5.74688,0.29752 -11.7044,2.62498 -17.38543,0.60667 z m -282.48876,-3.47126 c 1.8475,-13.50617 19.08474,5.60393 0,0 z m 184.83586,0.59845 c -19.18784,8.75992 -56.87844,-46.54496 -28.60189,-17.83008 7.95303,-9.96577 49.8691,21.28041 28.60189,17.83008 z M 289.91211,801.71004 C 265.2744,781.34316 242.8746,762.47349 216.1043,744.95609 c -15.96003,-10.81227 -56.94317,-33.70599 -52.736,-44.90497 48.18412,11.55714 92.79355,34.15916 137.8962,54.09897 28.53907,6.64217 38.41901,36.13247 9.33802,48.333 -7.28625,-2.39855 -13.86102,4.21137 -20.69041,-0.77305 z m 400.61423,-2.33378 c 0.0739,-7.69017 6.70238,3.80078 0,0 z M 137.81532,784.00824 c -4.97944,-6.81036 10.20222,3.34599 0,0 z M 33.332787,780.48895 c 0.92274,-4.7526 0.92274,4.7526 0,0 z m 1.27743,-4.72344 c -1.53109,-6.67221 5.57575,4.14816 0,0 z m -2.84443,-5.51463 c -4.67739,-18.47487 5.28421,-28.00723 0.34618,-4.14639 1.95153,1.78355 0.55588,14.51144 -0.34618,4.14639 z M 828.23513,754.22825 c -2.66112,-13.67411 7.10342,6.11398 0,0 z m -687.78382,-4.06102 c -6.28554,-4.68034 7.48211,0.32965 0,0 z m -8.17158,-2.42683 c 3.03692,-2.00922 2.46063,3.62163 0,0 z M 30.176427,744.11224 c -7.78464,-12.80231 -4.16481,-43.49856 -0.77308,-12.65277 -0.11739,3.93839 2.85096,8.7281 0.77308,12.65277 z m 794.971673,0.60712 c -4.5182,-8.7679 5.48583,1.22067 0,0 z M 163.65556,733.30467 c -36.27453,-23.79372 21.47055,3.73972 0,0 z m 401.24343,-3.06881 c 7.081,-13.2336 29.09424,-0.90695 3.95468,1.23629 l -2.5876,-0.26582 z m 257.71437,-3.11488 c -4.14867,-13.59769 5.53624,-10.2109 0,0 z M 488.68572,694.04969 c -11.32414,-5.39373 -46.36839,-24.29714 -13.65399,-17.88431 15.85876,14.83545 32.02721,1.86438 29.59284,-10.04512 14.52758,-15.45239 32.7283,6.933 10.40139,14.31149 -3.16346,9.47481 -16.34926,25.80662 -26.34024,13.61794 z"
       id="path1478"
       inkscape:connector-curvature="0" />
    <path
       style="fill:#0d732d;stroke-width:1.05439746"
       d="m 79.008777,1045.7816 c -2.3146,-23.3174 12.71623,6.9069 0,0 z m 71.522573,-13.9606 c -27.91585,-7.1462 18.85072,-10.5108 22.48406,-22.4163 25.02941,-20.51198 49.84666,6.7446 72.15413,-2.1832 0.26089,29.4919 -45.46208,23.402 -68.79131,23.7126 -8.33858,-0.608 -18.20057,3.9862 -25.84688,0.8869 z m 595.40763,-3.244 c -4.45431,-7.7795 42.21366,-8.187 53.35601,-20.9667 22.50428,-1.5944 39.63117,-20.65329 29.33153,-38.9109 17.54367,-21.85418 17.25654,-53.63701 25.91542,-78.35978 22.31965,-5.82766 7.03418,48.88718 2.36278,41.75312 19.8306,1.34907 14.31998,46.64239 2.62072,59.80291 10.72702,33.08155 -21.80135,35.82085 -48.39104,31.66955 -22.00343,-1.9194 -43.25272,5.8021 -65.19542,5.0118 z M 857.11762,902.6949 c 12.4424,-11.96424 -14.9886,6.62086 0,0 z m -121.19541,123.4686 c 4.40516,-3.6477 1.05627,3.7124 0,0 z m -436.72047,-7.0573 c 17.38031,-7.649 47.04743,1.5736 11.36827,0.1968 -3.73582,-0.2348 -7.71928,1.2588 -11.36827,-0.1968 z m 302.2848,-5.7894 c -13.82006,-9.2227 -26.30727,-3.5933 -14.92053,-21.31664 -2.01596,26.09024 41.2333,-34.91178 30.87957,-4.34294 5.184,24.17348 13.61577,-13.96589 27.99887,3.05194 33.28762,1.82132 -0.73116,15.19504 -13.56168,10.79284 -3.12098,11.1298 -20.50352,18.7226 -30.39623,11.8148 z m 64.22227,-14.15602 c 4.88294,-9.22201 28.89113,5.25372 2.60721,1.20042 z m 69.79013,-24.46848 c -9.99896,-25.55074 66.22217,-28.89438 25.598,-7.82883 -7.46615,1.55279 -17.97925,13.73227 -25.598,7.82883 z m 14.16142,-29.66722 c 12.42129,-12.31208 50.66895,-5.15699 17.25592,0.87144 -5.73852,-0.006 -11.63335,0.61958 -17.25592,-0.87144 z M 850.32435,886.9831 c 2.42629,-3.65777 3.84349,4.05753 0,0 z m -5.53567,-2.71162 c -3.88457,-20.95622 11.65143,-34.65899 10.19467,-16.60462 0.80253,12.64745 14.72083,21.84811 -7.43021,12.66041 l -1.64857,2.62749 -1.11598,1.31672 z m 6.59007,-33.1379 c 1.88391,-6.02006 1.80875,5.78717 0,0 z m -5.51889,-13.25107 c -4.64011,-30.27308 9.99999,-9.69544 0,0 z m -291.05285,-20.8683 c -14.98848,-14.43124 -33.85329,-26.81453 -53.30292,-30.83606 26.82735,-13.53085 54.76857,14.37558 78.36731,25.10487 -7.71623,4.50965 -15.96259,11.50306 -25.06439,5.73119 z M 144.4053,814.22967 c 1.30936,-4.15687 3.78354,4.01426 0,0 z m 574.43486,-21.19974 c -2.51469,-6.81642 8.61744,-21.36187 -4.47548,-32.36902 1.41009,-25.29853 -8.82692,-48.42042 -12.70005,-72.55741 7.12369,-10.31958 17.50532,-66.48592 -6.14981,-47.89001 -14.10105,10.23197 -52.73319,1.43918 -47.40686,27.18824 17.15278,-4.02847 44.7028,6.42979 14.57877,16.12193 15.67836,12.23633 37.8136,21.36653 32.50338,42.1366 -23.49162,-12.97415 -31.47681,-44.27427 -56.40503,-52.46609 -27.75234,6.53136 -47.38681,-22.68442 -71.92635,-21.23411 -35.63608,4.78749 -64.24363,-24.28627 -99.63359,-25.70643 -34.63356,-0.51191 -64.34048,-17.21512 -98.58542,-17.18903 -62.19391,-5.86674 -124.84994,-12.82142 -187.19546,-4.59467 -16.27629,3.96399 -73.94107,-2.91965 -29.42789,-9.80289 21.88196,-6.9716 44.3061,-9.94554 67.25108,-9.15839 -14.14739,1.6982 -69.39321,13.71065 -33.78666,11.48691 35.41994,-4.15347 71.09249,-2.29214 106.54008,-4.0028 55.98559,-1.17029 112.48763,5.42384 168.29829,-0.31904 33.42896,-9.24714 68.67379,-3.84501 102.32596,-10.76984 33.11379,7.64097 74.12987,-3.62234 99.57485,23.21222 18.3965,14.6112 11.61773,1.22671 0.42158,-7.11519 14.30673,-18.34388 41.06972,-28.28326 59.9756,-17.42261 -13.69082,15.58073 -24.80472,14.05311 -41.10514,13.69712 -18.83359,17.5086 32.26591,17.6177 44.74093,9.58011 23.74717,-9.61412 58.90151,9.8097 64.03974,17.28262 -16.48375,34.39153 28.74253,-11.91459 32.09415,6.92664 12.83926,14.97379 11.15442,52.98077 -5.45864,54.36238 2.01387,-26.88146 -48.20271,1.62232 -28.23708,-27.2455 -12.53385,3.47413 -79.23447,5.52517 -39.64114,20.81943 26.365,0.90491 21.12063,26.40025 8.13529,35.9518 -11.72615,-12.27526 -20.58634,-27.18613 -15.21496,-0.79541 -3.40705,28.56447 26.64831,85.19113 -23.13019,81.87242 z M 473.86904,718.8375 c -15.88601,-7.42628 -34.77027,-25.88452 -41.88474,-36.93603 18.81033,8.42284 35.86538,23.07926 52.82179,37.06659 l -3.28828,1.20251 z M 294.6569,710.87215 C 244.46714,696.29628 198.48239,670.0064 149.83245,651.14773 135.8107,646.64692 81.186527,612.5681 125.00785,631.89648 c 15.68481,-14.13546 53.68277,26.36828 79.71253,32.07086 31.8547,12.15105 67.98356,16.82073 96.34915,35.33301 1.4685,3.75933 9.46214,17.80795 -6.41263,11.5718 z m 67.74503,-7.04393 c -15.72287,-4.28161 -23.83826,-12.67825 -41.20412,-16.54779 -4.21073,-16.99778 -42.1483,-5.29851 -56.64671,-23.8378 -27.30781,-15.13212 -67.25066,-8.42007 -88.62264,-30.11911 -20.89389,-6.687 -72.4085,-16.65564 -75.25298,-26.39574 33.60321,2.66938 65.85608,13.8115 100.2249,9.40722 38.67431,-3.00558 76.98172,2.44391 113.94711,13.84961 33.71314,10.2492 72.60997,10.13996 102.18711,30.20087 24.90823,23.56624 -29.3488,-6.81066 -13.50035,23.86388 15.16304,20.62713 -33.37625,3.43602 -41.13232,19.57886 z M 191.85319,638.14529 c -9.68069,-3.06188 -4.0611,1.44136 0,0 z m 495.56552,42.17393 c 7.36496,-7.62531 14.32456,5.20644 0,0 z m -260.96213,-3.77628 c 3.55951,-4.70051 3.7403,5.61554 0,0 z M 71.124667,605.7426 c -23.13976,1.35362 -42.98333,-28.03747 -63.5362951,-15.28918 -11.640106,-34.22147 42.8999551,14.91051 62.7448851,12.54223 4.86821,0.30796 14.2293,8.33799 0.79141,2.74695 z m 622.799683,0.0701 c -1.4315,-8.41369 10.02033,-4.13639 0,0 z m -42.61753,-12.80669 c 7.94456,-14.18536 -23.53232,-11.46389 -28.49931,-17.73911 13.39644,-5.10736 71.61648,15.11497 28.49931,17.73911 z"
       id="path1476"
       inkscape:connector-curvature="0" />
  </g>
  <g
     inkscape:groupmode="layer"
     id="layer3"
     inkscape:label="faccia"
     style="display:inline"
     transform="translate(0,-572.50091)"
     sodipodi:insensitive="true">
    <path
       style="display:inline;fill:#000000;stroke-width:0.72348529"
       d="m 441.73964,793.7615 c -2.99209,-0.52584 -6.64718,0.44076 -8.53771,-2.56479 -8.84655,-8.90631 -20.50856,-16.34356 -24.06869,-29.06296 -4.40019,-12.71687 -4.46654,-26.4842 -7.47771,-39.46429 -1.05345,-11.3965 -0.32109,-22.86686 -0.84251,-34.25437 -3.82851,-7.44818 -9.0195,-14.36176 -6.15807,-23.4008 0.66373,-9.77449 1.2067,-19.9346 6.7493,-28.40253 4.29228,-8.83997 9.50475,-17.93727 18.72413,-22.36867 13.4025,-8.58491 28.09004,-16.21039 44.02928,-18.41233 11.48215,1.19037 21.67016,7.46791 31.25861,13.49456 7.64433,7.11213 16.18592,13.80223 21.6791,22.8144 -5.7494,3.10323 -16.95655,-4.694 -24.70598,-4.93966 -25.25476,-4.94377 -53.65941,-4.58476 -75.57184,10.58605 -9.11309,5.66355 -16.66595,14.26377 -18.69272,25.06291 -2.39221,4.75836 -3.55895,19.92299 4.57003,11.62403 9.0177,-7.8936 18.05177,-16.63733 30.08581,-19.51721 18.941,-7.01933 40.54058,-6.1465 58.69406,2.78919 8.65742,3.34192 15.5656,9.7607 20.43068,17.57437 1.97538,4.1634 9.70426,9.5579 10.4622,9.2705 -5.18504,7.6945 -9.51271,16.6787 -10.74969,25.95869 -3.09132,12.24393 -0.0974,25.22127 -4.04061,37.3686 -0.13984,8.63657 -5.72601,14.61091 -12.04341,19.72147 -8.42193,7.78006 -16.37926,16.27839 -25.78291,22.85612 -8.75255,3.71482 -18.66093,3.90835 -28.01135,3.26672 z m 4.81112,-16.36962 c 4.22114,-8.38054 12.07069,-7.82355 17.12426,-0.69905 5.52236,3.58768 11.28734,-0.60252 16.30459,-3.01273 -1.89427,-5.96518 2.40419,-10.50523 0.79299,-16.51216 0.6587,-6.48465 -13.3477,-9.84697 -5.60436,-14.73951 -0.31147,-9.15023 -14.7401,-3.6945 -20.79165,-2.71703 -7.34848,0.6508 -14.16174,3.40516 -20.56243,6.90856 -1.023,6.2358 12.42937,-0.75206 17.20328,0.39443 10.53868,0.87038 -6.11907,1.80671 -8.89315,3.66387 -8.33141,1.99198 -19.86728,8.74632 -13.43968,19.2015 5.07639,5.73492 8.51803,13.5457 17.86615,7.51212 z m 5.04943,-13.20803 c -11.61793,-7.11152 16.3542,-8.43729 6.4644,-2.18475 -2.51407,0.88405 -3.41658,3.97641 -6.4644,2.18475 z m 10.11412,-18.17155 c 4.06132,-3.91059 3.05242,2.79048 0,0 z m -38.1583,21.29852 c -3.31817,-6.5533 1.26479,-11.29288 1.21523,-18.48686 1.30003,-8.16853 10.6196,-10.87797 15.90763,-15.96541 -2.43975,-3.75146 3.05814,-11.26701 6.43099,-6.8549 7.10599,4.31278 -5.73486,3.24157 -4.17965,4.47722 3.19166,1.82648 6.38332,3.65295 9.57498,5.47943 3.64277,-5.77789 11.83836,-5.73078 16.9663,-2.41393 3.9764,0.57018 7.84634,3.98575 9.70692,0.53516 8.22741,5.54698 4.53264,18.8059 4.59847,27.49511 -3.25542,11.63575 8.4485,1.69539 12.77966,-0.92444 7.77471,-6.93237 9.17299,-18.47643 8.89118,-28.3514 -0.24804,-10.47853 4.71148,-20.56963 2.76378,-31.05042 1.34815,-8.76735 -2.79589,-15.85371 -6.0659,-23.44409 -2.45479,-8.0119 -8.55412,-14.47557 -16.27594,-17.52945 -7.6658,-4.54762 -16.51754,-5.80647 -25.33598,-5.81135 -11.4881,-0.4354 -23.20475,1.29514 -33.83508,5.66437 -8.3504,4.13685 -13.74069,11.44409 -20.19423,17.82322 -3.17045,9.51136 -1.61093,19.89952 -2.15807,29.78516 -0.62576,10.84255 2.25051,21.34033 4.02023,31.91622 1.55114,8.44306 0.46262,17.5882 6.92034,24.20174 1.7807,1.67385 9.91347,12.66887 8.26914,3.45462 z M 476.15172,727.558 c -3.99191,-2.83173 -9.76428,-5.49038 -6.74655,-11.02065 3.68341,3.28048 5.16747,7.03285 9.77313,7.7764 1.66241,3.46223 0.40108,5.65331 -3.02658,3.24425 z m -18.70123,-1.76839 c -2.01541,-4.9083 12.12045,0.96879 2.75847,0.6526 l -1.06588,-0.10817 -1.69253,-0.54443 z m -18.33162,-21.77987 c 1.72673,-3.8915 -5.27812,0.052 -5.51365,-4.58487 -3.06527,3.9453 -15.41397,7.9284 -18.49756,3.5081 4.69075,-7.40897 16.42322,-8.25531 24.66356,-7.83352 1.24488,-2.30587 4.40704,-6.59889 6.4621,-0.86171 3.00282,3.60626 -7.16431,18.8886 -7.11445,9.772 z m -14.96765,-2.50471 c -3.10655,-3.88024 -0.55729,3.5569 0,0 z m 37.4115,-2.32528 c -6.07275,-4.48623 -1.13825,-9.24881 4.50046,-8.79944 7.12095,-5.6615 14.40539,-3.8727 21.88684,-0.25562 3.30854,6.75079 -6.28412,-2.89623 -5.69604,3.60466 -4.44651,3.08735 -11.8378,1.77879 -13.92369,6.55171 -3.49708,-3.57121 2.47654,5.70289 -3.98242,1.22945 l -1.39539,-1.02069 z m 12.32812,-6.71828 c -1.77758,-3.22834 -3.74735,3.44915 0,0 z m -62.95317,-2.48699 c 4.77229,-9.19158 19.05268,-14.16571 27.27236,-6.87906 0.01,8.12184 -12.28981,-0.75442 -17.22406,3.64118 -1.73006,-0.4699 -12.99177,10.05686 -10.0483,3.23788 z M 462.77752,679.238 c 0.135,-6.96966 12.96982,-8.17997 19.18966,-8.96398 3.09014,-1.87242 15.76499,5.19161 9.81626,4.88032 -6.34589,-0.78756 -12.66786,-0.0275 -18.63005,2.27656 -4.97528,2.62915 -8.14795,-3.4433 -10.37587,1.8071 z m 17.44382,59.85122 c -2.00348,-3.1846 -2.28637,1.67902 0,0 z m 35.03767,-43.87894 c 2.91229,-7.73589 -5.36614,-2.68858 -1.76809,1.70089 l 0.78683,-0.43053 0.98126,-1.27035 z m -0.67212,-8.17495 c -2.43494,-3.64456 -2.13133,3.52098 0,0 z m 10.40011,-5.25694 c 4.02526,-3.09302 9.76027,-10.10703 10.45153,-12.79787 -1.45332,5.67558 -6.24275,9.18996 -10.45153,12.79787 z m 12.56409,-22.11108 c 0.0209,-3.61121 3.47888,-7.05687 0.98435,-1.28969 -0.90593,3.14145 -2.62696,9.8113 -1.22471,2.64399 z m -1.11277,-12.01022 c -3.18578,-8.23672 4.20505,6.21254 0,0 z m -48.94794,-1.15901 c -6.37418,-0.26127 -6.98621,-4.69949 -0.11074,-2.98363 4.94237,0.33624 10.59076,5.41309 1.8735,3.19448 z m 40.15621,-7.95528 c -5.05656,-2.38726 -4.86507,-2.83632 0.23366,-0.53456 3.38739,1.7611 9.49918,7.93622 2.85563,2.66303 -1.00015,-0.74899 -1.98408,-1.53498 -3.08929,-2.12847 z m -42.7775,3.37169 c -8.30435,-0.37967 0.92485,-3.00739 3.71068,-1.76317 11.66109,-4.18235 0.87446,5.8074 -3.71068,1.76317 z"
       id="path3355"
       inkscape:connector-curvature="0" />
    <flowRoot
       xml:space="preserve"
       id="flowRoot826"
       style="font-style:normal;font-variant:normal;font-weight:normal;font-stretch:normal;font-size:40px;line-height:25px;font-family:Sen;-inkscape-font-specification:Sen;letter-spacing:0px;word-spacing:0px;fill:#000000;fill-opacity:1;stroke:none"
       transform="matrix(4.7330821,0,0,4.7330821,5684.7012,-2427.088)"><flowRegion
         id="flowRegion828"><rect
           id="rect830"
           width="775.79712"
           height="246.47722"
           x="-1147.5333"
           y="706.33685" /></flowRegion><flowPara
         id="flowPara832"
         style="font-style:normal;font-variant:normal;font-weight:normal;font-stretch:normal;font-family:WantedPirates;-inkscape-font-specification:WantedPirates">Green Warrior</flowPara></flowRoot>    <flowRoot
       xml:space="preserve"
       id="flowRoot1381"
       style="line-height:1.25;letter-spacing:0px;word-spacing:0px;opacity:1;vector-effect:none;fill:#000000;fill-opacity:1;stroke:none;stroke-width:1;stroke-linecap:butt;stroke-linejoin:miter;stroke-miterlimit:4;stroke-dasharray:none;stroke-dashoffset:0;stroke-opacity:1"
       transform="scale(0.9375)"><flowRegion
         id="flowRegion1383"><rect
           id="rect1385"
           width="1590"
           height="892.85712"
           x="-330"
           y="211.09113" /></flowRegion><flowPara
         id="flowPara1387" /></flowRoot>  </g>
  <g
     inkscape:label="ossa"
     id="g1548"
     inkscape:groupmode="layer"
     style="display:inline"
     transform="translate(0,-572.50091)"
     sodipodi:insensitive="true">
    <path
       style="display:inline;fill:#000000;stroke-width:0.72348529"
       d="m 313.81972,936.96712 c -15.24304,-1.70686 -12.74555,-15.07891 -10.50774,-26.04964 5.90667,3.80925 -0.38136,23.69984 14.26901,23.39594 19.76909,4.76804 17.14851,-18.85182 25.72144,-27.69886 7.49501,-3.5859 27.52202,-17.10941 28.05357,-15.09864 -11.69909,8.34279 -29.0886,14.70543 -30.27841,31.26541 -1.5276,14.12271 -15.75964,16.03762 -27.25787,14.18579 z m -2.487,-9.10068 c -8.0317,-11.81935 20.6077,-31.90805 -2.64757,-32.13182 -7.2079,0.98397 -4.35142,11.66132 -11.88718,2.71451 -5.84577,-2.05616 -10.35324,-18.18479 -11.52384,-4.34447 -0.64116,7.16854 15.36507,18.28523 0.70344,11.12814 -10.14898,-10.69766 -4.15582,-34.42116 13.94074,-28.01015 14.29794,4.01641 29.44687,4.03066 43.54048,-0.91457 13.40855,-4.28875 26.59703,-9.1277 38.89821,-16.12124 21.77696,-8.82342 42.55861,-19.85288 62.47914,-32.22485 13.90261,-8.28962 27.66888,-16.75414 41.62066,-25.03361 19.26381,-12.88275 37.33813,-27.71103 57.32323,-39.32564 12.64389,-8.67194 25.41789,-19.48749 28.88179,-35.18123 8.13362,-9.49774 22.56668,-27.52704 35.48469,-14.68229 10.01606,9.46033 3.73741,27.00723 17.27588,33.20007 5.84745,19.00346 -17.15123,22.62611 -30.77165,19.87518 -6.36686,0.56788 -16.29493,-1.24557 -4.60394,-3.20715 8.45918,1.40206 32.65565,1.41643 29.53113,-6.42163 -7.66367,2.46052 -24.8114,-0.82414 -11.93788,-9.24111 8.48317,-13.73209 -21.0368,2.98356 -15.27849,-14.13966 3.96178,-10.65597 -12.83445,-15.41018 -8.1232,-2.54762 -0.22462,14.61548 -16.9507,18.75655 -21.79685,30.89975 -12.87466,10.02161 -28.29354,16.29108 -41.37519,26.29372 -11.96017,6.69243 -22.72548,15.79972 -35.10917,22.1486 -5.56888,5.22626 -20.32683,8.08648 -20.81453,14.08065 7.04822,-4.24863 13.37726,-3.3173 2.86989,1.67741 -13.5901,3.79865 -22.45961,14.74657 -34.42481,21.50109 -13.11415,5.12072 -25.05744,12.33047 -37.28604,19.23563 -10.36173,8.4222 -25.67783,8.41635 -34.36176,18.5667 -12.89237,7.12572 -27.14125,14.31249 -38.27785,24.71579 2.57673,9.89386 -0.25099,23.46307 -12.32933,17.4898 z m 14.69581,-40.11679 c 4.52087,-2.89259 26.05264,-4.92091 18.93367,-9.4688 -12.32685,8.35829 -31.89806,2.45884 -42.03497,5.80641 7.1904,2.85845 15.31813,6.04748 23.1013,3.66239 z M 564.99478,757.33186 c 2.22433,-6.24831 -8.10371,6.26837 0,0 z m 15.89014,169.40647 c -13.48336,-4.61615 -20.5121,-16.53321 -24.17939,-28.79088 7.67339,0.3951 -10.0572,-15.53091 2.56898,-7.71151 1.87874,9.15712 6.3102,12.27836 15.05765,13.5024 10.39393,4.20475 3.45306,11.96046 -2.98585,3.96001 -12.71879,-10.97221 1.14939,16.90121 10.12343,14.29808 6.39196,3.80624 15.98648,-18.74606 9.48981,-4.3247 -1.41575,5.02304 -2.34896,14.81696 -10.07463,9.0666 z m 6.95485,-15.02983 c 1.72603,-9.45935 30.03911,-12.2837 11.32076,-3.94985 -3.64154,4.38376 -6.55267,2.48431 -11.32076,3.94985 z m 27.47625,-11.97677 c 4.77632,-4.90967 15.63256,-6.76321 4.63768,-0.16024 0.36608,-2.10087 -5.156,2.73153 -4.63768,0.16024 z m -61.38962,-3.79001 c 0.23858,-3.3166 2.71462,3.04655 0,0 z m 46.70555,-2.27652 c -5.72767,-3.95817 -8.03897,3.69538 -9.13503,-7.14856 -4.83391,-5.50689 10.28972,-5.73475 -2.27656,-6.53781 -12.22841,0.30417 6.65288,19.62341 -10.33359,13.53238 -13.6885,-6.67334 -25.48833,-16.35983 -41.48184,-17.09703 -13.1518,2.92582 20.82897,6.58783 14.11381,15.44843 -4.09814,0.65382 -18.27171,-10.78529 -24.87055,-15.83712 -11.914,-10.23662 -27.92293,-14.66208 -39.22805,-25.52125 -1.6255,-5.73267 -12.56693,-17.02721 0.46383,-9.64569 9.18595,6.53469 32.92361,13.18046 33.22332,20.251 2.43418,6.48967 8.99568,5.57425 11.06546,2.50029 14.61597,3.64278 27.11383,15.77626 42.86704,15.58955 -3.89487,-4.83578 -20.28982,-8.24285 -5.47367,-5.38087 13.51357,6.07043 28.37136,4.47887 42.66543,3.36432 10.13946,-4.62414 22.25379,22.58048 11.16543,7.18046 -1.5141,5.6267 -5.17152,12.30886 -14.04025,10.03535 -2.96471,1.51258 -6.19843,2.36803 -8.72478,-0.73345 z M 387.0726,879.65753 c 11.21223,-8.39501 24.28494,-14.2785 36.70353,-20.56663 -12.77822,8.69076 -26.47509,16.43016 -39.79371,24.03026 0.62004,-1.4741 2.01372,-2.37026 3.09018,-3.46363 z m 45.62479,-58.70865 C 419.74114,817.50703 409.02105,809.45416 396.5708,804.35193 386.66751,795.4844 372.61383,790.9235 365.11406,779.73189 357.5629,769.4354 347.12892,760.8844 338.53281,751.3023 c -7.98577,-6.09053 -18.55867,-11.34894 -16.24441,1.83045 1.0614,4.91645 11.79914,19.35853 1.85345,9.034 -6.1162,-5.69872 -28.53812,-20.69643 -15.25514,-25.01922 -1.60005,7.8773 16.23939,10.91158 6.74172,5.49502 -2.19006,-4.92488 -9.40391,-23.1058 -12.01215,-8.50562 -0.2394,9.78548 -15.61131,7.43152 -3.30155,15.00558 5.62761,5.29473 7.98781,14.70321 10.43335,19.15693 11.42473,-3.88063 29.92522,13.88968 32.87048,15.2421 -13.65233,-6.98128 -28.44733,-10.99994 -43.72336,-12.27118 -14.76078,-0.73922 -24.42502,-25.7816 -8.00504,-31.88729 13.25488,-6.45805 7.38906,-33.24873 26.53673,-29.1011 15.11747,-4.01009 23.22307,20.50816 17.25898,25.03186 -0.0547,-7.6135 -7.66005,-12.24666 -4.48051,-1.38975 -1.00624,17.02785 18.8408,20.42652 28.73959,29.64659 18.39951,16.60431 38.87371,30.51208 60.51184,42.52002 4.35096,3.22834 36.88733,16.64611 12.2406,14.85819 z m -126.8138,-53.93034 c -1.8703,-5.92751 -12.3937,-13.45349 -16.51554,-15.29092 -4.89052,6.32815 10.64638,17.07067 16.51554,15.29092 z m 183.41683,51.55675 c 11.70667,-8.29715 23.26635,-16.72046 36.19231,-23.33131 12.94623,-5.56644 23.36674,-15.63709 36.80776,-19.95239 5.68718,-3.92022 20.71805,-7.88757 6.4526,-1.51688 -25.38903,12.16014 -49.26032,27.04358 -73.12217,41.87873 -1.73156,0.51982 -4.64574,3.34134 -6.3305,2.92185 z M 364.0115,786.77155 c -10.92235,-7.12428 -24.23693,-14.42763 -31.62485,-24.67462 11.06273,6.59155 -10.91828,-19.86713 2.94783,-8.37295 8.98448,10.12568 17.66061,19.90532 27.68928,29.35484 0.9229,1.31361 7.13372,6.18507 0.98774,3.69273 z m -21.93159,-37.62063 c -6.15841,-4.63232 -4.93162,-11.3711 0.53867,-2.74935 4.25009,4.68213 9.25713,12.52554 -0.53867,2.74935 z"
       id="path1530"
       inkscape:connector-curvature="0" />
    <g
       aria-label="Green Warrior"
       transform="matrix(4.7330821,0,0,4.7330821,5684.7012,-2427.088)"
       style="font-style:normal;font-variant:normal;font-weight:normal;font-stretch:normal;font-size:40px;line-height:25px;font-family:Sen;-inkscape-font-specification:Sen;letter-spacing:0px;word-spacing:0px;fill:#000000;fill-opacity:1;stroke:none"
       id="flowRoot1538">
      <path
         style="font-style:normal;font-variant:normal;font-weight:normal;font-stretch:normal;font-family:WantedPirates;-inkscape-font-specification:WantedPirates"
         d="m -1138.9785,710.06625 c 1.764,0.11959 2.8364,1.94908 0.4682,1.77737 -2.6232,1.4394 -3.7331,4.62567 -4.7686,7.27936 -0.9384,1.51015 0.3646,4.4673 0.7836,1.38606 0.4705,-1.56954 1.3087,-5.73756 3.4963,-3.37253 -1.2973,2.35641 -1.9417,5.10307 -3.3983,7.20703 -0.2284,1.38008 -1.7089,1.11948 -1.6986,-0.15625 -2.6708,0.99119 -2.9664,-2.43884 -2.021,-4.15069 1.3056,-3.56847 2.8602,-7.46268 6.1069,-9.6957 0.3148,-0.16037 0.6732,-0.27777 1.0315,-0.27465 z m -2.5977,13.53515 c 0.2001,-0.007 -0.2036,0.28917 0,0 z"
         id="path835"
         inkscape:connector-curvature="0" />
      <path
         style="font-style:normal;font-variant:normal;font-weight:normal;font-stretch:normal;font-family:WantedPirates;-inkscape-font-specification:WantedPirates"
         d="m -1138.7246,715.51547 c -0.477,1.92755 0.5854,1.97068 1.9093,1.63089 1.502,1.03332 1.5344,4.23817 -0.6596,2.29487 -1.509,0.89412 -1.826,2.84883 -2.7586,4.25148 -0.081,1.13486 -2.045,2.45484 -2.3977,1.45166 0.8612,-2.56094 1.3769,-5.19906 2.3728,-7.71484 0.09,-0.9204 0.3613,-2.01798 1.5338,-1.91406 z"
         id="path837"
         inkscape:connector-curvature="0" />
      <path
         style="font-style:normal;font-variant:normal;font-weight:normal;font-stretch:normal;font-family:WantedPirates;-inkscape-font-specification:WantedPirates"
         d="m -1130.8145,717.46859 c 2.9565,0.31601 3.4801,4.61979 0.4499,5.01953 -0.7189,-0.13216 -3.6931,-0.002 -3.0415,0.69824 1.4627,0.12994 3.9177,0.11985 1.0889,0.98143 -1.9895,0.54291 -6.4956,0.3593 -4.873,-2.75266 0.7839,-2.96666 3.6701,-3.79164 6.3757,-3.94654 z m -2.4414,3.06641 c 1.0154,1.48389 4.0628,-1.50067 1.5898,-1.39045 -0.6716,0.24398 -1.219,0.79331 -1.5898,1.39045 z"
         id="path839"
         inkscape:connector-curvature="0" />
      <path
         style="font-style:normal;font-variant:normal;font-weight:normal;font-stretch:normal;font-family:WantedPirates;-inkscape-font-specification:WantedPirates"
         d="m -1123.3926,717.46859 c 2.9565,0.31608 3.4801,4.61981 0.4498,5.01953 -0.7193,-0.13223 -3.6927,-10e-4 -3.0424,0.69824 1.4627,0.12994 3.9179,0.11984 1.089,0.98143 -1.9895,0.54291 -6.4956,0.3593 -4.873,-2.75266 0.7848,-2.96656 3.6671,-3.79121 6.3766,-3.94654 z m -2.4414,3.06641 c 1.0154,1.48394 4.063,-1.50071 1.5899,-1.39045 -0.6717,0.24392 -1.219,0.79346 -1.5899,1.39045 z"
         id="path841"
         inkscape:connector-curvature="0" />
      <path
         style="font-style:normal;font-variant:normal;font-weight:normal;font-stretch:normal;font-family:WantedPirates;-inkscape-font-specification:WantedPirates"
         d="m -1119.3496,716.27718 c 3.6019,-0.6195 0.6777,3.02554 0.332,4.58985 2.118,-1.17783 3.2049,-5.63267 6.2036,-3.60718 0.4129,1.77626 -1.1785,3.26041 -1.5624,4.93769 -0.4286,1.28454 -1.085,5.65641 -2.0629,2.59524 -1.0148,-1.36441 1.6885,-5.25713 0.2828,-5.17578 -1.7472,1.61456 -2.5363,4.73328 -4.7179,5.5664 -3.5538,0.79187 -0.6604,-3.34477 -0.1943,-5.01953 0.7168,-1.21664 0.1525,-3.46171 1.7191,-3.88669 z"
         id="path843"
         inkscape:connector-curvature="0" />
      <path
         style="font-style:normal;font-variant:normal;font-weight:normal;font-stretch:normal;font-family:WantedPirates;-inkscape-font-specification:WantedPirates"
         d="m -1102.5137,709.5975 c 1.1516,1.01212 3.0416,1.21675 1.4226,3.11396 -1.0144,2.10739 -1.6212,4.39273 -2.9067,6.35869 1.6596,-1.37527 3.2147,-4.65973 4.6292,-6.89453 0.1643,-2.3066 2.0944,-2.62856 3.6722,-1.71879 -0.4566,1.68088 -1.6078,3.13226 -1.543,4.96095 1.3256,-1.58728 2.269,-6.94257 4.9548,-4.27734 0.392,1.74893 -3.0412,3.89455 -3.5487,6.12858 -1.4839,2.33463 -2.6238,4.7656 -3.9599,7.12835 -0.033,0.81515 -2.6962,3.54921 -1.9926,1.53813 0.4837,-1.05892 0.029,-1.71405 0.7378,-2.97852 0.3435,-2.0293 1.402,-5.81076 0.9169,-7.03857 -1.5889,2.56005 -3.4097,4.98078 -4.8524,7.61474 -0.1199,1.6647 -2.2039,4.34547 -1.8254,1.66992 0.4223,-1.65709 0.6796,-3.20418 0.7142,-4.87793 0.8735,-3.23813 2.3952,-6.31072 2.6843,-9.69239 0.2911,-0.34856 0.5311,-0.76012 0.8967,-1.03525 z"
         id="path845"
         inkscape:connector-curvature="0" />
      <path
         style="font-style:normal;font-variant:normal;font-weight:normal;font-stretch:normal;font-family:WantedPirates;-inkscape-font-specification:WantedPirates"
         d="m -1092.5918,717.83968 c 1.379,0.26224 4.6498,0.19777 3.3398,2.14845 -0.1105,1.6068 -1.2728,6.54965 -3.3208,3.73047 -1.0659,-0.24293 -5.6091,1.95852 -5.5474,-1.05469 1.0352,-2.33278 2.7623,-4.65955 5.5284,-4.82423 z m -0.2344,2.38282 c -1.3406,0.98584 0.139,3.97939 0.2201,1.20122 -0.036,-0.40625 -0.1196,-0.80699 -0.2201,-1.20122 z"
         id="path847"
         inkscape:connector-curvature="0" />
      <path
         style="font-style:normal;font-variant:normal;font-weight:normal;font-stretch:normal;font-family:WantedPirates;-inkscape-font-specification:WantedPirates"
         d="m -1086.3809,715.51547 c -0.4769,1.92752 0.5853,1.9707 1.9092,1.63089 1.5021,1.0333 1.5344,4.23821 -0.6596,2.29487 -1.5089,0.89423 -1.8259,2.84883 -2.7585,4.25148 -0.081,1.13497 -2.0453,2.45478 -2.3977,1.45166 0.8611,-2.561 1.377,-5.19903 2.3728,-7.71484 0.09,-0.91989 0.3624,-2.01731 1.5338,-1.91406 z"
         id="path849"
         inkscape:connector-curvature="0" />
      <path
         style="font-style:normal;font-variant:normal;font-weight:normal;font-stretch:normal;font-family:WantedPirates;-inkscape-font-specification:WantedPirates"
         d="m -1081.6152,715.51547 c -0.477,1.92755 0.5854,1.97068 1.9093,1.63089 1.5012,1.03314 1.536,4.2383 -0.6586,2.29487 -1.509,0.89412 -1.826,2.84883 -2.7586,4.25148 -0.081,1.13497 -2.0453,2.45479 -2.3977,1.45166 0.8612,-2.56094 1.3768,-5.19906 2.3727,-7.71484 0.089,-0.9202 0.3644,-2.01788 1.5329,-1.91406 z"
         id="path851"
         inkscape:connector-curvature="0" />
      <path
         style="font-style:normal;font-variant:normal;font-weight:normal;font-stretch:normal;font-family:WantedPirates;-inkscape-font-specification:WantedPirates"
         d="m -1069.7598,707.29281 c -0.031,1.88336 -0.2762,5.26921 -2.8343,4.99718 -3.0344,-0.15434 0.1403,-4.06578 1.7729,-4.63466 l 0.5249,-0.20142 0.5371,-0.16113 z m -5.7422,8.86719 c 3.6281,0.79892 0.7091,3.65024 -0.4663,5.41382 -1.4026,1.099 -1.9567,5.76431 -3.5766,4.64477 0.6494,-3.26934 2.216,-6.29085 3.2422,-9.45309 l 0.4931,-0.4541 0.3076,-0.15137 z"
         id="path853"
         inkscape:connector-curvature="0" />
      <path
         style="font-style:normal;font-variant:normal;font-weight:normal;font-stretch:normal;font-family:WantedPirates;-inkscape-font-specification:WantedPirates"
         d="m -1072.3574,717.31234 c 4.4867,-0.19567 1.1626,4.7659 0.1371,6.83594 -0.6984,1.19298 -2.9426,0.80644 -2.2461,0.21483 -2.7995,0.44928 -2.4701,-2.99525 -1.3087,-4.45308 0.9268,-1.05651 1.9201,-2.42973 3.4177,-2.59769 z m -1.4258,3.37891 c -0.5461,1.24398 0.1326,5.10505 0.9437,1.7456 0.8428,-1.2239 0.6221,-4.97273 -0.9437,-1.7456 z"
         id="path855"
         inkscape:connector-curvature="0" />
      <path
         style="font-style:normal;font-variant:normal;font-weight:normal;font-stretch:normal;font-family:WantedPirates;-inkscape-font-specification:WantedPirates"
         d="m -1067.1621,715.51547 c -0.477,1.92755 0.5854,1.97068 1.9093,1.63089 1.502,1.03332 1.5344,4.23817 -0.6596,2.29487 -1.509,0.89412 -1.826,2.84883 -2.7586,4.25148 -0.081,1.13486 -2.045,2.45484 -2.3977,1.45166 0.8612,-2.56094 1.3769,-5.19906 2.3728,-7.71484 0.09,-0.9204 0.3613,-2.01798 1.5338,-1.91406 z"
         id="path857"
         inkscape:connector-curvature="0" />
    </g>
    <flowRoot
       transform="scale(0.9375)"
       style="line-height:1.25;letter-spacing:0px;word-spacing:0px;opacity:1;vector-effect:none;fill:#000000;fill-opacity:1;stroke:none;stroke-width:1;stroke-linecap:butt;stroke-linejoin:miter;stroke-miterlimit:4;stroke-dasharray:none;stroke-dashoffset:0;stroke-opacity:1"
       id="flowRoot1546"
       xml:space="preserve"><flowRegion
         id="flowRegion1542"><rect
           y="211.09113"
           x="-330"
           height="892.85712"
           width="1590"
           id="rect1540" /></flowRegion><flowPara
         id="flowPara1544" /></flowRoot>  </g>
</svg>
